<svg width="539" height="762" viewBox="0 0 539 762" fill="none" xmlns="http://www.w3.org/2000/svg">
<path d="M151.83 135.628C190.942 111.169 235.998 97.8692 282.123 97.167C328.248 96.4648 373.688 108.387 413.527 131.644C453.366 154.901 486.088 188.608 508.153 229.119C530.219 269.63 540.789 315.403 538.72 361.487L398.291 355.181C399.21 334.702 394.513 314.361 384.707 296.359C374.902 278.356 360.36 263.378 342.657 253.042C324.953 242.707 304.76 237.409 284.263 237.721C263.766 238.033 243.744 243.944 226.363 254.813L151.83 135.628Z" fill="#FACC15"/>
<path d="M523.505 450.486C510.469 494.736 485.582 534.58 451.537 565.708C417.491 596.836 375.583 618.063 330.345 627.094C285.107 636.124 238.261 632.614 194.874 616.944C151.486 601.273 113.209 574.038 84.1821 538.185L193.436 449.733C206.335 465.666 223.345 477.769 242.626 484.732C261.906 491.696 282.724 493.256 302.827 489.243C322.93 485.23 341.554 475.797 356.683 461.964C371.812 448.131 382.871 430.425 388.665 410.761L523.505 450.486Z" fill="#FACC15"/>
<path d="M490.19 380.86C476.929 394.923 454.777 395.573 440.714 382.311C426.651 369.05 426.001 346.899 439.262 332.835C452.524 318.772 474.675 318.122 488.738 331.384C502.802 344.645 503.452 366.796 490.19 380.86Z" fill="#A855F7"/>
<g filter="url(#filter0_d_3125_24842)">
<g clip-path="url(#clip0_3125_24842)">
<path d="M-0.00634766 0.000976562H349.994V750.001H-0.00634766V0.000976562Z" fill="#DBEAFE"/>
<path d="M31.9937 521.001C31.9937 509.955 40.948 501.001 51.9937 501.001H297.994C309.039 501.001 317.994 509.955 317.994 521.001V677.001C317.994 688.047 309.039 697.001 297.994 697.001H51.9937C40.948 697.001 31.9937 688.047 31.9937 677.001V521.001Z" fill="white"/>
<mask id="mask0_3125_24842" style="mask-type:alpha" maskUnits="userSpaceOnUse" x="31" y="501" width="287" height="197">
<path d="M31.9937 521.001C31.9937 509.955 40.948 501.001 51.9937 501.001H297.994C309.039 501.001 317.994 509.955 317.994 521.001V677.001C317.994 688.047 309.039 697.001 297.994 697.001H51.9937C40.948 697.001 31.9937 688.047 31.9937 677.001V521.001Z" fill="white"/>
</mask>
<g mask="url(#mask0_3125_24842)">
<path d="M246.994 566.501C246.994 577.271 238.263 586.001 227.494 586.001C216.724 586.001 207.994 577.271 207.994 566.501C207.994 555.731 216.724 547.001 227.494 547.001C238.263 547.001 246.994 555.731 246.994 566.501Z" fill="#FACC15"/>
<path d="M180.994 538.501C180.994 583.512 144.505 620.001 99.4937 620.001C54.4824 620.001 17.9937 583.512 17.9937 538.501C17.9937 493.49 54.4824 457.001 99.4937 457.001C144.505 457.001 180.994 493.49 180.994 538.501Z" fill="white"/>
<path fill-rule="evenodd" clip-rule="evenodd" d="M99.4937 610.001C138.982 610.001 170.994 577.989 170.994 538.501C170.994 499.013 138.982 467.001 99.4937 467.001C60.0053 467.001 27.9937 499.013 27.9937 538.501C27.9937 577.989 60.0053 610.001 99.4937 610.001ZM99.4937 620.001C144.505 620.001 180.994 583.512 180.994 538.501C180.994 493.49 144.505 457.001 99.4937 457.001C54.4824 457.001 17.9937 493.49 17.9937 538.501C17.9937 583.512 54.4824 620.001 99.4937 620.001Z" fill="#DBEAFE"/>
</g>
<path d="M317.994 722.001L141.994 722.001L317.994 554.001L317.994 722.001Z" fill="#BFDBFE"/>
<path d="M31.9937 463.001C31.9937 459.687 34.6799 457.001 37.9937 457.001H181.994C185.307 457.001 187.994 459.687 187.994 463.001C187.994 466.315 185.307 469.001 181.994 469.001H37.9937C34.6799 469.001 31.9937 466.315 31.9937 463.001Z" fill="white"/>
<mask id="path-11-inside-1_3125_24842" fill="white">
<path d="M-0.00634766 654.001H349.994V750.001H-0.00634766V654.001Z"/>
</mask>
<path d="M-0.00634766 654.001H349.994V750.001H-0.00634766V654.001Z" fill="#DBEAFE"/>
<path d="M-0.00634766 657.001H349.994V651.001H-0.00634766V657.001Z" fill="white" mask="url(#path-11-inside-1_3125_24842)"/>
<path fill-rule="evenodd" clip-rule="evenodd" d="M48.5535 682.502C49.2636 682.531 49.8564 683.053 49.9732 683.754L54.8793 713.191L59.0514 698.589C59.232 697.957 59.8036 697.516 60.4611 697.501C61.1186 697.487 61.7087 697.903 61.9167 698.527L64.5748 706.501H69.4937C70.3221 706.501 70.9937 707.173 70.9937 708.001C70.9937 708.829 70.3221 709.501 69.4937 709.501H63.4937C62.848 709.501 62.2748 709.088 62.0706 708.475L60.6039 704.075L55.9359 720.413C55.7433 721.087 55.109 721.538 54.4088 721.499C53.7086 721.459 53.1294 720.939 53.0141 720.248L48.1997 691.361L43.9489 708.365C43.7819 709.033 43.182 709.501 42.4937 709.501H36.4937C35.6652 709.501 34.9937 708.829 34.9937 708.001C34.9937 707.173 35.6652 706.501 36.4937 706.501H41.3225L47.0384 683.637C47.2108 682.948 47.8434 682.474 48.5535 682.502Z" fill="white"/>
<path fill-rule="evenodd" clip-rule="evenodd" d="M72.4937 706.501C71.6652 706.501 70.9937 707.173 70.9937 708.001C70.9937 708.829 71.6652 709.501 72.4937 709.501C73.3221 709.501 73.9937 708.829 73.9937 708.001C73.9937 707.173 73.3221 706.501 72.4937 706.501ZM67.9937 708.001C67.9937 705.516 70.0084 703.501 72.4937 703.501C74.9789 703.501 76.9937 705.516 76.9937 708.001C76.9937 710.486 74.9789 712.501 72.4937 712.501C70.0084 712.501 67.9937 710.486 67.9937 708.001Z" fill="white"/>
<path fill-rule="evenodd" clip-rule="evenodd" d="M162.706 685.236C165.374 683.453 168.511 682.501 171.721 682.501V684.001L171.721 682.501C176.025 682.501 180.152 684.211 183.195 687.254C186.238 690.297 187.948 694.424 187.948 698.728V698.728C187.948 701.938 186.996 705.075 185.213 707.744C183.43 710.412 180.896 712.492 177.931 713.72C174.966 714.948 171.703 715.27 168.555 714.644C165.407 714.017 162.516 712.472 160.246 710.203C157.977 707.933 156.432 705.042 155.805 701.894C155.179 698.746 155.501 695.483 156.729 692.518C157.957 689.553 160.037 687.019 162.706 685.236ZM171.721 685.501C175.229 685.501 178.593 686.895 181.074 689.375C183.554 691.856 184.948 695.22 184.948 698.728M171.721 685.501C169.105 685.501 166.547 686.277 164.372 687.73C162.197 689.184 160.502 691.249 159.501 693.666C158.499 696.083 158.237 698.743 158.748 701.309C159.258 703.874 160.518 706.231 162.368 708.081C164.218 709.931 166.575 711.191 169.14 711.701C171.706 712.212 174.366 711.95 176.783 710.948C179.2 709.947 181.265 708.252 182.719 706.077C184.172 703.902 184.948 701.344 184.948 698.728" fill="white"/>
<path fill-rule="evenodd" clip-rule="evenodd" d="M181.648 708.655C182.234 708.069 183.183 708.069 183.769 708.655L194.054 718.94C194.64 719.526 194.64 720.476 194.054 721.062C193.469 721.648 192.519 721.648 191.933 721.062L181.648 710.776C181.062 710.191 181.062 709.241 181.648 708.655Z" fill="white"/>
<path fill-rule="evenodd" clip-rule="evenodd" d="M275.994 693.001C275.994 692.173 276.665 691.501 277.494 691.501H310.494C311.322 691.501 311.994 692.173 311.994 693.001C311.994 693.829 311.322 694.501 310.494 694.501H277.494C276.665 694.501 275.994 693.829 275.994 693.001Z" fill="white"/>
<path fill-rule="evenodd" clip-rule="evenodd" d="M275.994 702.001C275.994 701.173 276.665 700.501 277.494 700.501H310.494C311.322 700.501 311.994 701.173 311.994 702.001C311.994 702.829 311.322 703.501 310.494 703.501H277.494C276.665 703.501 275.994 702.829 275.994 702.001Z" fill="white"/>
<path fill-rule="evenodd" clip-rule="evenodd" d="M275.994 711.001C275.994 710.173 276.665 709.501 277.494 709.501H310.494C311.322 709.501 311.994 710.173 311.994 711.001C311.994 711.829 311.322 712.501 310.494 712.501H277.494C276.665 712.501 275.994 711.829 275.994 711.001Z" fill="white"/>
<path fill-rule="evenodd" clip-rule="evenodd" d="M56.4596 85.91C57.3383 86.7887 57.3383 88.2133 56.4596 89.092L44.5506 101.001L56.4596 112.91C57.3383 113.789 57.3383 115.213 56.4596 116.092C55.581 116.971 54.1563 116.971 53.2777 116.092L39.7777 102.592C38.899 101.713 38.899 100.289 39.7777 99.41L53.2777 85.91C54.1563 85.0313 55.581 85.0313 56.4596 85.91Z" fill="white"/>
<path fill-rule="evenodd" clip-rule="evenodd" d="M40.9937 101.001C40.9937 99.7583 42.001 98.751 43.2437 98.751H70.6187C71.8613 98.751 72.8687 99.7583 72.8687 101.001C72.8687 102.244 71.8613 103.251 70.6187 103.251H43.2437C42.001 103.251 40.9937 102.244 40.9937 101.001Z" fill="white"/>
<path d="M108.994 101.001C108.994 96.5827 112.575 93.001 116.994 93.001H232.994C237.412 93.001 240.994 96.5827 240.994 101.001C240.994 105.419 237.412 109.001 232.994 109.001H116.994C112.575 109.001 108.994 105.419 108.994 101.001Z" fill="#BFDBFE"/>
<path d="M31.9937 179.001C31.9937 175.687 34.6799 173.001 37.9937 173.001H121.994C125.307 173.001 127.994 175.687 127.994 179.001C127.994 182.315 125.307 185.001 121.994 185.001H37.9937C34.6799 185.001 31.9937 182.315 31.9937 179.001Z" fill="white"/>
<path d="M31.9937 207.001C31.9937 203.687 34.6799 201.001 37.9937 201.001H166.994C170.307 201.001 172.994 203.687 172.994 207.001C172.994 210.315 170.307 213.001 166.994 213.001H37.9937C34.6799 213.001 31.9937 210.315 31.9937 207.001Z" fill="white"/>
<path d="M143.994 179.001C143.994 175.687 146.68 173.001 149.994 173.001H249.994C253.307 173.001 255.994 175.687 255.994 179.001C255.994 182.315 253.307 185.001 249.994 185.001H149.994C146.68 185.001 143.994 182.315 143.994 179.001Z" fill="white"/>
<g clip-path="url(#clip1_3125_24842)">
<rect x="31.9937" y="245.001" width="120" height="164" rx="20" fill="white"/>
<path d="M111.929 409.143C111.929 450.642 78.4841 484.284 37.2275 484.284C-4.02907 484.284 -37.4741 450.642 -37.4741 409.143C-37.4741 367.643 -4.02907 334.001 37.2275 334.001C78.4841 334.001 111.929 367.643 111.929 409.143Z" fill="#FACC15"/>
<path d="M131.913 294.297C131.913 309.364 119.77 321.578 104.792 321.578C89.8134 321.578 77.6709 309.364 77.6709 294.297C77.6709 279.231 89.8134 267.017 104.792 267.017C119.77 267.017 131.913 279.231 131.913 294.297Z" fill="white"/>
<path fill-rule="evenodd" clip-rule="evenodd" d="M104.792 318.578C118.097 318.578 128.913 307.724 128.913 294.297C128.913 280.871 118.097 270.017 104.792 270.017C91.4868 270.017 80.6709 280.871 80.6709 294.297C80.6709 307.724 91.4868 318.578 104.792 318.578ZM104.792 321.578C119.77 321.578 131.913 309.364 131.913 294.297C131.913 279.231 119.77 267.017 104.792 267.017C89.8134 267.017 77.6709 279.231 77.6709 294.297C77.6709 309.364 89.8134 321.578 104.792 321.578Z" fill="#BFDBFE"/>
</g>
<rect x="167.994" y="245.001" width="120" height="164" rx="20" fill="white"/>
<path d="M271.542 289.033C271.542 296.434 265.476 302.434 257.994 302.434C250.511 302.434 244.445 296.434 244.445 289.033C244.445 281.632 250.511 275.632 257.994 275.632C265.476 275.632 271.542 281.632 271.542 289.033Z" fill="#FACC15"/>
<path d="M250.252 362.26C250.252 377.327 237.903 389.541 222.671 389.541C207.439 389.541 195.09 377.327 195.09 362.26C195.09 347.193 207.439 334.979 222.671 334.979C237.903 334.979 250.252 347.193 250.252 362.26Z" fill="#BFDBFE"/>
<path fill-rule="evenodd" clip-rule="evenodd" d="M222.671 386.541C236.278 386.541 247.252 375.639 247.252 362.26C247.252 348.881 236.278 337.979 222.671 337.979C209.064 337.979 198.09 348.881 198.09 362.26C198.09 375.639 209.064 386.541 222.671 386.541ZM222.671 389.541C237.903 389.541 250.252 377.327 250.252 362.26C250.252 347.193 237.903 334.979 222.671 334.979C207.439 334.979 195.09 347.193 195.09 362.26C195.09 377.327 207.439 389.541 222.671 389.541Z" fill="#BFDBFE"/>
<rect x="303.994" y="245.001" width="120" height="164" rx="20" fill="white"/>
<path d="M349.993 287.001L359.398 314.057L388.036 314.64L365.21 331.945L373.505 359.362L349.993 343.001L326.482 359.362L334.777 331.945L311.951 314.64L340.589 314.057L349.993 287.001Z" fill="white"/>
<path fill-rule="evenodd" clip-rule="evenodd" d="M359.398 314.057L349.993 287.001L340.589 314.057L311.951 314.64L334.777 331.945L326.482 359.362L349.993 343.001L373.505 359.362L365.21 331.945L388.036 314.64L359.398 314.057ZM379.346 317.464L357.25 317.014L349.993 296.138L342.737 317.014L320.641 317.464L338.253 330.816L331.853 351.97L349.993 339.346L368.134 351.97L361.734 330.816L379.346 317.464Z" fill="#FACC15"/>
</g>
</g>
<defs>
<filter id="filter0_d_3125_24842" x="-0.00634766" y="0.000976562" width="362" height="762" filterUnits="userSpaceOnUse" color-interpolation-filters="sRGB">
<feFlood flood-opacity="0" result="BackgroundImageFix"/>
<feColorMatrix in="SourceAlpha" type="matrix" values="0 0 0 0 0 0 0 0 0 0 0 0 0 0 0 0 0 0 127 0" result="hardAlpha"/>
<feOffset dx="12" dy="12"/>
<feComposite in2="hardAlpha" operator="out"/>
<feColorMatrix type="matrix" values="0 0 0 0 0.0588235 0 0 0 0 0.0901961 0 0 0 0 0.164706 0 0 0 1 0"/>
<feBlend mode="normal" in2="BackgroundImageFix" result="effect1_dropShadow_3125_24842"/>
<feBlend mode="normal" in="SourceGraphic" in2="effect1_dropShadow_3125_24842" result="shape"/>
</filter>
<clipPath id="clip0_3125_24842">
<rect x="-0.00634766" y="0.000976562" width="350" height="750" rx="20" fill="white"/>
</clipPath>
<clipPath id="clip1_3125_24842">
<rect x="31.9937" y="245.001" width="120" height="164" rx="20" fill="white"/>
</clipPath>
</defs>
</svg>
