<svg width="40" height="26" viewBox="0 0 40 26" fill="none" xmlns="http://www.w3.org/2000/svg">
<path d="M24.7064 13.876H34.7473C35.1322 13.876 35.5014 14.0289 35.7734 14.3011C36.0456 14.5731 36.1985 14.9423 36.1985 15.3272C36.1985 15.7121 36.0456 16.0812 35.7734 16.3534C35.5014 16.6256 35.1322 16.7785 34.7473 16.7785H24.7203C25.0154 16.3744 25.1801 15.89 25.1925 15.3897C25.208 14.8445 25.0365 14.3102 24.7064 13.876ZM21.8038 1.51582C21.8038 1.88412 21.9502 2.23743 22.2106 2.49782C22.471 2.75822 22.8243 2.9046 23.1926 2.9046H24.9425C25.3275 2.9046 25.6966 2.75169 25.9687 2.47949C26.2409 2.20743 26.3938 1.83829 26.3938 1.45332C26.3938 1.06835 26.2409 0.699215 25.9687 0.427153C25.6966 0.154951 25.3275 0.00204849 24.9425 0.00204849H23.2621C23.0629 -0.00878334 22.8638 0.0234337 22.6782 0.0964832C22.4927 0.169533 22.3249 0.28161 22.1866 0.425348C22.0483 0.568949 21.9424 0.740738 21.8763 0.92878C21.8104 1.11696 21.7856 1.31722 21.8038 1.51582ZM28.5116 19.931C28.4966 20.4308 28.3322 20.9145 28.0395 21.3198H38.1081C38.4949 21.3198 38.8658 21.1662 39.1393 20.8927C39.4127 20.6192 39.5663 20.2483 39.5663 19.8616C39.5663 19.4748 39.4127 19.1039 39.1393 18.8305C38.8658 18.557 38.4949 18.4034 38.1081 18.4034H28.1089C28.4021 18.8569 28.5432 19.392 28.5116 19.931ZM18.7902 6.04324C18.7807 6.23142 18.8098 6.41946 18.8753 6.59611C18.9409 6.77262 19.0417 6.934 19.1715 7.07052C19.3015 7.2069 19.4578 7.31536 19.631 7.38952C19.8041 7.46354 19.9907 7.50174 20.179 7.50146H27.9145C28.3012 7.50146 28.6722 7.34786 28.9456 7.07441C29.2191 6.80082 29.3727 6.43001 29.3727 6.04324C29.3727 5.65646 29.2191 5.28552 28.9456 5.01207C28.6722 4.73862 28.3012 4.58502 27.9145 4.58502H20.2762C20.0758 4.57391 19.8754 4.60641 19.6887 4.68029C19.5021 4.75417 19.3336 4.8675 19.195 5.01276C19.0564 5.15803 18.9509 5.33149 18.8859 5.52134C18.8207 5.71118 18.7975 5.91297 18.818 6.11268L18.7902 6.04324ZM21.7622 10.654C21.7586 11.1771 21.5937 11.6863 21.29 12.1122H31.3864C31.7732 12.1122 32.1441 11.9586 32.4176 11.6852C32.691 11.4116 32.8446 11.0408 32.8446 10.654C32.8446 10.2672 32.691 9.89641 32.4176 9.62282C32.1441 9.34937 31.7732 9.19577 31.3864 9.19577H21.3039C21.632 9.63629 21.8031 10.1742 21.79 10.7234L21.7622 10.654ZM29.4977 23.0836H1.29157C0.947745 23.0872 0.619271 23.2264 0.377443 23.4708C0.135614 23.7152 -1.38867e-05 24.0452 1.06644e-09 24.389V24.6945C-1.38867e-05 25.0384 0.135614 25.3683 0.377443 25.6128C0.619271 25.8572 0.947745 25.9963 1.29157 26H29.4977C29.8439 26 30.176 25.8625 30.4208 25.6176C30.6656 25.3728 30.8031 25.0408 30.8031 24.6945V24.389C30.8031 24.0428 30.6656 23.7107 30.4208 23.4659C30.176 23.2211 29.8439 23.0836 29.4977 23.0836ZM27.4423 19.7783V20.0838C27.4423 20.43 27.3048 20.7621 27.06 21.0069C26.8151 21.2517 26.4831 21.3893 26.1368 21.3893H4.65241C4.30861 21.3856 3.9801 21.2464 3.73829 21.002C3.49646 20.7576 3.36083 20.4276 3.36085 20.0838V19.7783C3.36083 19.4344 3.49646 19.1045 3.73829 18.86C3.9801 18.6156 4.30861 18.4765 4.65241 18.4728H26.1646C26.5108 18.4728 26.8429 18.6104 27.0877 18.8552C27.3326 19.1 27.4701 19.432 27.4701 19.7783H27.4423ZM24.137 15.1814V15.5008C24.137 15.8433 24.0009 16.1719 23.7587 16.4141C23.5165 16.6563 23.188 16.7924 22.8454 16.7924H7.98548C7.8147 16.7942 7.64526 16.7621 7.48695 16.6981C7.32865 16.6341 7.18463 16.5392 7.06322 16.4191C6.94182 16.299 6.84543 16.1559 6.77966 15.9983C6.71389 15.8407 6.68002 15.6716 6.68003 15.5008V15.1814C6.6837 14.8375 6.82284 14.5091 7.06726 14.2673C7.31169 14.0254 7.64165 13.8898 7.98548 13.8898H22.8454C23.188 13.8898 23.5165 14.0259 23.7587 14.2681C24.0009 14.5103 24.137 14.8388 24.137 15.1814ZM20.7345 10.5845V10.8762C20.7345 11.2201 20.5989 11.55 20.357 11.7945C20.1152 12.0389 19.7868 12.178 19.4429 12.1816H11.4435C11.2652 12.193 11.0865 12.1678 10.9183 12.1072C10.7503 12.0468 10.5962 11.9524 10.4661 11.83C10.3359 11.7077 10.2323 11.5599 10.1614 11.3957C10.0907 11.2317 10.0543 11.0549 10.0548 10.8762V10.5707C10.0548 10.2244 10.1923 9.89238 10.4371 9.64754C10.6819 9.40269 11.014 9.26521 11.3602 9.26521H19.4151C19.5878 9.2634 19.759 9.29576 19.919 9.36061C20.079 9.42533 20.2245 9.52116 20.3473 9.64268C20.4699 9.76406 20.5673 9.90849 20.6338 10.0679C20.7003 10.2272 20.7345 10.398 20.7345 10.5707V10.5845ZM17.7486 5.9738V6.27933C17.7486 6.62555 17.6111 6.95761 17.3663 7.20245C17.1214 7.4473 16.7894 7.58478 16.4432 7.58478H14.3739C14.03 7.58117 13.7016 7.44202 13.4598 7.19759C13.2178 6.95317 13.0823 6.62319 13.0823 6.27933V5.9738C13.0823 5.62994 13.2178 5.29996 13.4598 5.05554C13.7016 4.81111 14.03 4.67196 14.3739 4.66835H16.4432C16.787 4.66835 17.117 4.80389 17.3614 5.04582C17.6058 5.2876 17.745 5.61605 17.7486 5.95991V5.9738Z" fill="#7C3AED"/>
</svg>
