<svg width="238" height="36" viewBox="0 0 238 36" fill="none" xmlns="http://www.w3.org/2000/svg">
<path d="M24.7064 18.876H34.7473C35.1322 18.876 35.5014 19.0289 35.7734 19.3011C36.0456 19.5731 36.1985 19.9423 36.1985 20.3272C36.1985 20.7121 36.0456 21.0812 35.7734 21.3534C35.5014 21.6256 35.1322 21.7785 34.7473 21.7785H24.7203C25.0154 21.3744 25.1801 20.89 25.1925 20.3897C25.208 19.8445 25.0365 19.3102 24.7064 18.876ZM21.8038 6.51582C21.8038 6.88412 21.9502 7.23743 22.2106 7.49782C22.471 7.75822 22.8243 7.9046 23.1926 7.9046H24.9425C25.3275 7.9046 25.6966 7.75169 25.9687 7.47949C26.2409 7.20743 26.3938 6.83829 26.3938 6.45332C26.3938 6.06835 26.2409 5.69921 25.9687 5.42715C25.6966 5.15495 25.3275 5.00205 24.9425 5.00205H23.2621C23.0629 4.99122 22.8638 5.02343 22.6782 5.09648C22.4927 5.16953 22.3249 5.28161 22.1866 5.42535C22.0483 5.56895 21.9424 5.74074 21.8763 5.92878C21.8104 6.11696 21.7856 6.31722 21.8038 6.51582ZM28.5116 24.931C28.4966 25.4308 28.3322 25.9145 28.0395 26.3198H38.1081C38.4949 26.3198 38.8658 26.1662 39.1393 25.8927C39.4127 25.6192 39.5663 25.2483 39.5663 24.8616C39.5663 24.4748 39.4127 24.1039 39.1393 23.8305C38.8658 23.557 38.4949 23.4034 38.1081 23.4034H28.1089C28.4021 23.8569 28.5432 24.392 28.5116 24.931ZM18.7902 11.0432C18.7807 11.2314 18.8098 11.4195 18.8753 11.5961C18.9409 11.7726 19.0417 11.934 19.1715 12.0705C19.3015 12.2069 19.4578 12.3154 19.631 12.3895C19.8041 12.4635 19.9907 12.5017 20.179 12.5015H27.9145C28.3012 12.5015 28.6722 12.3479 28.9456 12.0744C29.2191 11.8008 29.3727 11.43 29.3727 11.0432C29.3727 10.6565 29.2191 10.2855 28.9456 10.0121C28.6722 9.73862 28.3012 9.58502 27.9145 9.58502H20.2762C20.0758 9.57391 19.8754 9.60641 19.6887 9.68029C19.5021 9.75417 19.3336 9.8675 19.195 10.0128C19.0564 10.158 18.9509 10.3315 18.8859 10.5213C18.8207 10.7112 18.7975 10.913 18.818 11.1127L18.7902 11.0432ZM21.7622 15.654C21.7586 16.1771 21.5937 16.6863 21.29 17.1122H31.3864C31.7732 17.1122 32.1441 16.9586 32.4176 16.6852C32.691 16.4116 32.8446 16.0408 32.8446 15.654C32.8446 15.2672 32.691 14.8964 32.4176 14.6228C32.1441 14.3494 31.7732 14.1958 31.3864 14.1958H21.3039C21.632 14.6363 21.8031 15.1742 21.79 15.7234L21.7622 15.654ZM29.4977 28.0836H1.29157C0.947745 28.0872 0.619271 28.2264 0.377443 28.4708C0.135614 28.7152 -1.38867e-05 29.0452 1.06644e-09 29.389V29.6945C-1.38867e-05 30.0384 0.135614 30.3683 0.377443 30.6128C0.619271 30.8572 0.947745 30.9963 1.29157 31H29.4977C29.8439 31 30.176 30.8625 30.4208 30.6176C30.6656 30.3728 30.8031 30.0408 30.8031 29.6945V29.389C30.8031 29.0428 30.6656 28.7107 30.4208 28.4659C30.176 28.2211 29.8439 28.0836 29.4977 28.0836ZM27.4423 24.7783V25.0838C27.4423 25.43 27.3048 25.7621 27.06 26.0069C26.8151 26.2517 26.4831 26.3893 26.1368 26.3893H4.65241C4.30861 26.3856 3.9801 26.2464 3.73829 26.002C3.49646 25.7576 3.36083 25.4276 3.36085 25.0838V24.7783C3.36083 24.4344 3.49646 24.1045 3.73829 23.86C3.9801 23.6156 4.30861 23.4765 4.65241 23.4728H26.1646C26.5108 23.4728 26.8429 23.6104 27.0877 23.8552C27.3326 24.1 27.4701 24.432 27.4701 24.7783H27.4423ZM24.137 20.1814V20.5008C24.137 20.8433 24.0009 21.1719 23.7587 21.4141C23.5165 21.6563 23.188 21.7924 22.8454 21.7924H7.98548C7.8147 21.7942 7.64526 21.7621 7.48695 21.6981C7.32865 21.6341 7.18463 21.5392 7.06322 21.4191C6.94182 21.299 6.84543 21.1559 6.77966 20.9983C6.71389 20.8407 6.68002 20.6716 6.68003 20.5008V20.1814C6.6837 19.8375 6.82284 19.5091 7.06726 19.2673C7.31169 19.0254 7.64165 18.8898 7.98548 18.8898H22.8454C23.188 18.8898 23.5165 19.0259 23.7587 19.2681C24.0009 19.5103 24.137 19.8388 24.137 20.1814ZM20.7345 15.5845V15.8762C20.7345 16.2201 20.5989 16.55 20.357 16.7945C20.1152 17.0389 19.7868 17.178 19.4429 17.1816H11.4435C11.2652 17.193 11.0865 17.1678 10.9183 17.1072C10.7503 17.0468 10.5962 16.9524 10.4661 16.83C10.3359 16.7077 10.2323 16.5599 10.1614 16.3957C10.0907 16.2317 10.0543 16.0549 10.0548 15.8762V15.5707C10.0548 15.2244 10.1923 14.8924 10.4371 14.6475C10.6819 14.4027 11.014 14.2652 11.3602 14.2652H19.4151C19.5878 14.2634 19.759 14.2958 19.919 14.3606C20.079 14.4253 20.2245 14.5212 20.3473 14.6427C20.4699 14.7641 20.5673 14.9085 20.6338 15.0679C20.7003 15.2272 20.7345 15.398 20.7345 15.5707V15.5845ZM17.7486 10.9738V11.2793C17.7486 11.6256 17.6111 11.9576 17.3663 12.2025C17.1214 12.4473 16.7894 12.5848 16.4432 12.5848H14.3739C14.03 12.5812 13.7016 12.442 13.4598 12.1976C13.2178 11.9532 13.0823 11.6232 13.0823 11.2793V10.9738C13.0823 10.6299 13.2178 10.3 13.4598 10.0555C13.7016 9.81111 14.03 9.67196 14.3739 9.66835H16.4432C16.787 9.66835 17.117 9.80389 17.3614 10.0458C17.6058 10.2876 17.745 10.616 17.7486 10.9599V10.9738Z" fill="#7C3AED"/>
<path d="M60.582 28.5H55.6289L55.6602 24.8438H60.582C61.8112 24.8438 62.8477 24.5677 63.6914 24.0156C64.5352 23.4531 65.1706 22.6354 65.5977 21.5625C66.0352 20.4896 66.2539 19.1927 66.2539 17.6719V16.5625C66.2539 15.3958 66.1289 14.3698 65.8789 13.4844C65.6393 12.599 65.2799 11.8542 64.8008 11.25C64.3216 10.6458 63.7331 10.1927 63.0352 9.89062C62.3372 9.57812 61.5352 9.42188 60.6289 9.42188H55.5352V5.75H60.6289C62.1497 5.75 63.5404 6.01042 64.8008 6.53125C66.0716 7.04167 67.1706 7.77604 68.0977 8.73438C69.0247 9.69271 69.7383 10.8385 70.2383 12.1719C70.7487 13.4948 71.0039 14.9688 71.0039 16.5938V17.6719C71.0039 19.2865 70.7487 20.7604 70.2383 22.0938C69.7383 23.4271 69.0247 24.5729 68.0977 25.5312C67.181 26.4792 66.082 27.2135 64.8008 27.7344C63.5299 28.2448 62.1237 28.5 60.582 28.5ZM58.2852 5.75V28.5H53.5977V5.75H58.2852ZM81.9102 28.8125C80.5977 28.8125 79.4206 28.6042 78.3789 28.1875C77.3372 27.7604 76.4518 27.1719 75.7227 26.4219C75.0039 25.6719 74.4518 24.8021 74.0664 23.8125C73.681 22.8125 73.4883 21.75 73.4883 20.625V20C73.4883 18.7188 73.6706 17.5469 74.0352 16.4844C74.3997 15.4219 74.9206 14.5 75.5977 13.7188C76.2852 12.9375 77.1185 12.3385 78.0977 11.9219C79.0768 11.4948 80.181 11.2812 81.4102 11.2812C82.6081 11.2812 83.6706 11.4792 84.5977 11.875C85.5247 12.2708 86.3008 12.8333 86.9258 13.5625C87.5612 14.2917 88.0404 15.1667 88.3633 16.1875C88.6862 17.1979 88.8477 18.3229 88.8477 19.5625V21.4375H75.4102V18.4375H84.4258V18.0938C84.4258 17.4688 84.3112 16.9115 84.082 16.4219C83.8633 15.9219 83.5299 15.526 83.082 15.2344C82.6341 14.9427 82.0612 14.7969 81.3633 14.7969C80.7695 14.7969 80.2591 14.9271 79.832 15.1875C79.4049 15.4479 79.056 15.8125 78.7852 16.2812C78.5247 16.75 78.3268 17.3021 78.1914 17.9375C78.0664 18.5625 78.0039 19.25 78.0039 20V20.625C78.0039 21.3021 78.0977 21.9271 78.2852 22.5C78.4831 23.0729 78.7591 23.5677 79.1133 23.9844C79.4779 24.401 79.9154 24.724 80.4258 24.9531C80.9466 25.1823 81.5352 25.2969 82.1914 25.2969C83.0039 25.2969 83.7591 25.1406 84.457 24.8281C85.1654 24.5052 85.7747 24.0208 86.2852 23.375L88.4727 25.75C88.1185 26.2604 87.6341 26.75 87.0195 27.2188C86.4154 27.6875 85.6862 28.0729 84.832 28.375C83.9779 28.6667 83.0039 28.8125 81.9102 28.8125ZM99.1914 28.8125C97.8789 28.8125 96.7018 28.6042 95.6602 28.1875C94.6185 27.7604 93.7331 27.1719 93.0039 26.4219C92.2852 25.6719 91.7331 24.8021 91.3477 23.8125C90.9622 22.8125 90.7695 21.75 90.7695 20.625V20C90.7695 18.7188 90.9518 17.5469 91.3164 16.4844C91.681 15.4219 92.2018 14.5 92.8789 13.7188C93.5664 12.9375 94.3997 12.3385 95.3789 11.9219C96.3581 11.4948 97.4622 11.2812 98.6914 11.2812C99.8893 11.2812 100.952 11.4792 101.879 11.875C102.806 12.2708 103.582 12.8333 104.207 13.5625C104.842 14.2917 105.322 15.1667 105.645 16.1875C105.967 17.1979 106.129 18.3229 106.129 19.5625V21.4375H92.6914V18.4375H101.707V18.0938C101.707 17.4688 101.592 16.9115 101.363 16.4219C101.145 15.9219 100.811 15.526 100.363 15.2344C99.9154 14.9427 99.3424 14.7969 98.6445 14.7969C98.0508 14.7969 97.5404 14.9271 97.1133 15.1875C96.6862 15.4479 96.3372 15.8125 96.0664 16.2812C95.806 16.75 95.6081 17.3021 95.4727 17.9375C95.3477 18.5625 95.2852 19.25 95.2852 20V20.625C95.2852 21.3021 95.3789 21.9271 95.5664 22.5C95.7643 23.0729 96.0404 23.5677 96.3945 23.9844C96.7591 24.401 97.1966 24.724 97.707 24.9531C98.2279 25.1823 98.8164 25.2969 99.4727 25.2969C100.285 25.2969 101.04 25.1406 101.738 24.8281C102.447 24.5052 103.056 24.0208 103.566 23.375L105.754 25.75C105.4 26.2604 104.915 26.75 104.301 27.2188C103.697 27.6875 102.967 28.0729 102.113 28.375C101.259 28.6667 100.285 28.8125 99.1914 28.8125ZM113.191 14.8438V35H108.691V11.5938H112.863L113.191 14.8438ZM123.895 19.8594V20.1875C123.895 21.4167 123.749 22.5573 123.457 23.6094C123.176 24.6615 122.759 25.5781 122.207 26.3594C121.655 27.1302 120.967 27.7344 120.145 28.1719C119.332 28.599 118.395 28.8125 117.332 28.8125C116.301 28.8125 115.405 28.6042 114.645 28.1875C113.884 27.7708 113.243 27.1875 112.723 26.4375C112.212 25.6771 111.801 24.7969 111.488 23.7969C111.176 22.7969 110.936 21.724 110.77 20.5781V19.7188C110.936 18.4896 111.176 17.3646 111.488 16.3438C111.801 15.3125 112.212 14.4219 112.723 13.6719C113.243 12.9115 113.879 12.3229 114.629 11.9062C115.389 11.4896 116.28 11.2812 117.301 11.2812C118.374 11.2812 119.316 11.4844 120.129 11.8906C120.952 12.2969 121.639 12.8802 122.191 13.6406C122.754 14.401 123.176 15.3073 123.457 16.3594C123.749 17.4115 123.895 18.5781 123.895 19.8594ZM119.379 20.1875V19.8594C119.379 19.1406 119.316 18.4792 119.191 17.875C119.077 17.2604 118.889 16.724 118.629 16.2656C118.379 15.8073 118.046 15.4531 117.629 15.2031C117.223 14.9427 116.728 14.8125 116.145 14.8125C115.53 14.8125 115.004 14.9115 114.566 15.1094C114.139 15.3073 113.79 15.5938 113.52 15.9688C113.249 16.3438 113.046 16.7917 112.91 17.3125C112.775 17.8333 112.691 18.4219 112.66 19.0781V21.25C112.712 22.0208 112.858 22.7135 113.098 23.3281C113.337 23.9323 113.707 24.4115 114.207 24.7656C114.707 25.1198 115.363 25.2969 116.176 25.2969C116.77 25.2969 117.27 25.1667 117.676 24.9062C118.082 24.6354 118.41 24.2656 118.66 23.7969C118.921 23.3281 119.103 22.7865 119.207 22.1719C119.322 21.5573 119.379 20.8958 119.379 20.1875ZM126.973 5.75H135.457C137.197 5.75 138.691 6.01042 139.941 6.53125C141.202 7.05208 142.171 7.82292 142.848 8.84375C143.525 9.86458 143.863 11.1198 143.863 12.6094C143.863 13.8281 143.655 14.875 143.238 15.75C142.832 16.6146 142.254 17.3385 141.504 17.9219C140.764 18.4948 139.895 18.9531 138.895 19.2969L137.41 20.0781H130.035L130.004 16.4219H135.488C136.311 16.4219 136.993 16.276 137.535 15.9844C138.077 15.6927 138.483 15.2865 138.754 14.7656C139.035 14.2448 139.176 13.6406 139.176 12.9531C139.176 12.224 139.04 11.5938 138.77 11.0625C138.499 10.5312 138.087 10.125 137.535 9.84375C136.983 9.5625 136.29 9.42188 135.457 9.42188H131.66V28.5H126.973V5.75ZM139.691 28.5L134.504 18.3594L139.457 18.3281L144.707 28.2812V28.5H139.691ZM154.973 28.8125C153.66 28.8125 152.483 28.6042 151.441 28.1875C150.4 27.7604 149.514 27.1719 148.785 26.4219C148.066 25.6719 147.514 24.8021 147.129 23.8125C146.743 22.8125 146.551 21.75 146.551 20.625V20C146.551 18.7188 146.733 17.5469 147.098 16.4844C147.462 15.4219 147.983 14.5 148.66 13.7188C149.348 12.9375 150.181 12.3385 151.16 11.9219C152.139 11.4948 153.243 11.2812 154.473 11.2812C155.671 11.2812 156.733 11.4792 157.66 11.875C158.587 12.2708 159.363 12.8333 159.988 13.5625C160.624 14.2917 161.103 15.1667 161.426 16.1875C161.749 17.1979 161.91 18.3229 161.91 19.5625V21.4375H148.473V18.4375H157.488V18.0938C157.488 17.4688 157.374 16.9115 157.145 16.4219C156.926 15.9219 156.592 15.526 156.145 15.2344C155.697 14.9427 155.124 14.7969 154.426 14.7969C153.832 14.7969 153.322 14.9271 152.895 15.1875C152.467 15.4479 152.118 15.8125 151.848 16.2812C151.587 16.75 151.389 17.3021 151.254 17.9375C151.129 18.5625 151.066 19.25 151.066 20V20.625C151.066 21.3021 151.16 21.9271 151.348 22.5C151.546 23.0729 151.822 23.5677 152.176 23.9844C152.54 24.401 152.978 24.724 153.488 24.9531C154.009 25.1823 154.598 25.2969 155.254 25.2969C156.066 25.2969 156.822 25.1406 157.52 24.8281C158.228 24.5052 158.837 24.0208 159.348 23.375L161.535 25.75C161.181 26.2604 160.697 26.75 160.082 27.2188C159.478 27.6875 158.749 28.0729 157.895 28.375C157.04 28.6667 156.066 28.8125 154.973 28.8125ZM173.598 24.6875V17.1562C173.598 16.6146 173.509 16.151 173.332 15.7656C173.155 15.3698 172.879 15.0625 172.504 14.8438C172.139 14.625 171.665 14.5156 171.082 14.5156C170.582 14.5156 170.15 14.6042 169.785 14.7812C169.421 14.9479 169.139 15.1927 168.941 15.5156C168.743 15.8281 168.645 16.1979 168.645 16.625H164.145C164.145 15.9062 164.311 15.224 164.645 14.5781C164.978 13.9323 165.462 13.3646 166.098 12.875C166.733 12.375 167.488 11.9844 168.363 11.7031C169.249 11.4219 170.238 11.2812 171.332 11.2812C172.645 11.2812 173.811 11.5 174.832 11.9375C175.853 12.375 176.655 13.0312 177.238 13.9062C177.832 14.7812 178.129 15.875 178.129 17.1875V24.4219C178.129 25.349 178.186 26.1094 178.301 26.7031C178.415 27.2865 178.582 27.7969 178.801 28.2344V28.5H174.254C174.035 28.0417 173.868 27.4688 173.754 26.7812C173.65 26.0833 173.598 25.3854 173.598 24.6875ZM174.191 18.2031L174.223 20.75H171.707C171.113 20.75 170.598 20.8177 170.16 20.9531C169.723 21.0885 169.363 21.2812 169.082 21.5312C168.801 21.7708 168.592 22.0521 168.457 22.375C168.332 22.6979 168.27 23.0521 168.27 23.4375C168.27 23.8229 168.358 24.1719 168.535 24.4844C168.712 24.7865 168.967 25.026 169.301 25.2031C169.634 25.3698 170.025 25.4531 170.473 25.4531C171.15 25.4531 171.738 25.3177 172.238 25.0469C172.738 24.776 173.124 24.4427 173.395 24.0469C173.676 23.651 173.822 23.276 173.832 22.9219L175.02 24.8281C174.853 25.2552 174.624 25.6979 174.332 26.1562C174.051 26.6146 173.691 27.0469 173.254 27.4531C172.816 27.849 172.29 28.1771 171.676 28.4375C171.061 28.6875 170.332 28.8125 169.488 28.8125C168.415 28.8125 167.441 28.599 166.566 28.1719C165.702 27.7344 165.014 27.1354 164.504 26.375C164.004 25.6042 163.754 24.7292 163.754 23.75C163.754 22.8646 163.921 22.0781 164.254 21.3906C164.587 20.7031 165.077 20.125 165.723 19.6562C166.379 19.1771 167.197 18.8177 168.176 18.5781C169.155 18.3281 170.29 18.2031 171.582 18.2031H174.191ZM191.582 24.8125V4.5H196.113V28.5H192.035L191.582 24.8125ZM180.895 20.25V19.9219C180.895 18.6302 181.04 17.4583 181.332 16.4062C181.624 15.3438 182.051 14.4323 182.613 13.6719C183.176 12.9115 183.868 12.3229 184.691 11.9062C185.514 11.4896 186.452 11.2812 187.504 11.2812C188.493 11.2812 189.358 11.4896 190.098 11.9062C190.848 12.3229 191.483 12.9167 192.004 13.6875C192.535 14.4479 192.962 15.349 193.285 16.3906C193.608 17.4219 193.842 18.5521 193.988 19.7812V20.5C193.842 21.6771 193.608 22.7708 193.285 23.7812C192.962 24.7917 192.535 25.6771 192.004 26.4375C191.483 27.1875 190.848 27.7708 190.098 28.1875C189.348 28.6042 188.473 28.8125 187.473 28.8125C186.421 28.8125 185.483 28.599 184.66 28.1719C183.848 27.7448 183.16 27.1458 182.598 26.375C182.046 25.6042 181.624 24.6979 181.332 23.6562C181.04 22.6146 180.895 21.4792 180.895 20.25ZM185.395 19.9219V20.25C185.395 20.9479 185.447 21.599 185.551 22.2031C185.665 22.8073 185.848 23.3438 186.098 23.8125C186.358 24.2708 186.691 24.6302 187.098 24.8906C187.514 25.1406 188.02 25.2656 188.613 25.2656C189.384 25.2656 190.02 25.0938 190.52 24.75C191.02 24.3958 191.4 23.9115 191.66 23.2969C191.931 22.6823 192.087 21.974 192.129 21.1719V19.125C192.098 18.4688 192.004 17.8802 191.848 17.3594C191.702 16.8281 191.483 16.375 191.191 16C190.91 15.625 190.556 15.3333 190.129 15.125C189.712 14.9167 189.217 14.8125 188.645 14.8125C188.061 14.8125 187.561 14.9479 187.145 15.2188C186.728 15.4792 186.389 15.8385 186.129 16.2969C185.879 16.7552 185.691 17.2969 185.566 17.9219C185.452 18.5365 185.395 19.2031 185.395 19.9219ZM217.129 9.64062L210.941 28.5H205.957L214.41 5.75H217.582L217.129 9.64062ZM222.27 28.5L216.066 9.64062L215.566 5.75H218.77L227.27 28.5H222.27ZM221.988 20.0312V23.7031H209.973V20.0312H221.988ZM234.363 5.75V28.5H229.691V5.75H234.363Z" fill="#4C1D95"/>
</svg>
