<svg xmlns="http://www.w3.org/2000/svg" fill="none" viewBox="0 0 1400 1800" width="1400" height="1800"><defs><clipPath id="assetClipPath_xBWiIbAH"><path d="m0 0 h 607.847 v 403.713 h -607.847 v -403.713 z" id="path_3WHina8j" fill="#ffffff" /></clipPath><clipPath id="assetClipPath_psTuf4JC"><path d="m0 0 h 272.152 v 115.453 h -272.152 v -115.453 z" id="path_B1f-Yo4i" fill="#ffffff" /></clipPath><clipPath id="assetClipPath_Y1hCKAjd"><path d="m0 0 h 1096.493 v 1521.401 h -1096.493 v -1521.401 z" id="path_wc-_194w" fill="#ffffff" /></clipPath><clipPath id="assetClipPath_cvgF5zDU"><path d="m0 0 h 578.205 v 456.198 h -578.205 v -456.198 z" id="path_-6xJLiO0" fill="#ffffff" /></clipPath></defs><g transform="translate(106 317)" data-asset-index="0"><g clip-path="url(#assetClipPath_xBWiIbAH)" transform="scale(1.0002517080778552 1.000710901060902)" data-asset-index="0"><g id="tIuxXsNpE4uOGS-z4nu5n">
    <path d="M605.847,36.65c0-19.136-15.513-34.65-34.65-34.65H36.65C17.513,2,2,17.513,2,36.65v9.949h603.847v-9.949Z" fill="#FFC3FF" id="SBJF7tg7ZDDFJOlIc57O9" />
    <path d="M605.847,48.599H2C.895,48.599,0,47.703,0,46.599v-9.949C0,16.441,16.441,0,36.65,0h534.547c20.209,0,36.65,16.441,36.65,36.65v9.949c0,1.104-.896,2-2,2ZM4,44.599h599.847v-7.949c0-18.003-14.646-32.65-32.65-32.65H36.65C18.646,4,4,18.646,4,36.65v7.949Z" fill="#08008D" id="hBvxmZu2BH-0tn0VfCIBZ" />
  </g><g id="FnV9h54rHtqQdooDowmRM">
    <path d="M2,46.599v320.464c0,19.136,15.513,34.65,34.65,34.65h534.547c19.137,0,34.65-15.513,34.65-34.65V46.599H2Z" fill="#E96BFF" id="PpjpIlI8RSs7Pf0m7ohNi" />
    <path d="M571.197,403.713H36.65C16.441,403.713,0,387.272,0,367.063V46.599c0-1.104.896-2,2-2h603.847c1.104,0,2,.896,2,2v320.464c0,20.209-16.441,36.65-36.65,36.65ZM4,48.599v318.464c0,18.003,14.646,32.65,32.65,32.65h534.547c18.004,0,32.65-14.646,32.65-32.65V48.599H4Z" fill="#08008D" id="e2pIYGFEQWwmQDwVk_fJ2" />
  </g><g id="ME11lpEK6lGa3oQi-HX10">
    <path d="M527.752,362.989H57.501c-1.104,0-2-.896-2-2V109.917c0-1.104.896-2,2-2s2,.896,2,2v249.071h468.25c1.104,0,2,.896,2,2s-.896,2-2,2Z" fill="#08008D" id="o5KtyR5myCVM2WbMcGdwQ" />
    <polygon points="550.345 360.988 518.508 347.979 526.063 360.988 518.508 373.995 550.345 360.988" fill="#08008D" id="VB2NzS9Cm3dnSrNSBYnzi" />
    <polygon points="57.501 87.324 70.511 119.161 57.501 111.607 44.495 119.161 57.501 87.324" fill="#08008D" id="KP6kVIOn2MaRB72JzHpU" />
  </g><path d="M333.781,362.989c-15.577,0-30.095-12.579-40.88-35.418-10.56-22.362-16.375-52.05-16.375-83.594,0-63.418-23.891-115.013-53.256-115.013s-53.256,51.594-53.256,115.013c0,31.544-5.816,61.232-16.376,83.594-10.785,22.84-25.304,35.418-40.88,35.418s-30.095-12.579-40.88-35.418c-10.56-22.362-16.375-52.05-16.375-83.594,0-1.104.896-2,2-2s2,.896,2,2c0,63.418,23.891,115.013,53.256,115.013s53.256-51.594,53.256-115.013c0-31.544,5.815-61.232,16.375-83.595,10.786-22.839,25.304-35.418,40.88-35.418s30.095,12.579,40.88,35.418c10.56,22.362,16.375,52.05,16.375,83.595,0,63.418,23.891,115.013,53.256,115.013s53.256-51.594,53.256-115.013c0-31.544,5.815-61.232,16.375-83.595,10.786-22.839,25.304-35.418,40.88-35.418s30.095,12.579,40.88,35.418c10.56,22.362,16.375,52.05,16.375,83.595,0,1.104-.896,2-2,2s-2-.896-2-2c0-63.418-23.891-115.013-53.256-115.013s-53.256,51.594-53.256,115.013c0,31.544-5.816,61.232-16.376,83.594-10.785,22.84-25.304,35.418-40.88,35.418Z" fill="#08008D" id="lnUVcFutSqOEXKJ1MTeOx" /></g></g><g transform="translate(560 165)" data-asset-index="1"><g clip-path="url(#assetClipPath_psTuf4JC)" transform="scale(1.0104647402921898 1.0047378586957463)" data-asset-index="1"><g id="czvq3-xh82Ya8N18Vl5CK">
    <path d="M234.448,2H74.548c-19.719,0-35.704,15.986-35.704,35.704v40.044L2,113.453h232.448c19.719,0,35.704-15.986,35.704-35.704v-40.044c0-19.719-15.985-35.704-35.704-35.704Z" fill="#FFFFFF" id="O1jMmRjPRHx9rDOJ4hO-t" />
    <path d="M234.448,115.453H2c-.814,0-1.548-.494-1.854-1.249-.306-.755-.124-1.62.462-2.187l36.235-35.115v-39.197C36.844,16.914,53.758,0,74.548,0h159.899C255.238,0,272.152,16.914,272.152,37.705v40.044c0,20.791-16.914,37.705-37.705,37.705ZM6.937,111.453h227.51c18.585,0,33.705-15.12,33.705-33.705v-40.044c0-18.585-15.12-33.705-33.705-33.705H74.548c-18.585,0-33.705,15.12-33.705,33.705v40.044c0,.542-.219,1.06-.608,1.436L6.937,111.453Z" fill="#0B122D" id="FXyGelv2Ekso65s7Vbu5D" />
  </g><g id="BejDO4Xh8ioXYdauOL96s">
    <path d="M193.506,41.802h-118.545c-1.104,0-2-.896-2-2s.896-2,2-2h118.545c1.104,0,2,.896,2,2s-.896,2-2,2Z" fill="#0B122D" id="CIoAT7G7Gw_uklQGHjP_f" />
    <path d="M234.034,77.651H74.961c-1.104,0-2-.896-2-2s.896-2,2-2h159.073c1.104,0,2,.896,2,2s-.896,2-2,2Z" fill="#0B122D" id="d1jAGEeXAPOCYvj2roJiv" />
  </g></g></g><g transform="translate(254 214)" data-asset-index="2"><g clip-path="url(#assetClipPath_Y1hCKAjd)" transform="scale(1.0004623832527888 1.001051004961874)" data-asset-index="2"><g id="klw-qJsdi9scajy8-jme">
    <path d="M1030.116,714.352c-7.403,11.57-88.67-35.232-77.949-56.99,10.721-21.758,95.835,29.039,77.949,56.99Z" fill="#08008D" id="NIabtli9cUnqSEDIHL9a4" />
    <path d="M1025.319,718.166c-9.736,0-26.181-8.745-32.09-12.078-19.561-11.033-50.599-33.897-42.855-49.611,1.376-2.794,4.57-6.169,11.965-6.381,20.278-.596,56.667,22.047,68.233,42.479,4.868,8.6,5.293,16.502,1.229,22.854h0c-1.249,1.951-3.565,2.737-6.482,2.737ZM1030.116,714.351h.01-.01ZM963.074,654.086c-.21,0-.416.003-.621.009-4.339.124-7.196,1.521-8.492,4.15-5.285,10.726,17.3,30.86,41.233,44.359,19.208,10.834,31.646,13.159,33.237,10.669h0c3.26-5.095,2.809-11.396-1.341-18.727-11.55-20.404-46.612-40.46-64.017-40.46Z" fill="#08008D" id="iWkwmzTFWuRRvb-4Gw8Sj" />
  </g><g id="AsPX0C0e_TxSjkWMOi_Cl">
    <g id="CpzlfYdqs_bU5WaOFvpQV">
      <path d="M609.683,1222.681c-17.559,0-35.3-5.127-50.868-15.817-66.434-45.622-142.344-117.413-203.06-192.043-50.852-62.506-114.147-155.189-126.905-241.77-9.8-66.503,12.238-110.477,32.452-135.656,31.116-38.761,87.764-44.957,126.524-13.841,36.629,29.405,44.176,81.613,18.635,119.978,1.013,15.245,15.324,62.568,74.939,140.031,52.137,67.744,120.844,134.769,179.311,174.918,40.975,28.138,51.381,84.165,23.243,125.14-17.447,25.406-45.617,39.061-74.271,39.061Z" fill="#F9E5A0" id="nIX4kq05uck5UKpKNqhvx" />
      <path d="M609.683,1224.681c-18.615,0-36.596-5.591-52-16.169-66.584-45.726-142.651-117.662-203.479-192.43-51.01-62.701-114.509-155.711-127.333-242.74-9.905-67.216,12.408-111.71,32.871-137.2,15.383-19.163,37.309-31.188,61.738-33.86,24.426-2.675,48.435,4.328,67.598,19.712,18.036,14.479,29.882,35.037,33.356,57.888,3.418,22.483-1.526,45.246-13.927,64.18,1.521,17.681,18.775,65.901,74.478,138.281,52.018,67.59,120.552,134.451,178.858,174.49,41.818,28.717,52.477,86.102,23.76,127.92-17.17,25.002-45.551,39.929-75.92,39.929ZM331.571,605.773c-25.786,0-51.348,11.248-68.709,32.874-19.964,24.869-41.728,68.323-32.033,134.113,12.691,86.129,75.785,178.487,126.478,240.799,60.601,74.488,136.354,146.136,202.641,191.657,14.734,10.118,31.933,15.466,49.736,15.466,29.051,0,56.2-14.277,72.623-38.192,27.468-40.001,17.273-94.891-22.727-122.359-58.626-40.259-127.507-107.448-179.763-175.347-70.183-91.193-75.028-136.278-75.35-141.118-.029-.439.087-.875.331-1.241,25.398-38.149,17.564-88.581-18.222-117.31-16.213-13.015-35.673-19.34-55.004-19.34Z" fill="#08008D" id="A_3gLjhVegbd1kHwV3Oen" />
    </g>
    <g id="KiOCo6G4_jeAdyQeylCAG">
      <path d="M735.803,824.945c-47.316,0-99.17-14.168-156.316-29.781-39.171-10.702-79.674-21.769-114.807-26.944-31.053-4.573-45.636-2.679-50.909-1.479-21.574,24.356-51.84,36.998-82.355,37.001-24.164.002-48.481-7.92-68.792-24.225-47.375-38.031-54.949-107.266-16.918-154.641,27.115-33.777,63.127-57.171,107.036-69.531,31.538-8.879,66.252-11.816,106.123-8.979,60.483,4.304,123.237,21.449,178.604,36.576,24.414,6.67,47.475,12.971,66.889,17.201,15.654,3.411,24.282,4.432,28.402,4.729,53.996-14.559,111.26,13.98,131.427,67.392,21.459,56.835-7.219,120.306-64.054,141.765-20.473,7.729-41.894,10.917-64.329,10.917Z" fill="#FFE940" id="OAbQH0fdVOQpFSRwKd_J" />
      <path d="M735.803,826.945c-47.582,0-100.649-14.499-156.833-29.849-39.129-10.691-79.571-21.74-114.582-26.898-29.868-4.398-44.275-2.732-49.558-1.641-21.187,23.637-51.55,37.181-83.416,37.184h-.009c-25.717,0-49.934-8.529-70.035-24.665-23.329-18.728-37.969-45.42-41.223-75.158-3.253-29.739,5.269-58.965,23.997-82.294,27.381-34.109,63.736-57.729,108.054-70.205,31.767-8.943,66.705-11.902,106.807-9.048,60.679,4.318,123.532,21.49,178.987,36.642,24.417,6.671,47.438,12.96,66.789,17.177,15.417,3.359,23.931,4.364,27.787,4.663,26.616-7.088,54.834-4.094,79.496,8.444,24.93,12.675,44.105,34.076,53.992,60.261,10.567,27.988,9.603,58.416-2.715,85.678-12.318,27.263-34.515,48.097-62.503,58.664-19.687,7.433-40.96,11.046-65.036,11.046ZM430.413,763.299c8.273,0,19.512.726,34.559,2.942,35.25,5.193,75.809,16.274,115.034,26.991,55.937,15.283,108.752,29.713,155.798,29.713,23.584,0,44.396-3.529,63.623-10.788,26.988-10.19,48.393-30.28,60.271-56.569s12.808-55.63,2.618-82.618c-19.723-52.237-75.195-80.684-129.035-66.167-.216.059-.438.081-.664.063-4.633-.333-13.371-1.432-28.685-4.769-19.454-4.239-42.522-10.542-66.946-17.214-55.322-15.115-117.975-32.233-178.262-36.522-39.635-2.821-74.125.092-105.439,8.909-43.5,12.245-79.169,35.412-106.019,68.858-18.059,22.496-26.277,50.678-23.14,79.355,3.137,28.676,17.254,54.415,39.75,72.474,19.383,15.56,42.734,23.784,67.531,23.784h.009c30.94-.003,60.412-13.244,80.858-36.327.277-.313.646-.531,1.054-.624,3.122-.71,8.51-1.491,17.085-1.491Z" fill="#08008D" id="tx7IeBnT89sT2lYJnLrP" />
    </g>
    <g id="PT-AZw53sw_9lTdSMy1X1">
      <path d="M425.38,751.063c1.76,15.601,13.639,56.813,56.033,120.4,41.374,62.059,95.972,123.515,147.714,163.536,18.54,38.169-93.484,167.802-133.605,173.507-64.027-49.523-130.868-120.575-183.385-194.939-42.271-59.858-94.825-149.46-105.131-236.388-8.888-74.968,16.139-124.202,38.698-152.305" fill="#FFE940" id="ukPRJknItGpK9h62rVPEb" />
      <path d="M495.523,1210.507c-.44,0-.871-.146-1.224-.418-64.179-49.641-131.169-120.85-183.795-195.368-42.405-60.048-95.128-149.962-105.483-237.306-8.969-75.655,16.325-125.391,39.125-153.792.691-.862,1.95-1,2.812-.308.861.691.999,1.95.308,2.812-22.32,27.804-47.078,76.539-38.272,150.817,10.256,86.511,62.64,175.799,104.779,235.469,52.217,73.94,118.622,144.597,182.289,193.98,28.059-5.102,92.954-71.472,120.764-123.775,11.187-21.039,14.877-37.04,10.696-46.333-50.075-38.826-105.288-99.99-147.771-163.713-48.89-73.33-55.523-113.898-56.356-121.286-.124-1.098.666-2.088,1.763-2.211,1.105-.127,2.088.666,2.211,1.763.815,7.227,7.333,46.953,55.71,119.515,42.365,63.546,97.421,124.504,147.273,163.064.244.188.441.431.575.708,5.136,10.573,1.58,27.521-10.569,50.37-13.274,24.965-36.24,55.238-61.434,80.98-26.036,26.603-49.042,43.009-63.119,45.011-.094.013-.188.02-.282.02Z" fill="#08008D" id="GD9La150iTaiyullnpcO6" />
    </g>
    <g id="a-UHC7L9Ip2gm0CTygL-J">
      <path d="M633.253,1031.757c-14.415-11.15-29.041-23.901-43.563-37.817,4.832,46.713-95.059,163.261-141.62,181.502,15.104,13.656,30.262,26.403,45.272,38.013,42.015-5.974,159.326-141.726,139.911-181.697Z" fill="#FFFA53" id="nWT1bYnYZ0aRPNokl_Sc" />
      <path d="M493.341,1215.454c-.44,0-.871-.146-1.224-.418-14.858-11.493-30.13-24.315-45.39-38.111-.514-.464-.75-1.162-.626-1.843.125-.682.593-1.25,1.238-1.503,21.787-8.535,57.657-40.473,89.258-79.471,34.118-42.105,53.222-79.475,51.103-99.963-.086-.834.357-1.634,1.111-2.002.752-.369,1.656-.228,2.262.353,14.744,14.13,29.347,26.807,43.402,37.679.244.188.441.431.575.708,5.365,11.044,1.641,28.763-11.066,52.662-13.897,26.137-37.941,57.831-64.318,84.782-27.25,27.844-51.322,45.014-66.044,47.107-.094.013-.188.02-.282.02ZM451.738,1176.054c14.174,12.721,28.335,24.579,42.142,35.288,29.385-5.293,97.428-74.859,126.573-129.675,11.737-22.074,15.599-38.868,11.193-48.624-12.929-10.023-26.307-21.551-39.824-34.314-.846,22.181-19.893,58.131-52.117,97.897-30.633,37.805-65.423,69.133-87.968,79.428Z" fill="#08008D" id="PnY_6eMxeOvdcxhu4KRv" />
    </g>
    <g id="Krerx8RYOBz6LIwNlE1iC">
      <g id="M5Zj_-ymhyMB3IOQE0wi">
        <path d="M660.711,1058.481l93.274,57.235-174.864,284.969s-46.252-24.67-40.778-66.183c6.862-52.035,16.815-76.95,27.208-117.227,0,0-22.205-9.945-11.569-25.519,19.859-29.079,40.365-14.051,40.365-14.051,17.966-17.652,60.905-80.016,66.365-119.224Z" fill="#E96BFF" id="ZsMzpCjqeFVsST5Qt6Ga2" />
        <path d="M579.119,1402.685c-.318,0-.641-.076-.94-.235-.475-.253-47.41-25.812-41.819-68.21,5.051-38.306,11.874-62.33,19.098-87.766,2.521-8.877,5.124-18.041,7.751-28.136-3.404-1.817-11.434-6.81-13.578-14.4-1.241-4.394-.333-8.872,2.699-13.311,7.302-10.692,15.568-16.895,24.567-18.436,8.065-1.382,14.405,1.422,17.154,2.974,18.101-18.594,59.425-79.232,64.679-116.96.093-.669.517-1.245,1.127-1.533.609-.288,1.324-.249,1.899.104l93.273,57.234c.452.278.775.724.899,1.239s.037,1.06-.24,1.512l-174.864,284.97c-.376.612-1.032.954-1.706.954ZM581.195,1175.827c-1.175,0-2.41.096-3.694.32-7.864,1.373-15.222,7.004-21.869,16.736-2.364,3.463-3.068,6.723-2.152,9.967,2.183,7.727,12.781,12.551,12.888,12.599.89.398,1.363,1.381,1.119,2.325-2.777,10.763-5.524,20.437-8.182,29.793-7.182,25.291-13.966,49.18-18.979,87.196-4.651,35.267,30.083,58.38,38.11,63.215l172.799-281.604-89.02-54.624c-7.357,41.077-50,101.202-66.467,117.382-.699.687-1.794.767-2.584.187-.052-.038-4.925-3.491-11.969-3.491Z" fill="#08008D" id="qiLj74OPCtyl1-pOVmUqN" />
      </g>
      <path d="M549.3,1286.178c-1.107,0-1.796-.044-1.925-.053-1.102-.076-1.932-1.03-1.857-2.131.076-1.101,1.024-1.932,2.131-1.859.148.012,14.976.904,24.584-7.165,8.21-6.896,29.484-66.513,25.443-88.706-.68-3.733-2.023-5.979-3.995-6.672-1.042-.367-1.589-1.509-1.223-2.551.367-1.042,1.507-1.59,2.551-1.223,3.425,1.206,5.646,4.479,6.602,9.729,2.679,14.716-4.91,41.289-8.297,52.03-5.146,16.319-13.133,35.939-18.509,40.455-8.778,7.374-20.844,8.146-25.506,8.146Z" fill="#08008D" id="te31b1GljF3lnl3E6z6xB" />
      <g id="X5Yrd8ZA5v05GeF60KfAk">
        <path d="M601.922,1414.677l174.864-284.969-43.114-26.456c-32.16,52.411-28.705,92.347-60.6,144.326-28.778,46.898-93.951,153.107-93.951,153.107l22.801,13.991Z" fill="#FFFA53" id="MduzsY6dxFz9ylTOY5sky" />
        <path d="M601.92,1416.677c-.356,0-.718-.095-1.044-.295l-22.801-13.991c-.452-.278-.775-.724-.899-1.239s-.037-1.06.24-1.512l93.951-153.107c15.783-25.722,22.986-48.946,29.951-71.405,7.082-22.835,14.405-46.448,30.65-72.922.277-.452.723-.775,1.239-.899.514-.123,1.06-.036,1.512.24l43.114,26.456c.941.578,1.236,1.81.659,2.751l-174.864,284.97c-.377.615-1.034.954-1.707.954ZM581.871,1400.027l19.392,11.898,172.772-281.561-39.698-24.359c-15.262,25.361-22.345,48.201-29.2,70.306-7.039,22.695-14.316,46.163-30.362,72.312l-92.905,151.403Z" fill="#08008D" id="kghYwH6xv43cwfsWUVmCI" />
      </g>
      <g id="wyYNujO42BCLVVmj5Q0rO">
        <path d="M596.859,1233.032c-1.361,2.217-4.067,3.368-6.702,2.644-7.975-2.188-26.223-2.084-32.426,8.026-.028.047-.054.092-.087.144-1.721,2.804-5.383,3.702-8.208,2.002-2.839-1.709-3.755-5.395-2.046-8.235.038-.062.075-.125.114-.187,4.384-7.144,12.157-11.966,22.498-13.953,7.631-1.466,16.57-1.223,23.331.633,3.196.877,5.076,4.179,4.198,7.373-.154.561-.382,1.082-.672,1.554Z" fill="#08008D" id="UpYEUppV-ieLiYtSTQ2zh" />
        <path d="M552.514,1248.702c-1.404,0-2.825-.368-4.109-1.141-3.779-2.275-5.003-7.201-2.728-10.98l.119-.197c4.688-7.639,12.927-12.781,23.829-14.876,7.91-1.52,17.198-1.264,24.238.668,4.255,1.169,6.766,5.58,5.598,9.832-.201.732-.502,1.43-.896,2.07h0c-1.85,3.015-5.524,4.462-8.937,3.527-7.927-2.176-24.797-1.649-30.192,7.143l-.101.166c-1.494,2.436-4.127,3.787-6.821,3.788ZM580.406,1224.517c-3.395,0-6.829.304-10.027.918-9.769,1.878-17.09,6.385-21.171,13.035l-.111.185c-1.131,1.879-.519,4.342,1.371,5.479,1.875,1.131,4.33.53,5.472-1.334l.062-.102c6.863-11.183,25.974-11.34,34.686-8.95,1.708.47,3.544-.256,4.467-1.762h0c.196-.319.347-.668.448-1.037.584-2.127-.672-4.332-2.799-4.916-3.661-1.005-7.995-1.516-12.396-1.516Z" fill="#08008D" id="OCDfEyECwdTp8rj0gcWVi" />
      </g>
      <g id="wygeGWdXtSZjA6qEolXN7">
        <path d="M590.243,1260.019c-1.361,2.217-4.067,3.368-6.702,2.644-7.975-2.188-26.222-2.084-32.425,8.025-.029.05-.058.097-.088.145-1.721,2.804-5.383,3.702-8.207,2.002-2.839-1.709-3.756-5.396-2.047-8.235.038-.062.076-.126.115-.189,4.384-7.144,12.157-11.966,22.497-13.953,7.631-1.466,16.57-1.223,23.331.633,3.196.877,5.076,4.179,4.198,7.373-.154.561-.382,1.082-.672,1.554Z" fill="#08008D" id="BFDB5cJSx1f8IB108zNuY" />
        <path d="M545.897,1275.688c-1.404,0-2.823-.367-4.107-1.14-1.83-1.102-3.123-2.851-3.638-4.925-.516-2.073-.192-4.225.91-6.055l.126-.208c4.681-7.629,12.919-12.771,23.821-14.866,7.913-1.519,17.201-1.264,24.239.668,2.06.565,3.777,1.899,4.835,3.757,1.057,1.857,1.328,4.015.762,6.074-.201.733-.502,1.43-.895,2.07,0,0,0,0,0,0-1.851,3.014-5.525,4.461-8.937,3.526-7.927-2.178-24.796-1.647-30.19,7.142l-.095.156c-1.499,2.444-4.135,3.799-6.83,3.799ZM573.792,1251.505c-3.395,0-6.83.304-10.029.918-9.769,1.878-17.088,6.385-21.169,13.035l-.068.112c-.588.977-.75,2.052-.492,3.089s.904,1.911,1.819,2.462c1.873,1.129,4.328.528,5.472-1.334l.069-.113c6.854-11.171,25.964-11.329,34.678-8.939,1.706.471,3.543-.254,4.468-1.761.196-.32.347-.67.448-1.039.283-1.029.147-2.107-.381-3.036-.529-.928-1.388-1.595-2.418-1.878-3.66-1.005-7.994-1.516-12.396-1.516ZM590.243,1260.019h.01-.01Z" fill="#08008D" id="hGkdsEVll-ktcvAP8WD3t" />
      </g>
    </g>
    <g id="YpnIK--Tl0KknSop243qe">
      <path d="M464.68,768.219c12.785,1.549,27.493,4.583,43.112,8.322,36.577-45.813,99.478-72.089,165.423-91.407-61.662.367-149.616,25.622-208.534,83.086Z" fill="#08008D" id="VvjSxnJxHDV4htzSlRGGV" />
      <path d="M507.792,778.541c-.155,0-.311-.018-.465-.055-17.812-4.263-31.439-6.895-42.887-8.282-.764-.092-1.407-.615-1.654-1.345-.247-.729-.053-1.535.498-2.072,27.264-26.59,63.208-48.514,103.949-63.401,35.202-12.863,72.836-20.056,105.971-20.253h.012c.992,0,1.835.728,1.979,1.71.145.987-.46,1.929-1.417,2.209-55.898,16.375-125.104,41.488-164.422,90.736-.385.481-.963.752-1.563.752ZM469.076,766.778c10.441,1.465,22.662,3.891,37.95,7.524,36.637-45.147,97.628-70.067,150.644-86.568-58.866,4.09-135.488,29.083-188.594,79.044Z" fill="#08008D" id="inz3wlcCBvQ-gHfZaA-Eg" />
    </g>
  </g><g id="Ojv_Nr57drrDjjq2RCYZ">
    <g id="FcthKH02D6IPtuEkn-mSk">
      <path d="M280.107,1449.644c-11.169.144-22.548-1.801-33.603-6.078-46.357-17.933-69.4-70.051-51.467-116.409,36.247-93.7,71.97-177.044,106.176-247.716,50.371-104.07,97.371-181.553,143.684-236.874,46.919-56.044,105.7-98.833,179.705-130.814,59.209-25.587,115.846-38.905,161.357-49.605,14.551-3.421,32.855-7.725,45.354-11.387,17.634-24.861,47.46-40.154,80.086-37.746,49.571,3.656,86.792,46.806,83.135,96.377-1.985,26.923-15.588,76.281-84.377,104.347-23.808,9.715-51.238,16.163-82.999,23.632-79.413,18.672-178.244,41.91-244.241,120.743-80.081,95.656-163.84,288.801-220.004,433.987-13.657,35.303-47.142,57.086-82.807,57.545Z" fill="#F9E5A0" id="n7bFv9pB4jxLDj-r1tJBo" />
      <path d="M278.946,1451.652c-11.338,0-22.489-2.092-33.164-6.222-22.918-8.866-41.013-26.126-50.95-48.602s-10.526-47.476-1.66-70.395c36.266-93.748,72.01-177.143,106.241-247.865,50.444-104.221,97.53-181.838,143.951-237.288,47.123-56.288,106.147-99.258,180.445-131.366,59.378-25.66,116.109-38.999,161.693-49.716,14.355-3.375,32.16-7.561,44.587-11.166,18.867-26.191,49.272-40.386,81.458-38.015,24.507,1.808,46.844,13.051,62.896,31.659s23.896,42.353,22.087,66.86c-2.02,27.385-15.828,77.578-85.616,106.051-23.946,9.771-51.437,16.235-83.268,23.72-79.153,18.611-177.625,41.764-243.194,120.087-79.905,95.445-163.563,288.38-219.673,433.425-13.635,35.247-46.86,58.337-84.646,58.824h0c-.396.005-.792.008-1.187.008ZM280.107,1449.644h.01-.01ZM904.596,614.762c-28.511,0-54.929,13.579-71.651,37.155-.26.367-.637.635-1.069.762-12.555,3.679-30.799,7.968-45.459,11.414-45.43,10.682-101.969,23.975-161.021,49.494-73.712,31.855-132.251,74.464-178.964,130.262-46.207,55.194-93.119,132.542-143.417,236.462-34.184,70.626-69.885,153.919-106.111,247.566-8.48,21.923-7.917,45.836,1.588,67.334,9.505,21.498,26.812,38.008,48.735,46.488,10.567,4.09,21.643,6.082,32.855,5.944h0c36.143-.466,67.925-22.553,80.967-56.268,56.219-145.326,140.08-338.685,220.336-434.549,66.424-79.344,165.615-102.667,245.317-121.406,31.696-7.453,59.045-13.884,82.701-23.537,67.791-27.658,81.187-76.18,83.138-102.642,1.729-23.442-5.774-46.154-21.127-63.953-15.354-17.799-36.719-28.554-60.161-30.282-2.229-.165-4.45-.246-6.657-.246Z" fill="#08008D" id="i414E8WV1b7ga3LV87kVI" />
    </g>
    <g id="FQLzTYBPJryKh_DvONnHn">
      <g id="p4jMkd1s1acRxgvwVFRFu">
        <path d="M362.914,1392.099l-38.877,102.296L11.504,1375.617s15.631-50.035,57.438-52.382c52.403-2.942,78.735,2.201,120.243,4.916,0,0,2.572-26.124,20.394-19.955,35.144,12.165,23.843,40.884,23.843,40.884,20.687,14.367,89.953,44.95,129.492,43.019Z" fill="#E96BFF" id="ReJ-DHHLJ-OMZxXP6C0yA" />
        <path d="M324.037,1496.394c-.241,0-.481-.043-.71-.131L10.793,1377.486c-.989-.375-1.514-1.456-1.199-2.466.161-.514,16.539-51.386,59.235-53.782,38.577-2.167,63.451.066,89.786,2.431,9.121.818,18.533,1.664,28.846,2.363.708-4.256,3.064-14.363,9.87-18.723,3.678-2.356,8.019-2.693,12.902-1.003,12.038,4.167,20.172,10.69,24.176,19.389,4.421,9.606,2.449,18.971,1.386,22.578,21.567,14.308,88.93,43.719,127.021,41.827.668-.018,1.319.276,1.716.822.396.546.491,1.256.251,1.887l-38.876,102.296c-.188.495-.566.896-1.05,1.113-.26.117-.54.176-.819.176ZM14.036,1374.44l308.842,117.374,37.104-97.631c-.279.003-.564.005-.845.005-41.782,0-108.021-30.386-126.855-43.466-.762-.529-1.06-1.512-.72-2.375.039-.101,4.018-10.597-.807-21.025-3.539-7.647-10.883-13.447-21.83-17.236-3.715-1.285-6.799-1.093-9.429.588-6.919,4.424-8.307,17.543-8.32,17.675-.108,1.072-1.046,1.869-2.121,1.799-11.092-.726-21.109-1.625-30.796-2.494-26.186-2.351-50.918-4.572-89.204-2.421-35.516,1.993-51.762,40.422-55.018,49.208Z" fill="#08008D" id="g4z72UFMDSUZoyMddv96z" />
      </g>
      <path d="M201.799,1360.97c-10.756,0-21.412-1.049-27.396-1.76-16.991-2.02-37.755-6.216-43.192-10.657-10.987-8.974-12.978-24.777-13.057-25.446-.13-1.096.652-2.089,1.748-2.22,1.098-.134,2.092.651,2.224,1.747.018.147,1.898,14.884,11.615,22.821,8.303,6.783,70.837,16.591,91.891,8.49,3.542-1.362,5.498-3.101,5.812-5.167.167-1.091,1.186-1.844,2.278-1.676,1.092.167,1.842,1.187,1.676,2.279-.547,3.589-3.35,6.381-8.33,8.297-6.492,2.498-15.919,3.291-25.27,3.291Z" fill="#08008D" id="vi0N7WzJiDHnHXod69Iwj" />
      <g id="vIGZBi12jxRxiD2Nu95Q">
        <path d="M2,1400.624l312.533,118.777,17.97-47.285c-57.48-21.845-96.076-11.018-153.083-32.683-51.435-19.548-167.917-63.816-167.917-63.816l-9.504,25.007Z" fill="#FFFA53" id="fsbcZHozVElE-K5f3xgr" />
        <path d="M314.533,1521.401c-.241,0-.481-.043-.71-.131L1.29,1402.493c-1.033-.392-1.551-1.547-1.159-2.58l9.503-25.007c.188-.495.566-.896,1.05-1.113.483-.218,1.035-.235,1.53-.045l167.917,63.816c28.21,10.721,52.369,13.476,75.732,16.139,23.754,2.709,48.317,5.51,77.351,16.544,1.033.392,1.551,1.547,1.159,2.58l-17.97,47.285c-.188.495-.566.896-1.05,1.113-.26.117-.54.176-.819.176ZM4.58,1399.465l308.794,117.356,16.546-43.538c-27.758-10.275-51.517-12.983-74.511-15.605-23.608-2.691-48.021-5.476-76.7-16.375l-166.047-63.105-8.083,21.268Z" fill="#08008D" id="OOG8i1de5Uz-F21rbIk-T" />
      </g>
      <g id="JHOgssii89BCly_VDThiW">
        <path d="M179.529,1361.846c-2.432-.924-4.066-3.369-3.845-6.093.666-8.242-2.832-26.153-13.92-30.366-.051-.019-.1-.036-.157-.059-3.075-1.169-4.639-4.6-3.494-7.692,1.151-3.107,4.602-4.694,7.711-3.543.068.026.136.051.205.077,7.835,2.978,14.02,9.718,17.896,19.508,2.86,7.225,4.286,16.053,3.72,23.041-.267,3.303-3.161,5.765-6.463,5.497-.58-.047-1.134-.174-1.652-.371Z" fill="#08008D" id="GjWCLARMKisuPNc3kMiTy" />
        <path d="M181.678,1364.237c-.219,0-.438-.009-.659-.027-.758-.062-1.499-.228-2.2-.494h0c-3.306-1.256-5.415-4.597-5.129-8.125.662-8.193-2.995-24.67-12.637-28.335l-.179-.066c-4.067-1.546-6.157-6.146-4.638-10.248.742-2.004,2.22-3.599,4.162-4.491,1.943-.892,4.116-.974,6.119-.231l.137.051c8.457,3.213,15.042,10.351,19.129,20.673,2.966,7.491,4.443,16.664,3.854,23.938-.172,2.13-1.164,4.065-2.792,5.45-1.459,1.241-3.274,1.906-5.168,1.906ZM163.737,1315.718c-.568,0-1.136.122-1.669.367-.971.446-1.709,1.243-2.081,2.245-.759,2.051.286,4.352,2.329,5.129l.12.044c12.255,4.657,15.968,23.405,15.241,32.411-.144,1.765.91,3.435,2.562,4.062,0,0,.001,0,.002,0,.348.133.718.216,1.1.247,1.063.084,2.099-.248,2.913-.94.814-.691,1.31-1.66,1.396-2.725.542-6.702-.832-15.187-3.586-22.144-3.662-9.25-9.453-15.604-16.747-18.376l-.195-.072c-.45-.166-.917-.249-1.385-.249Z" fill="#08008D" id="qKQ7-M8hCGGXBWbED_O73" />
      </g>
      <g id="RIhu0EcGPJzfqpKzw9Iou">
        <path d="M151.782,1360.368c-2.432-.924-4.066-3.369-3.845-6.093.666-8.242-2.832-26.151-13.919-30.365-.054-.02-.106-.039-.159-.059-3.075-1.169-4.639-4.6-3.495-7.691,1.151-3.107,4.603-4.695,7.71-3.544.068.026.138.051.207.077,7.835,2.978,14.019,9.718,17.896,19.507,2.86,7.225,4.286,16.053,3.72,23.041-.267,3.303-3.161,5.765-6.463,5.497-.58-.047-1.134-.174-1.652-.371Z" fill="#08008D" id="nb7zghJ4FkrPRy1AjQ32_" />
        <path d="M153.932,1362.759c-.219,0-.438-.009-.659-.027-.757-.061-1.498-.227-2.199-.493,0,0-.001,0-.002,0-3.306-1.257-5.414-4.598-5.128-8.124.662-8.193-2.994-24.669-12.635-28.334l-.113-.041c-4.134-1.571-6.225-6.172-4.706-10.272.742-2.004,2.22-3.6,4.162-4.492,1.942-.893,4.115-.976,6.119-.232l.231.086c8.362,3.178,14.947,10.315,19.035,20.637,2.966,7.491,4.443,16.664,3.854,23.938-.172,2.13-1.164,4.065-2.792,5.45-1.459,1.241-3.274,1.906-5.168,1.906ZM152.492,1358.498c.35.133.721.216,1.103.247,1.062.082,2.099-.248,2.913-.939.814-.692,1.31-1.66,1.396-2.726.542-6.702-.832-15.187-3.586-22.144-3.663-9.249-9.454-15.603-16.747-18.374l-.135-.05c-1.059-.395-2.145-.351-3.115.096-.971.446-1.71,1.244-2.082,2.246-.759,2.051.286,4.351,2.33,5.128l.127.046c12.25,4.655,15.961,23.403,15.234,32.408-.144,1.764.91,3.434,2.562,4.062Z" fill="#08008D" id="bluNb4GT4JcG1H-TyGOba" />
      </g>
    </g>
    <g id="Y3Dx3HyVf9YVnQVjQWmd">
      <g id="vxwnUOatL6b3CpLO9hxcJ">
        <path d="M198.366,1284.72c9.854-23.076,22.573-51.212,33.515-77.795,52.875-128.453,122.241-297.5,196.134-383.49,49.027-57.052,112.564-102.106,188.848-133.913,61.17-25.505,118.937-38.304,165.353-48.589,12.031-2.666,26.826-5.943,38.199-8.865,22.269-26.6,56.731-42.267,93.918-39.047,60.523,5.249,105.333,58.569,100.084,119.093-2.91,33.551-18.675,64.768-44.391,87.902-14.66,13.188-32.303,23.733-53.933,32.235-25.392,9.979-53.611,16.232-86.287,23.473-76.749,17.006-172.267,38.17-234.935,111.095-50.799,59.115-117.625,216.016-161.873,323.512-11.225,27.268-21.826,53.023-32.246,77.424-29.33,21.889-192.404-27.125-202.387-83.035Z" fill="#FFE940" id="r6yDlJcueEVecLlrc6em" />
        <path d="M376.299,1375.069c-25.662,0-62.934-9.014-94.446-21.472-23.687-9.364-79.431-34.787-85.455-68.526-.069-.384-.023-.778.129-1.137,3.676-8.61,7.709-17.828,11.98-27.587,7.212-16.484,14.67-33.53,21.525-50.185l.891-2.163c51.438-124.968,121.887-296.116,195.576-381.869,49.232-57.291,113.021-102.528,189.595-134.456,61.326-25.57,119.183-38.39,165.672-48.691l.546,1.927-.433-1.953c11.692-2.591,26.19-5.803,37.418-8.669,23.483-27.724,59.024-42.394,95.208-39.261,29.805,2.585,56.818,16.622,76.065,39.524s28.423,51.93,25.839,81.734c-2.954,34.057-18.952,65.741-45.046,89.216-14.841,13.352-32.681,24.019-54.539,32.61-25.538,10.037-53.828,16.306-86.586,23.564-76.461,16.942-171.617,38.026-233.851,110.446-48.652,56.617-111.886,202.34-161.54,322.97l-.067.163c-11.203,27.215-21.785,52.921-32.189,77.284-.139.325-.36.606-.643.817-5.313,3.966-14.361,5.712-25.651,5.712ZM200.444,1284.946c4.368,21.882,35.268,46.109,82.879,64.932,49.28,19.483,100.9,26.832,115.811,16.577,10.324-24.188,20.83-49.71,31.95-76.722l.067-.164c49.768-120.906,113.181-267.004,162.205-324.054,63.102-73.429,158.979-94.673,236.017-111.743,32.595-7.223,60.744-13.459,85.99-23.382,21.404-8.413,38.847-18.835,53.327-31.861,25.337-22.794,40.869-53.545,43.735-86.588,5.146-59.329-38.936-111.782-98.264-116.927-35.101-3.045-69.57,11.293-92.211,38.338-.269.321-.631.549-1.036.653-11.375,2.922-26.231,6.214-38.168,8.859l-.113.025c-46.334,10.267-104,23.045-164.999,48.479-75.992,31.685-139.278,76.558-188.101,133.371-73.269,85.264-143.575,256.068-194.911,380.784l-.891,2.164c-6.872,16.694-14.339,33.76-21.56,50.264-4.174,9.54-8.122,18.562-11.727,26.996Z" fill="#08008D" id="Z2C0fXNfhkv4MluYjjth" />
      </g>
      <g id="ZBgsiBQnGc2ArnlrIPnG">
        <path d="M217.102,1228.15c-8.436,19.58-17.05,38.921-24.219,55.709,10.47,58.638,181.501,110.044,212.262,87.087,7.67-17.962,15.44-36.64,23.458-56.058-45.158,12.105-188.501-33.061-211.501-86.738Z" fill="#FFFA53" id="NhTqkiHd12gb2BQp8Vdh" />
        <path d="M379.496,1378.526c-26.892,0-65.974-9.455-99.02-22.52-24.827-9.815-83.252-36.459-89.562-71.796-.068-.384-.023-.778.129-1.137,3.853-9.021,8.079-18.681,12.553-28.907,3.817-8.725,7.764-17.746,11.668-26.808.316-.733,1.039-1.209,1.837-1.209h.002c.799,0,1.521.478,1.836,1.212,9.942,23.203,45.942,48.23,96.3,66.949,44.995,16.726,91.4,24.393,112.845,18.645.737-.196,1.519.041,2.021.612.502.571.636,1.379.346,2.083-6.958,16.85-15.187,36.69-23.467,56.08-.139.325-.36.606-.643.817-5.56,4.15-15.027,5.977-26.845,5.978ZM194.962,1284.086c4.564,22.99,37,48.439,86.985,68.201,51.737,20.453,105.941,28.151,121.578,17.36,7.624-17.86,15.197-36.084,21.763-51.972-23.669,4.343-67.509-3.284-111.441-19.614-23.705-8.812-79.107-32.327-96.644-65.099-3.337,7.714-6.687,15.369-9.941,22.807-4.378,10.008-8.519,19.471-12.3,28.316Z" fill="#08008D" id="fdKv1pK5vYWenPBR3egEk" />
      </g>
      <path d="M385.288,1316.85c-.255,0-.515-.05-.766-.153-1.021-.424-1.504-1.595-1.081-2.614.962-2.318,97.081-233.217,171.378-356.441,47.004-77.958,162.63-105.431,255.538-127.505,43.96-10.445,81.925-19.466,106.653-32.003,38.137-19.336,75.711-70.285,70.231-126.619-.107-1.1.698-2.078,1.797-2.185,1.097-.104,2.078.698,2.185,1.797,3.316,34.084-8.874,62.289-19.683,79.947-13.48,22.021-32.696,40.475-52.721,50.627-25.15,12.752-63.33,21.823-107.537,32.327-92.18,21.902-206.9,49.16-253.037,125.679-74.145,122.971-170.148,353.594-171.109,355.909-.319.77-1.064,1.234-1.848,1.234Z" fill="#08008D" id="WJyiifOHtV7hXbxgpBJg" />
    </g>
  </g><g id="wY3-rMxZl7lNcxJC8lq73">
    <g id="QeaIpyw0oyAYqwVrNR_tg">
      <path d="M448.863,479.377c-26.257-5.067-59.594,110.767-21.936,118.082s58.791-110.971,21.936-118.082Z" fill="#08008D" id="y2NifDFnG1p_lvzDXrx59" />
      <path d="M430.234,599.781c-1.225,0-2.455-.119-3.689-.358-19.544-3.797-21.069-33.241-15.979-59.531,6.278-32.425,22.853-65.519,38.676-62.479h0c7.797,1.504,13.759,7.63,17.242,17.714,9.106,26.364.221,74.141-17.606,94.67-5.717,6.583-12.099,9.983-18.644,9.983ZM447.221,481.221c-11.263,0-26.528,27.411-32.728,59.431-4.723,24.393-3.836,51.609,12.814,54.844,6.429,1.248,12.67-1.55,18.55-8.321,16.754-19.294,25.413-65.937,16.845-90.742-3.032-8.779-7.816-13.857-14.219-15.092-.415-.08-.836-.12-1.263-.12Z" fill="#08008D" id="yo8j3afD8Kb2n0ig1ta" />
    </g>
    <g id="l1Cd_iVnZFb_mXPBbPDgH">
      <path d="M602.753,608.648c-53.986,1.199-161.545-37.489-211.306-32.769-65.86,7.556-80.368-86.209-15.205-98.837,57.975-9.073,156.448,20.911,211.505,30.274,12.024,1.812,17.927,1.382,20.216,1.024,33.856-35.052,41.832-135.786,73.584-169.524,18.941-20.099,50.583-21.038,70.681-2.103,19.022,17.924,20.886,47.229,4.975,67.355-28.292,76.81-47.109,206.26-154.449,204.58Z" fill="#F9E5A0" id="G0GRHrWKb3CvwReJ2uUEX" />
      <path d="M600.288,610.675c-25.992,0-63.561-8.433-99.933-16.596-40.833-9.166-83.061-18.647-108.719-16.209-2.658.305-5.233.451-7.717.452-30.441.002-47.796-21.987-51.187-44-3.666-23.797,8.268-52.487,43.129-59.243,42.94-6.723,108.143,7.823,160.534,19.511,19.047,4.249,37.038,8.263,51.688,10.754,10.837,1.633,16.527,1.389,18.917,1.108,16.637-17.671,27.096-52.339,37.212-85.875,10.277-34.066,19.983-66.242,35.879-83.132,19.664-20.867,52.639-21.85,73.509-2.188,9.53,8.98,15.288,21.114,16.211,34.166.91,12.868-2.938,25.508-10.84,35.632-4.66,12.683-9.04,26.717-13.675,41.57-11.479,36.78-24.49,78.467-45.727,110.24-24.184,36.183-55.196,53.798-94.738,53.8-.69,0-1.375-.005-2.071-.016-.811.018-1.636.026-2.472.026ZM400.464,573.488c26.421,0,64.148,8.468,100.768,16.688,37.325,8.377,75.93,17.03,101.478,16.473.024,0,.05-.001.076,0,39.094.621,69.659-16.399,93.458-52.006,20.916-31.293,33.835-72.688,45.234-109.208,4.687-15.018,9.114-29.202,13.849-42.057.073-.198.177-.383.308-.549,15.283-19.333,13.185-47.735-4.777-64.66-19.264-18.149-49.703-17.243-67.854,2.019-15.25,16.204-25.271,49.421-34.961,81.545-10.35,34.31-21.053,69.789-38.64,87.997-.302.313-.699.519-1.129.586-2.571.402-8.696.806-20.823-1.022-14.788-2.514-32.827-6.539-51.925-10.799-52.061-11.614-116.852-26.068-158.973-19.476-32.194,6.24-43.249,32.729-39.866,54.694,3.385,21.977,21.9,43.923,54.534,40.179,2.893-.274,5.983-.404,9.245-.404Z" fill="#08008D" id="cqbEDrtX4KzSYuVZSE7eV" />
    </g>
    <g id="V3daoclOxcdpvSAes2PT_">
      <path d="M592.234,620.947c-42.567-.109-123.066-16.088-165.307-23.488,37.039-2.722,49.886-97.568,21.936-118.082,41.507,4.221,119.933,24.143,152.911,20.941,15.351-16.512,30.314-65.511,37.877-91.087,10.456-34.627,18.01-59.644,34.619-77.272,53.082-53.593,135.358,16.384,91.591,77.26-29.554,87.422-52.785,215.631-173.627,211.729Z" fill="#FFFA53" id="MmRVvaCJi1gFl_-mq0fxo" />
      <path d="M597.603,623.034c-1.788,0-3.584-.029-5.403-.087-36.161-.099-98.229-11.346-143.553-19.559-8.083-1.465-15.532-2.815-22.066-3.959-.994-.174-1.703-1.062-1.652-2.07.05-1.008.844-1.82,1.851-1.895,12.876-.946,23.962-14.361,30.413-36.805,8.103-28.189,6.214-66.126-9.514-77.67-.727-.534-1.007-1.488-.683-2.331.324-.842,1.178-1.365,2.069-1.271,15.713,1.598,36.433,5.387,58.37,9.399,35.866,6.559,72.935,13.337,93.383,11.61,15.558-17.505,31.045-69.882,36.915-89.732,10.539-34.902,18.15-60.107,35.082-78.077,12.759-12.883,28.062-19.692,44.288-19.727h.123c14.438,0,28.786,5.412,40.416,15.247,21.044,17.797,33.117,51.653,10.019,84.034-3.523,10.437-6.909,21.297-10.492,32.788-12.783,40.998-27.271,87.466-51.675,122.388-27.112,38.797-62.449,57.717-107.891,57.718ZM435.977,597.034c4.211.755,8.69,1.567,13.383,2.417,45.188,8.188,107.076,19.403,142.878,19.495.02,0,.04,0,.06,0,46.611,1.502,82.567-16.787,109.916-55.922,24.048-34.414,38.438-80.567,51.135-121.287,3.623-11.618,7.044-22.592,10.617-33.161.063-.188.155-.366.271-.527,21.85-30.391,10.559-62.198-9.179-78.89-20.371-17.226-52.811-22.606-79.367,4.205-16.251,17.249-23.748,42.075-34.124,76.437-9.427,31.881-23.658,76.096-38.329,91.877-.333.358-.785.582-1.271.629-20.835,2.021-58.667-4.896-95.252-11.587-19.196-3.511-37.459-6.851-52.158-8.683,13.365,15.958,14.135,51.094,6.479,77.726-5.482,19.071-14.357,32.104-25.06,37.271Z" fill="#08008D" id="ta0HKJ50prcdmZvziaWx" />
    </g>
    <path d="M460.414,605.484c-1.038,0-1.916-.802-1.993-1.854-.081-1.102.747-2.06,1.848-2.141,12.809-.941,23.87-14.401,30.345-36.928,8.222-28.604,6.4-67.028-9.417-78.637-.89-.654-1.083-1.905-.429-2.796.653-.891,1.905-1.082,2.796-.429,17.721,13.007,19.452,53.193,10.894,82.967-6.965,24.23-19.319,38.741-33.896,39.812-.05.003-.1.005-.148.005Z" fill="#08008D" id="tVvyhqRlyiy3XZTn12y5-" />
    <g id="m5hJjh1B4gl3X8xBXmXDL">
      <path d="M420.828,476.076c-20.746-3.846-40.532-18.917-51.552-25.52-13.638-8.172-20.835,9.003-11.105,24.481,6.319,10.052,21.797,15.031,21.797,15.031,0,0-3.161,27.693,27.034,37.128" fill="#F9E5A0" id="gDfaMkfFzKRCatKd0ojPw" />
      <path d="M407.002,529.197c-.198,0-.398-.029-.597-.091-27.113-8.473-28.623-31.358-28.507-37.648-4.137-1.547-15.893-6.562-21.42-15.356-6.022-9.58-6.407-21.05-.896-26.68,3.687-3.768,9.053-3.979,14.722-.581,2.132,1.277,4.512,2.818,7.267,4.602,11.488,7.438,27.222,17.626,43.622,20.667,1.086.201,1.803,1.245,1.602,2.331-.201,1.086-1.243,1.803-2.331,1.602-17.179-3.185-33.297-13.621-45.066-21.242-2.725-1.764-5.077-3.287-7.149-4.528-4.008-2.403-7.491-2.42-9.808-.053-3.667,3.746-4.137,12.907,1.424,21.753,5.848,9.304,20.569,14.145,20.717,14.192.906.292,1.481,1.184,1.374,2.13-.117,1.062-2.552,26.182,25.644,34.993,1.054.33,1.642,1.452,1.312,2.506-.268.855-1.057,1.404-1.909,1.404Z" fill="#08008D" id="GGNWQiVlgpbUtThmKKkWA" />
    </g>
  </g><g id="euTwvAGuHrKouit_jpii_">
    <path d="M1037.488,320.572c-49.479-35.074-118.88,72.376-85.321,125.055,33.559,52.679,96.315,27.943,105.018,4.123,8.703-23.82,16.491-103.525-19.697-129.177Z" fill="#08008D" id="GGA_UT4li0vueJDONugOy" />
    <path d="M1005.937,478.87c-15.57,0-38.39-5.38-55.456-32.168-21.182-33.25-2.538-88.215,27.442-116.749,20.688-19.688,42.82-23.702,60.722-11.012,38.02,26.951,28.606,109.09,20.419,131.496-5,13.686-24.68,25.738-45.778,28.035-2.188.238-4.662.399-7.35.399ZM1016.476,315.716c-11.529,0-23.876,5.791-35.795,17.135-28.853,27.46-46.966,80.088-26.826,111.702,18.85,29.589,45.056,31.46,58.999,29.942,21.618-2.354,38.562-14.779,42.454-25.432,9.552-26.142,14.73-102.966-18.976-126.859-6.126-4.343-12.84-6.488-19.855-6.488Z" fill="#08008D" id="mL6OVeO23ZmQD_H_YcFO" />
  </g><g id="C8v0sGDmBYwXIbLWUGHDf">
    <g id="R4sRRsfqS3YGwkw9avMeE">
      <path d="M979.849,441.332c-4.574-23.688-12.257-45.536-22.187-60.461-14.503-23.498-7.212-54.306,16.287-68.81,23.5-14.503,54.306-7.213,68.81,16.286,17.717,28.704,29.996,63.541,36.496,99.655" fill="#F9E5A0" id="zFq5LPDQDYgmEvKaMXnHA" />
      <path d="M979.847,443.333c-.939,0-1.777-.665-1.961-1.621-4.707-24.377-12.48-45.591-21.888-59.733-15.096-24.458-7.498-56.561,16.902-71.62,24.4-15.057,56.503-7.46,71.562,16.938,17.27,27.979,29.982,62.681,36.763,100.351.196,1.087-.527,2.127-1.614,2.323-1.087.197-2.127-.526-2.323-1.614-6.693-37.182-19.221-71.402-36.23-98.959-13.899-22.52-43.532-29.536-66.057-15.634-22.522,13.901-29.537,43.534-15.635,66.058,9.658,14.516,17.643,36.247,22.448,61.132.209,1.085-.5,2.134-1.584,2.343-.128.024-.256.037-.382.037Z" fill="#08008D" id="sRSK0qWFMmxLOGUTDrTv" />
    </g>
    <g id="sPbwDrmGEhk0dllu-npgo">
      <path d="M968.607,435.757c-4.417-18.898-11.084-36.074-19.454-49.634-17.404-28.198-8.655-65.167,19.543-82.572,28.201-17.403,65.168-8.653,82.572,19.543,15.998,24.752,28.012,56.596,35.262,90.774" fill="#FFFA53" id="voUgU7I3Ja8PGntArupg1" />
      <path d="M968.606,437.758c-.908,0-1.73-.623-1.946-1.545-4.41-18.867-11.052-35.824-19.208-49.039-17.956-29.092-8.896-67.368,20.195-85.324,29.092-17.955,67.369-8.895,85.324,20.194,15.695,24.282,27.985,55.903,35.517,91.41.229,1.081-.461,2.142-1.542,2.372-1.083.23-2.143-.461-2.372-1.542-7.432-35.035-19.53-66.192-34.985-90.104-16.818-27.247-52.625-35.722-79.842-18.926-27.214,16.798-35.689,52.604-18.891,79.82,8.38,13.578,15.192,30.946,19.699,50.229.251,1.076-.417,2.151-1.493,2.402-.153.036-.306.053-.457.053Z" fill="#08008D" id="eBs0MPtf7UW69sqOgu1ev" />
    </g>
  </g><g id="somtN_VHPw2KOHRGuyfOU">
    <path d="M664.157,333.398c28.859-45.349,160.302-52.911,160.302-52.911l77.118-4.779c13.883-1.376,103.725,7.147,129.929,18.283,20.236,8.6,30.069,35.288,30.069,35.288,0,0-46.13-4.654-83.088,41.19-18.095,22.447-23.036,50.191-12.08,78.952,15.713,41.247,74.767,48.579,84.321,28.107,0,0-6.146,84.349-12.538,115.028-7.53,36.147,7.784,27.391-1.68,52.645-5.367,14.32,17.66,40.299-6.394,69.15,0,0-23.437-43.031-100.516-46.403-61.108-2.674-179.699-10.464-195.622-30.936-15.923-20.472-24.236-174.435-23.781-209.01s-55.767-79.319-46.04-94.604Z" fill="#FFD223" id="KemBQJVMXiYrB_I0tC30f" />
    <path d="M1030.117,716.351c-.065,0-.131-.003-.196-.01-.659-.065-1.244-.452-1.561-1.034-.056-.102-5.939-10.631-20.979-21.424-13.899-9.974-38.691-22.224-77.869-23.938-66.675-2.917-180.943-10.916-197.113-31.706-16.25-20.892-24.667-175.009-24.203-210.265.231-17.527-14.828-37.995-28.115-56.054-12.825-17.432-22.955-31.201-17.613-39.597h0c29.075-45.688,156.466-53.523,161.875-53.834l77.109-4.778c13.786-1.369,103.648,6.885,130.835,18.438,20.792,8.836,30.75,35.315,31.163,36.438.239.647.127,1.371-.295,1.917s-1.094.835-1.782.765c-.45-.047-45.537-3.945-81.33,40.456-17.996,22.324-22.176,49.664-11.768,76.984,9.495,24.923,35.592,37.065,55.822,37.8,12.262.447,21.78-3.319,24.817-9.827.408-.875,1.383-1.33,2.316-1.09.934.243,1.561,1.119,1.491,2.081-.062.845-6.229,84.834-12.574,115.291-3.735,17.931-1.698,24.477-.06,29.736,1.702,5.467,3.172,10.189-1.705,23.203-1.652,4.407-.143,10.543,1.604,17.648,3.372,13.715,7.991,32.499-8.335,52.081-.382.458-.946.719-1.536.719ZM665.844,334.472c-3.872,6.084,6.49,20.168,17.46,35.079,13.659,18.566,29.141,39.609,28.893,58.478-.445,33.809,7.941,187.933,23.36,207.756,11.089,14.258,81.847,25.252,194.131,30.166,40.311,1.764,65.888,14.483,80.246,24.843,11.4,8.225,17.688,16.195,20.368,20.109,12.976-17.216,9.013-33.339,5.802-46.396-1.905-7.749-3.551-14.441-1.466-20.006,4.396-11.73,3.236-15.455,1.631-20.61-1.775-5.7-3.983-12.794-.037-31.74,5.253-25.214,10.406-87.737,12-108.185-5.284,4.542-13.843,6.921-24.279,6.543-21.506-.781-49.272-13.749-59.415-40.374-10.935-28.704-6.534-57.442,12.392-80.919,19.422-24.091,41.399-34.21,56.416-38.456,11.431-3.232,20.541-3.669,25.163-3.614-3.127-6.952-12.407-24.778-27.785-31.313-25.255-10.733-114.392-19.572-128.95-18.134l-77.191,4.785c-1.313.076-130.759,8.022-158.738,51.989h0Z" fill="#08008D" id="Cs07KYVxcoXS804Fgx3OF" />
  </g><g id="k2238Sh4RTUWOxC4VcbZ7">
    <path d="M901.576,275.708c10.509-1.042,25.392,0,25.392,0-22.466,40.64-72.18,91.943-102.695,107.607-19.16-20.278-35.447-69.139-28.413-95.476l28.598-7.352,77.118-4.779Z" fill="#FFFA53" id="JrzhVOsoso-yvX4u0ctIV" />
    <path d="M824.274,385.315c-.537,0-1.067-.216-1.454-.626-18.865-19.966-36.25-69.812-28.892-97.365.186-.698.734-1.241,1.434-1.421l28.598-7.352c.123-.032.248-.051.375-.059l77.082-4.777c10.552-1.04,25.078-.045,25.692-.001.681.048,1.291.44,1.618,1.04.326.6.323,1.325-.007,1.923-22.328,40.389-71.674,92.065-103.532,108.418-.29.148-.603.221-.913.221ZM797.51,289.48c-6.179,26.121,9.661,71.706,27.196,91.348,30.076-16.171,76.897-65.119,98.939-103.305-4.915-.238-14.544-.551-21.872.175-.024.002-.049.004-.074.006l-76.928,4.767-27.262,7.009ZM901.576,275.708h.01-.01Z" fill="#08008D" id="JZdpjIYmhMbEebOAw2n5c" />
  </g><path d="M817.103,430.002c-.459,0-.914-.158-1.281-.464-36.394-30.338-67.157-93.238-53.397-141.955.3-1.063,1.408-1.681,2.468-1.381,1.063.3,1.682,1.405,1.381,2.468-13.198,46.725,16.105,107.093,51.097,136.942,49.705-25.813,116.024-79.005,141.151-145.108.392-1.033,1.546-1.553,2.58-1.159,1.033.393,1.552,1.548,1.159,2.58-25.729,67.688-93.785,121.954-144.245,147.856-.289.148-.602.221-.913.221Z" fill="#08008D" id="TBPa8nzxS0iecgMH1nzD" /><g id="i1Uqd8IAB6yy7aRwYczvo">
    <path d="M902.611,281.406l16.686-.919s-77.04,44.049-85.797,68.408c-12.06,0-37.639-61.056-37.639-61.056l29.576-2.34,2.368,13.041-14.134-77.845,75.431-13.696,13.51,74.407Z" fill="#F9E5A0" id="xZM5xORldlBFGQfSjeOkv" />
    <path d="M833.5,350.895c-3.758,0-10.451-3.276-25.118-31.608-7.849-15.161-14.301-30.521-14.366-30.674-.248-.592-.197-1.267.137-1.814.334-.548.91-.902,1.55-.953l27.37-2.167-11.371-62.626c-.095-.522.021-1.06.324-1.496.302-.436.765-.734,1.287-.829l75.431-13.696c.522-.094,1.06.021,1.496.324.436.302.734.765.829,1.287l13.194,72.67,14.923-.822c.914-.056,1.765.541,2.028,1.431.263.889-.12,1.842-.925,2.303-.764.437-76.5,43.958-84.907,67.348-.286.794-1.039,1.323-1.882,1.323ZM798.784,289.614c9.968,23.299,25.763,53.809,33.486,57.007,9.405-20.637,59.916-52.312,78.91-63.684l-8.46.466c-.999.058-1.897-.647-2.078-1.64l-13.152-72.439-71.496,12.981,13.777,75.877c.197,1.087-.523,2.128-1.61,2.325-1.091.198-2.128-.524-2.325-1.61l-2.045-11.263-25.007,1.979Z" fill="#08008D" id="QH1Mykx6LFDxRLPIne0LE" />
  </g><g id="qKQBGjQ49hJUYYrHjP95Q">
    <path d="M897.403,250.991s8.424-2.174,12.838.273c4.414,2.448,21.491,18.823,21.491,23.623,0,6.384-19.196,60.921-28.494,68.739-4.444-7.7-20.623-28.994-25.057-23.7-2.898,3.46-8.22,10.656-10.994,11.348-4.137,1.033-24.195,6.478-33.688,17.621,0,0,8.175-19.118,20.185-25.297,6.299-3.241,7.828-13.956,12.084-24.596,4.256-10.639,32.408-36.61,31.633-48.011Z" fill="#FFFA53" id="o8I_6Bx7i_P_RSLfc65FC" />
    <path d="M833.499,350.895c-.362,0-.726-.098-1.053-.3-.84-.521-1.174-1.577-.785-2.486.345-.808,8.602-19.855,21.109-26.289,3.833-1.972,5.784-7.908,8.043-14.78.935-2.845,1.902-5.787,3.099-8.78,1.816-4.541,7.229-11.113,13.495-18.724,8.203-9.961,18.411-22.358,18-28.41-.065-.961.563-1.832,1.496-2.072.942-.243,9.341-2.293,14.308.461,3.81,2.112,22.521,19.091,22.521,25.372,0,6.084-19.002,61.689-29.207,70.271-.453.38-1.051.542-1.633.439-.583-.103-1.09-.458-1.386-.97-4.391-7.609-16.721-23.124-21.388-23.53-.286-.026-.335.033-.403.115-.514.613-1.104,1.345-1.744,2.138-4.317,5.349-7.583,9.188-10.299,9.867-3.858.964-23.565,6.313-32.65,16.977-.392.46-.954.703-1.523.703ZM899.348,252.611c-.883,7.646-10.007,18.726-18.853,29.468-5.803,7.047-11.284,13.703-12.869,17.667-1.15,2.876-2.097,5.757-3.013,8.543-2.534,7.708-4.722,14.366-10.013,17.088-5.893,3.031-10.887,9.531-14.312,15.047,9.848-6.551,22.076-10.005,26.415-11.09,1.625-.406,6.036-5.871,8.156-8.498.656-.813,1.263-1.565,1.79-2.194.938-1.12,2.295-1.665,3.816-1.531,6.854.597,18.478,16.131,23.107,23.26,9.401-11.811,26.16-60.265,26.16-65.484,0-3.443-15.765-19.27-20.461-21.874-2.518-1.396-7.177-.92-9.923-.402Z" fill="#08008D" id="lmEdjy0L2KaJ0vNYSYL1" />
  </g><g id="hjXRK3Rjdd4BZz8r5BqD">
    <path d="M820.872,262.097c-4.188-.838-26.118,21.308-28.244,25.478-4.435,8.698-11.962,58.564-10.008,66.382,8.656-16.753,20.551-27.642,27.198-22.337,6.646,5.305,12.578,18.077,23.682,17.275,0,0-22.121-30.677-21.842-37.099.279-6.422,13.778-26.298,13.778-26.298l-4.565-23.402Z" fill="#FFFA53" id="GBRlbmeQeMxWLjm6Qeos" />
    <path d="M782.62,355.957c-.077,0-.154-.004-.232-.014-.827-.096-1.507-.694-1.709-1.501-2.1-8.4,5.407-58.44,10.167-67.776,1.351-2.648,8.094-9.787,13.753-15.159,12.796-12.146,15.508-11.603,16.664-11.372.795.159,1.416.782,1.571,1.578l4.564,23.402c.102.523-.009,1.065-.309,1.506-5.096,7.504-13.249,20.998-13.435,25.261-.172,3.951,12.45,23.338,21.466,35.842.424.588.497,1.359.19,2.016-.307.657-.945,1.096-1.668,1.148-8.815.643-14.465-5.977-19.453-11.811-1.951-2.282-3.793-4.437-5.621-5.896-1.068-.852-2.339-1.105-3.888-.776-5.833,1.244-13.985,10.273-20.286,22.468-.346.67-1.035,1.082-1.776,1.082ZM819.319,264.582c-5.729,3.138-22.79,19.744-24.909,23.901-3.561,6.982-9.363,42.57-10.071,58.364,6.313-10.228,13.497-17.07,19.509-18.352,2.716-.58,5.212-.04,7.218,1.562,2.125,1.696,4.088,3.992,6.166,6.422,3.619,4.233,7.336,8.58,12.082,9.984-6.358-9.031-19.905-28.99-19.654-34.754.274-6.305,10.985-22.658,13.655-26.642l-3.996-20.485ZM820.641,264.073h0Z" fill="#08008D" id="lqiZlH8ffW7FSsn3-d-g9" />
  </g><g id="QGy0cmylotwU4rFcq_eK4">
    <path d="M825.436,285.498c11.347-5.103,19.696-13.94,26.751-24.39l-30.492,5.21,3.741,19.18Z" fill="#08008D" id="L6uKDhjTmGrNl24y9DKGE" />
    <path d="M825.436,287.498c-.316,0-.632-.075-.919-.224-.542-.281-.927-.793-1.043-1.393l-3.741-19.18c-.103-.528.011-1.076.317-1.52.306-.443.778-.744,1.309-.834l30.492-5.21c.791-.137,1.583.214,2.018.887.434.673.425,1.54-.023,2.204-8.392,12.43-17.159,20.404-27.589,25.095-.261.117-.541.176-.82.176ZM824.05,267.945l2.853,14.628c7.647-3.931,14.391-9.964,20.865-18.68l-23.718,4.052Z" fill="#08008D" id="ztQIv1ihPmjdXdUf8ImjJ" />
  </g><g id="wm0lw1v9JgjrpIUAf3-KW">
    <g id="dTkz-jZXIvTSk84DUObvq">
      <path d="M893.701,228.602c15.687-17.784,27.17-40.091,33.147-66.421,16.631-73.262-68.452-160.525-144.159-116.9-55.446,31.95-82.837,123.356-70.624,171.851,11.388,45.221,60.93,67.139,107.695,55.485,14.559-3.628,28.157-9.144,40.506-16.436" fill="#F9E5A0" id="nuM7N9NzDIHVj-V5hX2qO" />
      <path d="M794.563,277.74c-15.028,0-29.682-3.284-42.8-9.742-21.311-10.491-36.098-28.381-41.637-50.376-6.157-24.447-2.323-60.204,10.005-93.316,13.842-37.178,35.704-65.858,61.56-80.757,32.023-18.454,68.687-15.537,100.59,8,36.176,26.689,55.305,72.365,46.518,111.075-5.924,26.1-17.228,48.743-33.597,67.301-.73.829-1.994.909-2.823.177-.829-.731-.908-1.995-.177-2.823,15.921-18.051,26.922-40.102,32.697-65.541,8.446-37.208-10.055-81.195-44.992-106.971-30.564-22.549-65.634-25.376-96.218-7.753-25.05,14.435-46.291,42.38-59.808,78.687-12.06,32.393-15.844,67.241-9.875,90.944,10.666,42.352,56.906,66.085,105.272,54.033,14.36-3.579,27.809-9.035,39.972-16.218.951-.562,2.177-.247,2.739.705.562.951.246,2.178-.705,2.739-12.497,7.379-26.304,12.982-41.04,16.654-8.538,2.128-17.169,3.182-25.68,3.182Z" fill="#08008D" id="ORBWj5IPJDEaCgsS4kaZC" />
    </g>
    <g id="Rsa60BBK9QONq7lw_wxf">
      <path d="M893.296,195.234c-14.71-9.751-5.208-50.54-14.493-84.169-23.268-.468-36.25-18.022-57.927-38.86-18.963-18.229-62.264-17.11-83.242,20.026-8.392-35.885,21.236-72.948,61.284-90.231,0,0-4.094,19.13-.043,19.744,26.488-15.559,56.14-5.632,78.05-8.517,0,0-3.38,10.478-1.028,15.444,20.851-2.941,35.244.757,53.83-6.665,0,0,4.766,23.88-.87,44.515,4.916,7.459,5.129,9.809,7.429,18.559l7.849-9.548c11.214,22.415,10.726,49.295,4.784,66.621,0,0,13.633-8.744,13.605-5.527-.135,15.254-17.284,45.24-25.727,58.637-21.934,34.8-34.465,5.962-43.5-.027Z" fill="#08008D" id="CKt6EGkVhFyZcXuEp4sf" />
      <path d="M916.332,214.139c-7.735,0-13.663-6.485-18.475-11.748-2.069-2.263-4.023-4.4-5.667-5.49-9.247-6.129-9.787-22.507-10.412-41.471-.442-13.419-.942-28.57-4.526-42.418-19.358-.998-31.892-13.569-47.658-29.378-3.211-3.221-6.533-6.551-10.106-9.986-8.889-8.545-23.474-12.525-38.061-10.389-17.668,2.588-32.603,13.227-42.053,29.957-.405.717-1.209,1.113-2.025.996-.815-.117-1.476-.722-1.664-1.524-9.146-39.104,24.488-76.144,62.438-92.523.688-.296,1.482-.184,2.061.29.579.475.844,1.233.687,1.965-1.51,7.064-2.159,14.266-1.592,16.792,17.899-9.887,37.066-8.849,54.028-7.929,8.402.455,16.338.886,23.355-.039.682-.085,1.358.176,1.797.702s.578,1.241.368,1.894c-.771,2.399-2.35,8.785-1.557,12.628,7.146-.908,13.476-1.074,19.611-1.235,11.122-.292,20.727-.543,32.102-5.085.552-.22,1.172-.184,1.695.099.522.283.892.784,1.008,1.367.195.98,4.665,23.929-.67,44.559,3.875,5.995,4.731,8.839,6.219,14.6l5.353-6.511c.43-.524,1.098-.798,1.769-.717.673.076,1.262.487,1.565,1.092,10.507,21.002,10.841,45.797,6.398,63.095,8.383-4.821,10.14-3.849,10.863-3.451.848.468,1.349,1.351,1.34,2.362-.157,17.743-21.715,52.832-26.036,59.685-7.141,11.329-13.981,17.137-20.912,17.756-.419.038-.834.056-1.244.056ZM789.176,58.694c12.866,0,25.046,4.342,33.085,12.07,3.604,3.464,6.939,6.81,10.166,10.045,16.142,16.187,27.805,27.883,46.415,28.257.885.018,1.652.614,1.888,1.467,4.054,14.683,4.581,30.665,5.046,44.765.589,17.857,1.098,33.279,8.625,38.269h0c2.054,1.362,4.169,3.675,6.409,6.125,4.704,5.146,10.044,10.989,16.41,10.407,5.526-.494,11.543-5.845,17.884-15.905,11.194-17.759,24.229-42.609,25.343-55.995-2.301.823-6.791,3.29-10.449,5.636-.716.459-1.645.415-2.314-.11s-.933-1.417-.657-2.222c5.406-15.764,6.313-40.75-3.349-62.268l-5.848,7.114c-.477.58-1.237.844-1.973.684-.734-.161-1.315-.719-1.506-1.445-.267-1.013-.505-1.94-.726-2.8-1.655-6.438-2.274-8.847-6.439-15.167-.316-.48-.411-1.073-.259-1.627,4.435-16.239,2.228-34.816,1.234-41.257-11.076,3.969-20.857,4.225-31.173,4.496-6.493.17-13.208.346-20.812,1.419-.864.124-1.712-.333-2.087-1.125-1.864-3.937-.785-10.271.123-14.001-6.569.541-13.666.155-21.119-.249-16.847-.914-35.942-1.949-53.205,8.192-.396.232-.861.321-1.313.253-.644-.098-1.564-.434-2.288-1.482-2.052-2.969-1.023-11.377-.068-16.831-33.322,15.641-62.172,47.416-57.566,81.335,10.112-15.234,24.923-24.912,42.196-27.442,2.784-.408,5.572-.607,8.328-.607Z" fill="#08008D" id="o5WMc2QM2b0LwVIiOPHol" />
    </g>
    <g id="EIaPxIKClPsG_sBQTBv6O">
      <path d="M887.547,193.617c7.03-10.988,21.047-15.877,33.676-10.975,14.403,5.591,21.547,21.799,15.957,36.202-5.591,14.403-21.799,21.547-36.202,15.957-5.083-1.973-9.263-5.269-12.297-9.341" fill="#F9E5A0" id="Tund-SyVgfj-lBJZyEYo5" />
      <path d="M911.11,238.713c-3.666,0-7.336-.682-10.856-2.048-5.263-2.042-9.82-5.504-13.177-10.01-.66-.886-.477-2.139.409-2.799.885-.659,2.138-.477,2.799.409,2.907,3.902,6.855,6.901,11.417,8.671,6.468,2.511,13.527,2.353,19.875-.446,6.349-2.798,11.229-7.902,13.739-14.37,5.182-13.353-1.464-28.432-14.816-33.614-11.488-4.46-24.638-.175-31.268,10.188-.594.931-1.833,1.203-2.762.607-.931-.595-1.202-1.832-.607-2.762,7.652-11.961,22.829-16.907,36.084-11.761,15.408,5.98,23.079,23.381,17.098,38.79-2.897,7.464-8.528,13.354-15.854,16.583-3.872,1.707-7.972,2.562-12.08,2.562Z" fill="#08008D" id="StuXGIwsbeddVh2K4_Ddh" />
    </g>
    <g id="tDBNUwhADsgrLNx8jyKGW">
      <path d="M827.937,152.03c-6.753-5.674-14.28-9.192-23.553-13.019-5.946-2.454-4.302-9.456,5.284-10.875,9.009-1.334,23.987,6.496,27.117,15.338,3.265,9.225-3.336,13.187-8.847,8.556Z" fill="#08008D" id="d1MNLRgqPvi9VJwYg7hkd" />
      <path d="M832.682,155.972c-2.005,0-4.137-.819-6.032-2.412-6.255-5.256-13.181-8.637-23.029-12.702-3.236-1.335-5.024-3.976-4.666-6.893.379-3.085,3.315-6.757,10.418-7.81,9.499-1.408,25.727,6.567,29.295,16.65,2.2,6.216.332,10.268-2.15,11.988-1.139.79-2.458,1.177-3.837,1.177ZM811.77,129.989c-.633,0-1.238.041-1.81.125-4.55.674-6.835,2.722-7.034,4.34-.133,1.083.676,2.07,2.221,2.708,10.212,4.214,17.425,7.747,24.077,13.336h0c1.778,1.495,3.748,1.89,5.017,1.009,1.267-.878,2.105-3.275.658-7.366-2.667-7.537-15.084-14.153-23.128-14.153Z" fill="#08008D" id="svhy2rNdqdGETRf2jTO" />
    </g>
    <g id="K3taGEh0oDaCSTTdBzc7m">
      <path d="M765.286,128.19c-8.73-1.261-16.981-.281-26.878,1.356-6.346,1.05-8.641-5.766-1.244-12.026,6.952-5.884,23.807-7.128,31.128-1.265,7.638,6.117,4.119,12.964-3.006,11.935Z" fill="#08008D" id="h6QbfrWCs3ueViBDOzp8" />
      <path d="M737.164,131.653c-2.75,0-4.986-1.278-6.028-3.53-1.305-2.822-.746-7.49,4.735-12.129,7.333-6.208,25.322-7.985,33.671-1.299,5.146,4.122,5.696,8.55,4.494,11.32-1.354,3.122-4.9,4.753-9.037,4.155h0c-8.083-1.167-15.752-.389-26.265,1.35-.538.089-1.063.132-1.571.133ZM754.613,114.425c-6.238,0-12.747,1.736-16.158,4.623-3.511,2.971-4.373,5.917-3.688,7.396.458.991,1.668,1.404,3.314,1.13,10.899-1.803,18.893-2.604,27.491-1.363h0c2.298.333,4.18-.37,4.795-1.788.614-1.415.062-3.893-3.325-6.606-2.937-2.352-7.602-3.392-12.429-3.392Z" fill="#08008D" id="Wbfw18qUifL6vabUDY9ud" />
    </g>
    <ellipse cx="808.818" cy="162.694" rx="6.834" ry="5.74" transform="translate(462.619 911.561) rotate(-76.562)" fill="#08008D" id="ZFPkTypr4-ngLVz_4Ubqh" />
    <ellipse cx="747.999" cy="148.163" rx="6.834" ry="5.74" transform="translate(430.067 841.253) rotate(-76.562)" fill="#08008D" id="ZUVmtHdu0YCSzwY9EqRb7" />
    <path d="M803.621,218.154c-4.321,0-8.501-1.108-11.795-3.24-.927-.6-1.193-1.838-.593-2.766.6-.928,1.836-1.193,2.766-.593,4.129,2.671,10.32,3.338,15.77,1.698,4.416-1.329,7.646-3.886,9.095-7.202.442-1.013,1.621-1.475,2.633-1.032,1.012.442,1.474,1.621,1.032,2.633-1.927,4.41-6.049,7.759-11.608,9.431-2.388.718-4.866,1.07-7.299,1.07Z" fill="#08008D" id="SbNeaYHm4SFkuod0uVS8U" />
    <g id="m4NPjjTl2YXQrbozNTVVM">
      <path d="M903.505,218.102c-.692,0-1.365-.36-1.735-1.002-.551-.958-.222-2.18.735-2.731l16.067-9.25c.958-.55,2.18-.221,2.731.735.551.958.222,2.18-.735,2.731l-16.067,9.25c-.314.181-.658.267-.996.267Z" fill="#08008D" id="RbaLwG849XWJoDQdGdK9G" />
      <path d="M915.944,222.931c-.759,0-1.484-.434-1.82-1.168l-8.615-18.831c-.459-1.004-.018-2.191.987-2.651,1.005-.46,2.191-.018,2.651.987l8.615,18.831c.459,1.004.018,2.191-.987,2.651-.27.123-.553.182-.831.182Z" fill="#08008D" id="ymSXVbM6G9obFCd50ihM6" />
    </g>
    <path d="M878.8,113.066c-.999,0-1.861-.746-1.983-1.762-.131-1.097.651-2.092,1.748-2.224,24.75-2.967,41.473-17.866,48.362-43.087.291-1.065,1.39-1.695,2.456-1.402,1.065.291,1.693,1.391,1.402,2.456-7.353,26.92-25.246,42.829-51.745,46.005-.081.01-.161.014-.24.014Z" fill="#FFFA53" id="YuSTr-UPRQwEK_Wu5yjf" />
    <path d="M786.966,32.99c-.495,0-.991-.183-1.377-.551-.801-.761-.833-2.027-.071-2.827.2-.211,4.99-5.21,12.332-9.586.948-.566,2.176-.255,2.742.694.566.949.255,2.176-.694,2.742-6.875,4.097-11.436,8.859-11.481,8.906-.393.414-.921.622-1.45.622Z" fill="#FFFA53" id="ybzLRcMwgFZ0RiZYxNIwt" />
  </g><g id="ly1uY2l5eVaAwvk7k2g">
    <g id="gZySAH_i_gfmgUM0GuTbh">
      <path d="M624.48,702.393l-204.572-86.069c-3.186-1.34-4.318-2.844-4.339-4.326-.028-1.907.006-12.804.006-12.804l182.681-27.132c10.435-1.988,24.967-1.044,32.458,2.108l208.916,78.989s-.114,11.586.014,12.885c.213,2.165-3.165,4.258-9.686,5.5l-173.019,32.957c-10.435,1.988-24.967,1.044-32.458-2.108Z" fill="#BA3DFF" id="XF95qXhPdW6UmgHfhziCc" />
      <path d="M644.718,707.557c-7.942,0-15.903-1.17-21.014-3.321l-204.572-86.069c-3.655-1.537-5.527-3.604-5.564-6.141-.027-1.902.005-12.394.006-12.839.003-.989.728-1.827,1.706-1.972l182.68-27.132c10.849-2.065,25.611-1.088,33.528,2.244l208.848,78.961c.785.296,1.301,1.051,1.292,1.89-.055,5.565-.072,11.896.004,12.67.243,2.466-1.521,5.797-11.302,7.66l-173.019,32.957c-3.874.738-8.232,1.091-12.594,1.091ZM625.255,700.55c7.172,3.017,21.217,3.909,31.309,1.986l173.019-32.957c6.412-1.221,8.016-2.978,8.07-3.347-.111-1.126-.064-8.327-.036-11.696l-207.611-78.496c-7.24-3.045-21.285-3.937-31.377-2.014l-181.059,26.893c-.008,3.147-.022,9.641-.001,11.05.011.756,1.175,1.695,3.115,2.511l204.572,86.069Z" fill="#08008D" id="P3-RONMcnRulIvCqa" />
    </g>
    <g id="m5aPdqvQvxdXyjNf73CFD">
      <path d="M624.48,689.588l-204.572-86.069c-7.492-3.152-5.106-7.318,5.329-9.306l173.018-32.957c10.435-1.988,24.967-1.044,32.458,2.108l204.573,86.069c7.492,3.152,5.106,7.318-5.329,9.306l-173.019,32.957c-10.435,1.988-24.967,1.044-32.458-2.108Z" fill="#BA3DFF" id="n0qC2zZvPWZrcjX5IFP1w" />
      <path d="M644.718,694.752c-7.942,0-15.903-1.17-21.014-3.321l-204.572-86.069c-4.93-2.074-5.75-4.547-5.57-6.257.331-3.141,4.239-5.512,11.3-6.857l173.018-32.957c10.926-2.082,25.689-1.102,33.608,2.229l204.573,86.069c4.93,2.074,5.75,4.547,5.569,6.257-.331,3.141-4.238,5.512-11.3,6.857l-173.019,32.957c-3.874.738-8.232,1.091-12.594,1.091ZM625.255,687.744c7.172,3.017,21.216,3.909,31.309,1.986l173.019-32.957c6.413-1.221,8.017-2.978,8.07-3.347-.021-.178-.616-1.087-3.142-2.15l-204.573-86.069c-7.173-3.018-21.217-3.911-31.309-1.986l-173.018,32.957c-6.413,1.221-8.017,2.978-8.07,3.347.021.178.616,1.087,3.143,2.15l204.572,86.069Z" fill="#08008D" id="xkUqPkpuE1ZRf90Utkl8x" />
    </g>
    <g id="DC6Rhs5jjZkjHlDQ5RcCy">
      <path d="M625.088,677.269l-164.642-69.269c-6.029-2.537-6.008-5.528.048-6.682l100.407-19.126c6.056-1.153,15.852-.032,21.881,2.504l164.642,69.269c6.029,2.537,6.008,5.528-.048,6.682l-100.407,19.126c-6.056,1.153-15.852.032-21.881-2.504Z" fill="#08008D" id="D49FWR7rjExxzp8Rrv6Ld" />
      <path d="M641.411,682.232c-5.768,0-12.411-1.147-17.098-3.12l-164.642-69.269c-4.036-1.698-5.958-3.734-5.714-6.052.16-1.519,1.359-3.522,6.162-4.438l100.408-19.125c6.481-1.234,16.598-.081,23.031,2.626l164.642,69.269c4.036,1.698,5.958,3.734,5.714,6.052-.16,1.519-1.359,3.522-6.162,4.438l-100.408,19.125c-1.758.335-3.785.494-5.933.494ZM625.863,675.426c5.616,2.363,15.111,3.454,20.732,2.383l100.408-19.125c1.697-.323,2.474-.731,2.795-.956-.291-.339-1.091-1.051-3.149-1.917l-164.642-69.27c-5.616-2.363-15.109-3.454-20.732-2.383l-100.408,19.125c-1.697.323-2.474.731-2.795.956.29.339,1.091,1.051,3.149,1.917l164.642,69.269Z" fill="#08008D" id="X277PyLUfKJ7gQufuN98t" />
    </g>
    <g id="lgAAUb0a9ARUDg6HRF-ai">
      <path d="M624.615,689.636l-201.851-83.842c-7.392-3.07-15.573-13.172-18.274-22.562l-49.818-173.225c-2.701-9.39,1.102-14.514,8.494-11.443l201.851,83.842c7.392,3.07,15.573,13.172,18.274,22.562l49.818,173.225c2.701,9.39-1.103,14.514-8.494,11.443Z" fill="#BA3DFF" id="y3fh9M0k2OQdvLisHWeHs" />
      <path d="M628.526,692.526c-1.302,0-2.854-.285-4.678-1.042l-201.851-83.841c-8.004-3.325-16.538-13.804-19.429-23.856l-49.817-173.226c-1.717-5.971-1.108-10.647,1.714-13.166,1.316-1.175,4.298-2.826,9.469-.678l201.851,83.842c8.004,3.325,16.538,13.804,19.429,23.856l49.817,173.225c1.718,5.971,1.109,10.647-1.714,13.166-.853.76-2.402,1.72-4.791,1.72ZM359.241,399.675c-.78,0-1.532.186-2.113.704-1.543,1.377-1.748,4.854-.533,9.076l49.817,173.226c2.506,8.715,10.346,18.455,17.119,21.268l201.851,83.841c1.353.562,3.836,1.313,5.271.032,1.543-1.376,1.748-4.854.534-9.076l-49.817-173.225c-2.506-8.715-10.346-18.454-17.119-21.268l-201.851-83.842c-.805-.334-2.012-.736-3.159-.736Z" fill="#08008D" id="YUSyCDZgEsVDWm4o_WaKk" />
    </g>
  </g><g id="uPaeYZAqoLYbFs4Sl0kgw">
    <g id="lOdhFznaBnVqGTXfqAWQ">
      <path d="M374.701,543.298c3.17,4.932,4.473,14.828,9.394,15.758,0,0,10.213-3.639,19.15-.234,11.196,4.266,12.196,19.658-.008,23.105-12.204,3.447-30.871,4.614-39.068.57-8.197-4.044-19.821-20.464-25.689-35.398" fill="#F9E5A0" id="wqRjrgcZauUAupdKq9_z" />
      <path d="M379.836,587.064c-6.59,0-12.613-.83-16.551-2.772-8.44-4.164-20.402-20.52-26.665-36.46-.404-1.028.102-2.189,1.13-2.593,1.028-.406,2.189.101,2.593,1.13,5.85,14.89,17.167,30.614,24.712,34.336,7.658,3.777,25.645,2.688,37.64-.701,4.398-1.242,7.133-4.451,7.317-8.583.171-3.857-2.075-8.67-7.478-10.729-8.117-3.093-17.673.216-17.769.249-.333.117-.693.146-1.041.081-4.31-.815-6.201-5.813-8.029-10.647-.829-2.19-1.686-4.455-2.675-5.996-.597-.929-.328-2.167.602-2.764.929-.597,2.166-.328,2.764.602,1.217,1.894,2.149,4.359,3.051,6.742,1.281,3.386,2.721,7.193,4.621,8.006,2.472-.767,11.59-3.179,19.901-.011,6.293,2.398,10.332,8.283,10.049,14.644-.26,5.851-4.178,10.546-10.226,12.255-6.965,1.967-15.879,3.21-23.945,3.211Z" fill="#08008D" id="H-r26-2nMfDK5KXEiIF" />
    </g>
    <g id="X_-x77lsBwiM5TDegJuV">
      <path d="M376.529,517.602c3.753,4.504,8.606,18.295,13.603,18.611s15.227-1.589,26.735,3.978c10.785,5.218,11.744,19.931-.535,23.099-12.279,3.167-31.216,7.726-39.849,4.723-8.633-3.003-23.103-16.72-29.653-27.313" fill="#F9E5A0" id="qJHbo-HhPRPYwSup_AUiH" />
      <path d="M383.872,570.993c-3.119,0-5.854-.328-8.046-1.09-9.534-3.317-24.331-17.855-30.697-28.149-.581-.939-.29-2.172.649-2.753.94-.582,2.172-.29,2.753.649,6.571,10.625,20.742,23.739,28.609,26.476,8.599,2.993,29.687-2.448,38.692-4.771,4.303-1.11,6.99-3.949,7.372-7.788.382-3.84-1.699-8.908-7.208-11.574-8.572-4.147-16.566-3.931-21.856-3.788-1.589.042-2.959.079-4.134.005-4.384-.278-7.749-6.553-11.003-12.622-1.464-2.729-2.846-5.308-4.011-6.706-.707-.849-.592-2.11.256-2.817.849-.707,2.11-.592,2.817.256,1.424,1.709,2.9,4.462,4.463,7.376,2.082,3.883,5.567,10.383,7.73,10.52.995.063,2.283.027,3.773-.012,5.682-.153,14.259-.385,23.707,4.186,6.274,3.036,10.07,9.292,9.446,15.57-.549,5.524-4.419,9.735-10.353,11.266-11.513,2.97-23.86,5.766-32.959,5.766Z" fill="#08008D" id="kCd80bvqtRYjCVJxANtvW" />
    </g>
    <g id="I38CdJRJ3wNKGdTZRqOvY">
      <path d="M373.503,500.007c.345,5.716,5.261,9.64,10.14,10.766,4.879,1.126,21.394.751,29.652,10.51,8.257,9.759,9.123,21.394-3.508,22.52-12.631,1.126-31.538,3.297-38.798.522-8.537-3.264-13.688-9.75-20.239-20.342" fill="#F9E5A0" id="FxcFLpEkWPg8lWol_jm_Q" />
      <path d="M382.528,547.674c-5.037,0-9.401-.391-12.254-1.481-8.962-3.427-14.374-10.08-21.225-21.158-.581-.939-.29-2.172.649-2.753s2.171-.29,2.753.649c6.535,10.566,11.306,16.488,19.251,19.525,6.05,2.313,22.011.829,33.663-.256,1.472-.137,2.894-.269,4.244-.39,3.861-.344,6.318-1.732,7.301-4.126,1.518-3.694-.5-9.625-5.142-15.11-6.068-7.171-17.359-8.452-24.105-9.216-1.882-.213-3.368-.382-4.47-.636-5.337-1.231-11.271-5.698-11.687-12.594-.066-1.103.773-2.05,1.876-2.117,1.101-.069,2.05.773,2.117,1.876.292,4.846,4.66,8.03,8.593,8.938.88.203,2.335.368,4.021.559,7.336.832,19.615,2.224,26.708,10.607,5.681,6.714,7.899,14.077,5.789,19.214-1.098,2.671-3.835,5.983-10.646,6.59-1.346.12-2.762.251-4.229.388-7.475.695-16.025,1.491-23.208,1.491Z" fill="#08008D" id="XZvOwB4YEy2eaMfhhwvMh" />
    </g>
  </g><g id="jexN-yFrF24-fgBjcSdz">
    <g id="wspU69DwrJUFWh6DXsLh0">
      <path d="M809.842,706.664c-24.559-.887-22.254-119.329,7.514-118.994,29.768.335,32.397,120.435-7.514,118.994Z" fill="#08008D" id="va1iaEp4St3UJfiYKcc" />
      <path d="M810.537,708.677c-.255,0-.51-.005-.768-.014h0c-13.833-.5-19.336-29.771-18.654-58.56.761-32.114,9.131-64.433,26.112-64.433.051,0,.101,0,.151,0,5.767.065,10.958,3.984,15.012,11.334,12.172,22.068,13.534,73.86-1.701,98.628-5.257,8.548-12.213,13.044-20.153,13.044ZM809.914,704.665c6.835.239,12.675-3.498,17.369-11.128,14.337-23.31,13.039-73.874,1.605-94.601-3.364-6.1-7.252-9.218-11.555-9.266-.034,0-.069,0-.103,0-13.579,0-21.403,30.409-22.117,60.528-.728,30.721,5.634,54.137,14.8,54.468h0Z" fill="#08008D" id="thE3lwHEMgywXFzuO6vs6" />
    </g>
    <g id="h6HufAMyG-8oqAnXH_nk8">
      <path d="M1079.256,428.002c10.897,60.542,5.553,124.673-17.633,169.521-33.144,64.541-110.425,85.957-182.745,90.14-54.808,3.447-107.958-2.552-142.165-10.132-26.961-5.973-43.974-32.671-38-59.632,5.972-26.961,32.67-43.976,59.632-38,32.439,7.187,86.553,11.873,134.337,6.143,31.397-3.766,71.323-17.446,80.112-34.445,13.662-26.189,14.679-70.784,7.057-110.265" fill="#F9E5A0" id="yE3N5WBJWDc4FSm590HqH" />
      <path d="M846.582,690.649c-38.106,0-77.576-3.914-110.302-11.165-27.994-6.203-45.723-34.023-39.521-62.017,3.004-13.562,11.109-25.141,22.823-32.605,11.714-7.465,25.634-9.92,39.194-6.915,32.271,7.15,86.119,11.812,133.666,6.109,31.438-3.771,70.418-17.604,78.574-33.377,12.375-23.723,15.07-66.492,6.87-108.967-.209-1.084.5-2.133,1.585-2.343,1.086-.205,2.134.501,2.343,1.585,8.361,43.308,5.517,87.101-7.247,111.568-8.871,17.157-48.48,31.528-81.647,35.506-48.017,5.757-102.405,1.047-135.007-6.176-12.518-2.773-25.366-.508-36.179,6.382-10.812,6.891-18.294,17.579-21.067,30.098-5.725,25.84,10.64,51.521,36.48,57.247,15.665,3.471,72.173,14.457,141.606,10.088,63.646-3.681,146.717-22.12,181.092-89.058,22.169-42.879,28.689-105.775,17.444-168.252-.196-1.087.527-2.127,1.614-2.323,1.091-.191,2.127.527,2.323,1.614,11.396,63.315,4.732,127.164-17.825,170.793-15.427,30.042-41.56,53.132-77.669,68.624-29.355,12.594-65.267,20.196-106.737,22.594-10.559.664-21.43.989-32.41.989Z" fill="#08008D" id="XvoSvNna6VMzLU3WGGWh7" />
    </g>
    <g id="a31feOxW4WTddPreWI8H-">
      <path d="M1086.531,413.869c13.851,65.294,10.317,139.104-16.027,188.247-32.588,68.053-125.484,101.132-205.634,104.58-18.209,1.145-36.702,1.151-55.028-.033,28.673-13.176,29.382-97.754,7.514-118.994,34.987,2.259,71.839-2.332,100.727-11.277,27.674-8.569,42.433-22.824,45.828-29.389,6.548-12.665,12.665-38.881,10.194-74.474-.876-12.619-2.752-25.028-5.497-36.772" fill="#FFFA53" id="jhDsXsV1Iuq6KMoAWe0tY" />
      <path d="M837.564,709.553c-9.321,0-18.628-.297-27.852-.893-.914-.059-1.671-.731-1.838-1.631-.167-.9.3-1.799,1.132-2.182,9.357-4.3,16.359-17.433,19.716-36.98,5.294-30.833-.549-66.902-12.76-78.762-.601-.583-.774-1.48-.435-2.246s1.119-1.239,1.957-1.185c33.583,2.17,70.035-1.911,100.006-11.192,25.987-8.046,41.174-21.688,44.643-28.397,6.423-12.425,12.417-38.237,9.976-73.417-.861-12.403-2.694-24.669-5.449-36.456-.251-1.076.417-2.151,1.493-2.403,1.076-.252,2.151.417,2.403,1.493,2.803,11.995,4.668,24.473,5.544,37.089,2.5,36.005-3.74,62.625-10.413,75.531-3.916,7.574-19.667,21.915-47.013,30.382-29.021,8.987-64.013,13.168-96.737,11.625,12.207,16.652,15.228,52.407,10.729,78.614-2.949,17.173-8.752,29.816-16.611,36.474,16.136.808,32.485.702,48.691-.316,72.754-3.131,169.79-32.1,203.956-103.448,24.559-45.817,30.626-117.428,15.875-186.969-.229-1.081.461-2.142,1.542-2.372,1.085-.233,2.142.461,2.372,1.542,14.938,70.423,8.723,143.076-16.221,189.607-15.171,31.687-44.892,58.475-85.906,77.388-35.508,16.374-78.624,26.404-121.404,28.245-9.098.572-18.251.858-27.392.858Z" fill="#08008D" id="LhABcFDDrD_B89qDYh0rT" />
    </g>
    <path d="M846.909,709.453c-.757,0-1.482-.432-1.819-1.166-.461-1.003-.021-2.191.982-2.652,9.177-4.217,16.046-17.11,19.342-36.305,5.387-31.377-.594-68.117-13.062-80.226-.792-.77-.811-2.036-.041-2.828.771-.792,2.036-.81,2.828-.041,15.141,14.706,19.168,54.934,14.217,83.772-3.526,20.534-11.202,34.478-21.614,39.263-.271.124-.554.183-.833.183Z" fill="#08008D" id="kdnd4rIvieSqqMuLz0" />
    <g id="wCn73R2JwUWrJQgDE11iC">
      <g id="tDQHw_hpi9OQqUMpBZaou">
        <path d="M758.344,579.899c-24.753-5.44-45.799-8.769-54.909-6.152-17.513,5.032-33.718,7.253-42.063,11.416-16.187,8.074.669,28.793,20.679,24.553,20.01-4.24,36.225-1.041,45.606,3.05" fill="#F9E5A0" id="DKaqYSUPgF3g-86r2j-uU" />
        <path d="M727.655,614.766c-.267,0-.538-.054-.798-.167-5.724-2.496-21.506-7.777-44.392-2.927-13.45,2.851-25.781-4.683-28.86-13.506-2.115-6.061.455-11.591,6.875-14.792,5.211-2.6,13.219-4.44,22.491-6.571,6.065-1.394,12.941-2.974,19.913-4.978,8.292-2.384,26.051-.438,55.891,6.121,1.079.237,1.761,1.304,1.524,2.382-.237,1.079-1.305,1.759-2.383,1.524-28.763-6.323-46.403-8.345-53.928-6.183-7.075,2.033-14.006,3.625-20.121,5.031-9.023,2.074-16.816,3.865-21.602,6.252-4.579,2.284-6.313,5.798-4.883,9.896,2.467,7.068,13.034,13.287,24.255,10.911,24.02-5.09,40.744.523,46.82,3.173,1.013.442,1.476,1.621,1.034,2.633-.328.752-1.063,1.201-1.834,1.201Z" fill="#08008D" id="Nmkyu3usVifRs5htWVXU" />
      </g>
      <g id="iBJym3fnAU6QaagLwfhHU">
        <path d="M736.712,606.067c-18.429-1.428-30.414-2.196-43.114,2.609-10.81,4.09-25.594,12.271-33.664,16.752-14.855,8.249,3.947,35.639,29.31,22.476,0,0,8.654-4.691,13.219-4.978s28.695,5.436,28.695,5.436" fill="#F9E5A0" id="K9m6PA_yvz-Q8CH7elfRE" />
        <path d="M675.691,653.435c-9.565,0-17.335-5.111-21.019-11.97-3.811-7.096-2.086-14.244,4.291-17.786,7.406-4.113,22.816-12.67,33.927-16.875,12.844-4.859,24.492-4.243,43.977-2.732,1.101.085,1.925,1.047,1.839,2.148s-1.048,1.92-2.148,1.84c-18.914-1.465-30.203-2.073-42.252,2.485-10.839,4.101-26.078,12.563-33.4,16.63-5.319,2.954-4.888,8.34-2.709,12.396,3.603,6.71,14.969,14.422,30.127,6.556.894-.484,9.15-4.893,14.015-5.198,4.738-.293,26.783,4.893,29.282,5.486,1.075.255,1.739,1.333,1.484,2.407-.254,1.075-1.332,1.742-2.407,1.484-9.584-2.272-24.965-5.589-28.108-5.386-3.378.212-10.091,3.494-12.392,4.74-5.073,2.633-9.99,3.773-14.506,3.773Z" fill="#08008D" id="x5aBJaRP_DsXTsBP6kXDT" />
      </g>
      <g id="aTKsq6hZ_BmPW4zZ1gw13">
        <path d="M734.049,638.116c-12.229-2.588-24.952-2.987-30.832-2.342-11.053,1.211-21.328,10.414-33.448,19.852-10.909,8.495,11.374,31.892,31.863,16.304,6.715-5.109,25.233,3.685,35.081,5.602" fill="#F9E5A0" id="O9eUA9745xxQABn70-hn9" />
        <path d="M736.714,679.532c-.126,0-.255-.012-.384-.037-2.958-.576-6.592-1.725-10.438-2.941-8.509-2.689-19.099-6.037-23.049-3.033-13.896,10.574-28.619,4.324-34.635-3.491-4.526-5.88-4.393-12.304.332-15.983,1.508-1.174,2.986-2.344,4.441-3.495,10.609-8.395,19.771-15.645,30.017-16.767,6.63-.726,19.566-.144,31.464,2.374,1.081.229,1.771,1.29,1.542,2.371s-1.288,1.773-2.371,1.542c-11.364-2.405-24.04-2.987-30.201-2.311-9.102.997-17.846,7.916-27.97,15.927-1.463,1.158-2.95,2.334-4.466,3.515-3.51,2.733-2.105,7.158.38,10.387,4.663,6.057,16.67,12.161,29.043,2.747,5.598-4.261,16.796-.721,26.677,2.402,3.735,1.181,7.263,2.296,9.998,2.828,1.084.211,1.792,1.261,1.581,2.346-.186.955-1.023,1.618-1.961,1.618Z" fill="#08008D" id="SJPMR-Q90PfP4ASu4srMn" />
      </g>
    </g>
  </g></g></g><g transform="translate(531 93) rotate(-2.9579355698509517 -194 152.5) scale(-1 1)" data-asset-index="3"><g clip-path="url(#assetClipPath_cvgF5zDU)" transform="scale(0.6710422773929661 0.6685693492737803)" data-asset-index="3"><path d="m168.595 110.128c4.053 10.554-33.141 24.837-37.194 14.283l-40.621-76.102c-8.718-16.333-1.157-36.612 16.127-43.249 17.284-6.637 36.475 3.368 40.93 21.338z" fill="#5C79F7" id="lI4zPMnUT4tE5QXP7AmpR" /><path d="m139.388 131.116c-7.275 0-9.823-3.313-10.709-5.435l-40.545-75.959c-4.56-8.543-5.235-18.647-1.852-27.721s10.509-16.27 19.55-19.742c9.04-3.472 19.151-2.895 27.738 1.582s14.849 12.436 17.179 21.835l20.718 83.568c2.796 7.835-7.564 14.981-17.355 18.741-5.202 1.998-10.389 3.109-14.605 3.13h-.119zm-21.443-125.102c-3.371 0-6.748.612-9.962 1.847-7.436 2.855-13.296 8.773-16.08 16.237-2.783 7.463-2.228 15.773 1.523 22.799l40.622 76.102c.058.109.11.222.154.337.433 1.129 2.427 1.806 5.275 1.78 3.458-.017 8.008-1.013 12.484-2.731 4.476-1.719 8.523-4.025 11.104-6.327 2.142-1.911 3.162-3.726 2.729-4.855-.044-.115-.082-.233-.111-.354l-20.758-83.729c-1.917-7.731-7.067-14.276-14.129-17.958-4.01-2.091-8.425-3.147-12.852-3.147z" fill="#0B122D" id="WgFTTrL9t9Xcwl7_gWLK6" /><path d="m72.184 336.538c41.861 3.829 55.729-147.764 13.868-151.593s-78.901 27.001-82.73 68.863c-3.829 41.861 27.001 78.901 68.863 82.73z" fill="#BFDBFB" id="ZbUfmR6bx5b09cogy7DEM" /><path d="m73.761 339.611c-.614 0-1.229-.028-1.851-.085-43.441-3.975-75.55-42.55-71.576-85.992 1.925-21.044 11.93-40.079 28.171-53.598s36.774-19.906 57.82-17.979c11.062 1.012 19.363 10.712 24.004 28.052 3.893 14.543 5.02 33.677 3.171 53.877s-6.427 38.812-12.895 52.407c-7.278 15.3-16.528 23.316-26.846 23.316zm5.228-151.989c-17.038 0-33.388 5.891-46.645 16.926-15.01 12.494-24.256 30.085-26.035 49.533s4.122 38.425 16.616 53.435 30.084 24.256 49.533 26.035c.429.039.857.059 1.28.059 17.97.002 30.555-34.92 33.789-70.269 3.31-36.182-3.097-73.702-21.748-75.409-2.271-.208-4.537-.311-6.79-.311z" fill="#0B122D" id="lkGnYRSkVqxw7Jdkx4nBj" /><rect fill="#BFDBFB" height="353.128" rx="176.564" transform="matrix(.99584158 .09110187 -.09110187 .99584158 25.874 -23.991)" width="467.257" x="42.113" y="94.869" id="ZZz3jNFBFX2CS48MTGvH1" /><path d="m332.72 456.205c-5.482 0-10.987-.25-16.509-.756l-113.655-10.397c-47.569-4.352-90.714-27.108-121.487-64.078s-45.324-83.528-40.972-131.097c4.352-47.57 27.108-90.715 64.078-121.487 36.97-30.773 83.528-45.323 131.098-40.972l113.654 10.397c47.57 4.352 90.714 27.108 121.487 64.078 30.772 36.97 45.323 83.528 40.971 131.098-4.352 47.569-27.108 90.715-64.078 121.487-32.678 27.2-72.851 41.728-114.588 41.728zm-15.962-6.731c95.303 8.716 179.935-61.725 188.654-157.031 8.719-95.305-61.725-179.936-157.031-188.655l-113.654-10.397c-95.304-8.719-179.936 61.725-188.654 157.031s61.725 179.936 157.031 188.654l113.655 10.397z" fill="#0B122D" id="cWn7pgAG1IxY-SKX70H-C" /><path d="m292.832 373.299-125.116-11.446c-54.709-5.005-95.375-53.861-90.371-108.57 3.636-39.741 30.411-72.073 65.759-84.871 18.901-6.843 39.504 3.061 46.585 21.874 4.815 12.794 15.326 25.683 37.961 27.754 25.671 2.348 48.198-10.932 63.344-23.451 18.895-15.619 45.857-17.504 66.227-3.865 29.467 19.73 47.622 54.583 44.18 92.203-5.005 54.709-53.861 95.376-108.57 90.371z" fill="#5C79F7" id="EhlrPw9LchiE2LoTmw-" /><path d="m302.019 376.719c-3.141 0-6.296-.144-9.461-.433l-125.116-11.445c-56.495-5.168-98.253-55.335-93.084-111.831 3.615-39.518 30.199-73.832 67.725-87.418 20.147-7.292 42.763 3.31 50.414 23.638 5.841 15.519 17.76 24.207 35.427 25.823 25.012 2.287 47.062-11.123 61.159-22.776 19.984-16.52 48.69-18.184 69.807-4.045 31.495 21.088 48.928 57.478 45.498 94.97-2.493 27.257-15.532 51.979-36.714 69.61-18.723 15.584-41.74 23.907-65.656 23.907zm-146.798-207.434c-3.699 0-7.443.626-11.094 1.948-35.349 12.798-60.389 45.111-63.793 82.323-4.867 53.201 34.456 100.442 87.657 105.31l125.116 11.445c25.664 2.345 50.782-5.505 70.731-22.111 19.95-16.606 32.23-39.884 34.578-65.546 3.229-35.302-13.194-69.573-42.861-89.438-18.93-12.673-44.69-11.159-62.647 3.685-14.967 12.372-38.481 26.607-65.528 24.126-25.1-2.296-35.876-17.41-40.496-29.685-5.11-13.578-18.061-22.058-31.662-22.058z" fill="#0B122D" id="rE68R5UdX7ZVWok0UW9c" /><path d="m465.197 170.278c-8.411 7.555-35.035-22.086-26.624-29.64l56.576-65.12c12.143-13.976 33.785-14.155 46.157-.382 12.372 13.774 9.881 35.273-5.314 45.852l-70.795 49.291z" fill="#5C79F7" id="KFvIhMmzRp4nlV6tHa4WP" /><path d="m461.806 174.539c-5.94 0-13.163-5.512-18.462-11.411-7.008-7.802-12.981-18.878-6.927-24.583l56.468-64.995c6.352-7.311 15.548-11.549 25.232-11.629.093 0 .187-.001.279-.001 9.583 0 18.732 4.077 25.142 11.212 6.472 7.205 9.543 16.854 8.429 26.475-1.115 9.62-6.313 18.311-14.26 23.844l-70.66 49.196c-1.542 1.32-3.325 1.894-5.241 1.894zm56.591-106.62c-.077 0-.153 0-.229 0-7.965.066-15.529 3.552-20.753 9.565l-56.577 65.121c-.081.093-.168.182-.26.264-1.928 1.731.567 8.831 7.23 16.249 6.664 7.419 13.458 10.662 15.385 8.928.092-.083.189-.16.291-.23l70.795-49.291c6.537-4.551 10.812-11.699 11.729-19.611s-1.61-15.849-6.933-21.774c-5.271-5.869-12.796-9.222-20.678-9.222z" fill="#0B122D" id="F1bKVfGx2GQVGiQ7IxPJ" /><path d="m492.153 374.957c-41.861-3.829-27.993-155.423 13.868-151.593 41.861 3.829 72.692 40.869 68.863 82.73s-40.869 72.692-82.73 68.863z" fill="#BFDBFB" id="bU2tah0PJqJkBfwAKtcZ0" /><g fill="#0B122D" id="ioqiVAyoh0s1NBQ0TtoH"><path d="m499.226 378.281c-2.438 0-4.888-.111-7.347-.336-11.062-1.012-19.363-10.712-24.004-28.052-3.893-14.542-5.02-33.676-3.172-53.876s6.427-38.813 12.895-52.408c7.711-16.21 17.637-24.255 28.697-23.231 21.044 1.925 40.079 11.93 53.598 28.171s19.904 36.776 17.979 57.82-11.93 40.079-28.171 53.598c-14.344 11.94-32.038 18.315-50.473 18.315zm5.242-151.989c-17.97 0-30.555 34.921-33.789 70.271-3.31 36.181 3.098 73.7 21.748 75.407 2.252.206 4.497.307 6.715.307 37.337.003 69.288-28.561 72.754-66.456 1.779-19.448-4.122-38.424-16.616-53.434s-30.084-24.256-49.533-26.036c-.429-.039-.857-.059-1.28-.059z" fill="#0B122D" id="dCWIXpH8IUsc9GjDoKgLa" /><ellipse cx="142.439" cy="247.389" rx="10.073" ry="8.461" transform="matrix(.09110187 -.99584158 .99584158 .09110187 -116.898 366.699)" fill="#0B122D" id="BmeYJN7Ez16C13RoP1HZ2" /><ellipse cx="310.954" cy="262.805" rx="10.073" ry="8.461" transform="matrix(.09110187 -.99584158 .99584158 .09110187 20.914 548.525)" fill="#0B122D" id="wgKwwrMy_lnrttNwqWRWx" /><path d="m255.054 295.316c-1.232 13.466-16.455 23.081-34.001 21.476s-30.772-13.823-29.54-27.288l63.541 5.813z" fill="#0B122D" id="jaVr3YYVBq04jsWY6zb0t" /><path d="m224.887 319.967c-1.36 0-2.73-.062-4.108-.188-9.14-.836-17.512-4.38-23.574-9.98-6.28-5.801-9.363-13.106-8.68-20.569.15-1.649 1.596-2.875 3.261-2.714l63.541 5.813c.792.072 1.523.457 2.032 1.068.509.612.754 1.4.682 2.193-.683 7.462-5.04 14.087-12.268 18.652-5.926 3.743-13.223 5.726-20.886 5.726zm-30.379-27.177c.436 4.523 2.773 8.911 6.769 12.602 5.097 4.708 12.217 7.696 20.05 8.413 7.833.715 15.376-.93 21.243-4.635 4.599-2.905 7.694-6.795 8.943-11.165l-57.004-5.214z" fill="#0B122D" id="O9VvvAX4q11ag0Xj7HRX" /></g><path d="m527.327 228.478c-6.659-2.658-13.801-4.428-21.305-5.114-41.861-3.829-55.729 147.764-13.868 151.593 6.377.583 12.64.352 18.693-.589-18.637-42.281-9.703-112.551 16.481-145.89z" fill="#5C79F7" id="EuTffKJ5A_zSynnyE3NIa" /><path d="m499.11 378.274c-2.413 0-4.825-.11-7.23-.33-11.062-1.012-19.363-10.712-24.004-28.052-3.893-14.543-5.02-33.677-3.171-53.877s6.427-38.812 12.895-52.407c7.71-16.21 17.638-24.251 28.696-23.231 7.598.695 15.048 2.483 22.144 5.315.878.35 1.54 1.094 1.785 2.007.246.913.046 1.888-.538 2.632-26.027 33.138-33.849 102.549-16.095 142.827.376.853.334 1.832-.113 2.65s-1.25 1.381-2.17 1.524c-4.034.628-8.116.942-12.198.942zm5.358-151.982c-17.97 0-30.555 34.92-33.789 70.269-3.31 36.182 3.097 73.702 21.748 75.409 4.707.431 9.45.405 14.146-.076-7.834-20.09-10.488-46.839-7.274-74.175 3.159-26.87 11.557-51.291 23.227-67.814-5.434-1.838-11.061-3.031-16.778-3.554-.429-.039-.857-.059-1.28-.059z" fill="#0B122D" id="SWbaZBX5YXcp6wIN_qP5v" /></g></g></svg>