<svg width="128" height="128" viewBox="0 0 128 128" fill="none" xmlns="http://www.w3.org/2000/svg">
<g clip-path="url(#clip0_3135_185)">
<g clip-path="url(#clip1_3135_185)">
<mask id="mask0_3135_185" style="mask-type:luminance" maskUnits="userSpaceOnUse" x="0" y="0" width="128" height="128">
<path d="M128 0H0V128H128V0Z" fill="white"/>
</mask>
<g mask="url(#mask0_3135_185)">
<path d="M128 0H0V128H128V0Z" fill="#9EA7C3"/>
<path d="M91.52 57.2237C92.0576 57.2237 92.5536 57.3229 93.0816 57.4093C92.992 58.1389 93.1904 58.8045 92.2368 58.9453C89.2288 59.1885 86.2112 59.4093 83.1968 59.6045C81.8144 59.6685 80.3872 59.9757 79.0048 59.8733C78.384 59.6205 78.1664 59.2333 78.3552 58.5613C78.8192 58.1197 79.376 58.0685 79.9872 58.0205C83.8336 57.8157 87.6672 57.4253 91.52 57.2205V57.2237ZM38.5024 61.5469C38.896 61.9437 39.2064 62.1581 39.168 62.7789C38.7136 63.5853 37.6 63.4349 36.8064 63.5341C34.2304 63.6013 31.6672 64.0717 29.0976 64.0813C28.2336 63.9661 28.4224 63.2717 28.288 62.6157C31.5936 61.7709 35.1264 62.0429 38.5056 61.5469H38.5024ZM109.722 62.1101C110.054 62.3501 110.387 62.5837 110.723 62.8205C110.983 67.1871 109.872 71.5257 107.546 75.2301C105.622 78.2848 102.941 80.7904 99.7632 82.5037C95.1168 85.0509 89.4208 85.6589 84.32 84.2445C79.7809 82.9885 75.7985 80.2374 73.0176 76.4365C70.6782 73.2698 69.3027 69.4953 69.056 65.5661C69.728 64.5037 70.8928 64.6061 71.9904 64.5229C81.808 63.8509 91.6224 63.2013 101.437 62.5325C104.221 62.4685 106.941 62.0077 109.722 62.1101Z" fill="black"/>
<path d="M108.886 63.8956C109.123 70.5452 105.357 77.102 99.6544 80.4716C95.872 82.6892 91.3728 83.6652 87.0272 82.9516C82.6815 82.2935 78.6955 80.1575 75.7408 76.9036C73.1744 74.062 71.3888 70.334 71.0176 66.5068C74.592 66.1132 78.1792 65.9724 81.7632 65.6652C81.8848 68.3756 82.3616 71.166 83.4272 73.6748C84.032 75.0444 85.12 76.8972 86.7008 77.2364C88.2336 77.5084 89.2512 76.4108 89.8912 75.1724C91.3568 72.2028 91.1712 68.2924 90.9216 65.0732C96.9056 64.6732 102.896 64.222 108.886 63.8988V63.8956Z" fill="white"/>
<path d="M44.48 67.4348C47.072 67.214 49.6416 66.974 52.2464 67.0988C52.5248 67.3644 52.8064 67.6332 53.0912 67.8956C53.152 73.0156 50.9472 77.998 47.0816 81.3548C45.2486 82.9569 43.1022 84.1598 40.7789 84.887C38.4557 85.6142 36.0065 85.8498 33.5872 85.5788C29.9303 85.2 26.4876 83.6719 23.7536 81.214C20.5322 78.3234 18.4847 74.3502 18 70.0492C18.3328 69.7676 18.7008 69.1916 19.1616 69.1468C23.3344 68.6348 27.4976 68.606 31.6768 68.2028C35.9488 67.998 40.208 67.6556 44.4768 67.4348H44.48Z" fill="black"/>
<path d="M51.312 68.9005C51.0912 70.5229 50.8512 72.0781 50.2624 73.6173C48.9453 77.1237 46.4284 80.05 43.1584 81.8765C40.8157 83.1678 38.1915 83.8634 35.5168 83.9021C33.4147 83.8869 31.3364 83.4571 29.4007 82.6373C27.4651 81.8175 25.7102 80.6237 24.2368 79.1245C22.0149 76.8537 20.5246 73.969 19.9584 70.8429C23.5915 70.5431 27.2293 70.3042 30.8704 70.1261C30.8512 72.4237 31.1744 74.7245 32.4032 76.7117C32.944 77.5437 33.7952 78.3725 34.864 78.3117C36.0064 78.2669 36.8192 77.2557 37.264 76.3021C38.176 74.1773 38.1856 71.9277 37.984 69.6653C42.4192 69.4093 46.8704 68.9677 51.312 68.9005Z" fill="white"/>
<path d="M81.584 20.2764C88.4544 19.2172 95.28 21.2812 100.976 25.1084C104.835 27.726 108.304 31.4028 110.246 35.6748C110.598 36.622 110.15 36.8684 109.446 37.3612C108.179 36.638 107.245 35.5756 106.093 34.7052C101.933 31.5788 97.1232 29.4668 92.0832 28.2284C87.3056 27.1084 82.304 26.6124 77.4272 27.3324C75.8976 27.4636 74.4576 27.9468 72.9568 28.1868C72.1856 28.2508 71.3248 27.8028 71.6128 26.894C72.2176 25.566 72.9632 24.174 74.0416 23.166C75.9744 21.3676 79.0464 20.654 81.584 20.2764ZM34.2368 44.7532C38.5184 44.4908 42.6624 44.5612 46.7264 46.1068C48.5984 46.8652 50.4128 47.998 51.184 49.9628C51.6256 51.342 51.4752 52.8012 50.6304 53.998C49.0624 53.7548 47.6224 53.166 46.0928 52.7756C38.6912 50.75 30.992 50.2156 23.36 50.8684C21.7984 50.974 20.2048 51.518 18.6496 51.438C18.08 51.2844 18.2752 50.734 18.3392 50.3052C18.6208 49.5052 19.4848 49.07 20.1824 48.6732C24.5824 46.3564 29.3184 45.2684 34.2368 44.7532Z" fill="black"/>
<path d="M59.5904 84.4108C61.4752 84.8396 63.424 85.8572 64.6112 87.4124C65.0112 88.1324 64.6208 89.0124 63.7248 88.894C63.0016 88.4972 62.4576 87.8124 61.7632 87.358C60.384 86.4396 58.608 85.9244 56.9536 86.1804C56.1312 86.3244 55.2384 86.6924 54.768 87.4156C54.2784 88.0876 54.352 88.9388 54.64 89.6716C55.1904 91.0956 56.56 92.1932 57.92 92.7884C58.656 93.1276 59.6 93.198 60.256 93.6684C60.7936 94.2444 60.4384 95.0636 59.6992 95.198C58.224 95.5276 56.928 96.0492 55.9808 97.278C54.2208 99.4188 54.4672 102.622 56.4128 104.558C58.3744 106.692 61.9168 106.958 64.176 105.15C64.9536 104.552 65.3248 103.758 65.9488 103.044C66.8992 102.584 67.5712 103.377 67.2192 104.292C65.7408 107.422 61.7888 108.932 58.5376 107.94C57.124 107.549 55.8524 106.76 54.8735 105.668C53.8945 104.575 53.2493 103.225 53.0144 101.777C52.5184 98.7564 54.0352 95.8124 56.6336 94.2636C54.8 93.3196 53.1744 91.7484 52.6752 89.694C52.1824 87.998 52.9312 86.0876 54.4192 85.15C55.92 84.11 57.8624 84.1388 59.5904 84.4108Z" fill="black"/>
</g>
</g>
</g>
<defs>
<clipPath id="clip0_3135_185">
<rect width="128" height="128" rx="64" fill="white"/>
</clipPath>
<clipPath id="clip1_3135_185">
<rect width="128" height="128" fill="white"/>
</clipPath>
</defs>
</svg>
