<svg width="128" height="128" viewBox="0 0 128 128" fill="none" xmlns="http://www.w3.org/2000/svg">
<g clip-path="url(#clip0_3135_124)">
<g clip-path="url(#clip1_3135_124)">
<mask id="mask0_3135_124" style="mask-type:luminance" maskUnits="userSpaceOnUse" x="0" y="0" width="128" height="128">
<path d="M128 0H0V128H128V0Z" fill="white"/>
</mask>
<g mask="url(#mask0_3135_124)">
<path d="M128 0H0V128H128V0Z" fill="#3EE89C"/>
<path d="M88.3168 32.6688C93.3394 32.5241 98.2461 34.1941 102.138 37.3728C105.082 39.7536 107.322 43.0208 108.64 46.5568C109.312 48.3392 109.466 50.1216 109.805 51.9744C109.382 52.448 109.264 53.0432 108.509 52.9408C106.256 52.8416 104.042 52.288 101.779 52.2304C98.9728 52.1984 96.2176 52.112 93.4272 52.5344C90.2816 53.056 87.1872 53.3792 84.128 54.3648C80.5388 55.3433 77.056 56.6768 73.7312 58.3456C72.6592 58.864 71.664 59.5488 70.5696 60.016C69.904 60.2624 69.1552 60.128 68.8768 59.4016C68.1472 57.1008 67.9744 54.5408 68.0928 52.1408C68.3936 47.0208 70.6912 42.0928 74.3872 38.5408C78.1314 34.906 83.1037 32.8093 88.32 32.6656L88.3168 32.6688Z" fill="black"/>
<path d="M88.96 34.5121C93.8656 34.4385 98.688 36.4801 102.205 39.8721C105.363 42.9121 107.27 46.9729 107.869 51.2961C103.101 50.3809 98.2688 50.0929 93.4304 50.4961C91.5104 50.7201 89.6128 51.0977 87.712 51.4209C87.424 50.3777 87.1552 49.3889 86.576 48.4609C84.6656 45.2737 80.3904 43.5841 76.8672 44.8961C75.7205 45.2711 74.6696 45.8921 73.7879 46.7157C72.9063 47.5392 72.2153 48.5455 71.7632 49.6641C70.7776 52.0257 71.0336 54.6241 72.1536 56.8961L70.3168 57.8241C68.6784 50.8801 71.3088 43.2577 76.8576 38.7777C80.2304 36.0257 84.6016 34.4353 88.9632 34.5121H88.96Z" fill="white"/>
<path d="M42.384 41.7824C44.474 42.8231 46.336 44.2693 47.8617 46.0366C49.3873 47.804 50.546 49.8572 51.2704 52.0768C52.2848 55.1168 52.2752 58.2368 51.7792 61.3696L50.8576 61.872C47.7338 60.9718 44.5272 60.3886 41.2864 60.1312C35.5584 59.7696 29.712 59.5904 23.9904 60.1376C21.7824 60.192 19.68 60.7872 17.456 60.6432C17.1712 59.8624 16.912 59.0944 16.912 58.2528C16.8544 54.9536 17.6224 51.5936 19.296 48.7296C21.5396 44.853 25.1761 41.9769 29.4653 40.6869C33.7546 39.3969 38.3742 39.7897 42.384 41.7856V41.7824Z" fill="black"/>
<path d="M37.8368 42.1153C41.2824 42.8622 44.3811 44.7358 46.6432 47.4401C48.0577 49.1422 49.103 51.1197 49.7128 53.2471C50.3226 55.3746 50.4836 57.6055 50.1856 59.7985C48.897 59.3762 47.5779 59.0531 46.24 58.8321C42.2512 58.2523 38.222 57.9976 34.192 58.0705C34.1728 56.8481 34.2144 55.7025 33.7216 54.5569C33.2423 53.3322 32.4459 52.257 31.414 51.4416C30.3821 50.6263 29.1519 50.1 27.8496 49.9169C24.624 49.4305 21.3152 51.3057 20.0576 54.3137C19.344 55.8817 19.488 57.3985 19.4304 59.0657C18.8768 58.6625 18.8096 58.6273 18.7904 57.9393C18.6208 54.0801 20.0928 50.1505 22.608 47.2353C26.288 42.9153 32.2944 40.8865 37.84 42.1153H37.8368Z" fill="white"/>
<path d="M76.1824 18.4512C76.4576 18.16 76.8768 17.7152 76.7488 17.312C76.6368 16.528 75.6032 16.3168 75.0784 16.8448C74.1693 17.6042 73.2794 18.3863 72.4096 19.1904C71.7184 19.8176 71.0336 20.4448 70.3296 21.0464C70.0083 21.3432 69.6818 21.6345 69.3504 21.92C68.5056 22.656 67.6832 23.3792 67.008 24.32C67.1136 24.4256 67.2 24.5376 67.2896 24.6464C67.52 24.9344 67.7376 25.2032 68.1632 25.2256C68.6432 25.2 69.0304 24.864 69.3856 24.5536L69.5168 24.4416C70.8928 23.1616 72.3008 21.9136 73.7088 20.6656C74.5152 19.9488 75.3248 19.2352 76.1248 18.512L76.144 18.4896L76.1824 18.4512ZM83.4208 18.1312C83.5936 17.5552 83.3632 17.1872 82.9088 16.8512C82.2688 16.7424 81.68 17.088 81.1232 17.4144C80.9824 17.4976 80.8448 17.5776 80.7072 17.6512C79.2896 18.496 77.8528 19.3152 76.4192 20.1376C74.8736 21.0208 73.328 21.9008 71.8112 22.816C71.2896 23.0912 71.2832 23.4688 71.2736 23.9168C71.2736 24.0608 71.2672 24.2144 71.248 24.3712C71.3952 24.4032 71.536 24.448 71.6672 24.4928C72.0512 24.6208 72.3936 24.7328 72.8128 24.4768C74.432 23.5808 76.0352 22.6528 77.6416 21.7184C79.172 20.8219 80.7102 19.9386 82.256 19.0688C82.6912 18.8128 83.1744 18.5344 83.424 18.128L83.4208 18.1312ZM91.9648 18.048C92.6368 17.8112 93.3216 18.1184 93.3856 18.88C93.36 19.616 92.8224 19.808 92.256 20.0032L92.0096 20.0928C88.112 21.2832 84.2176 22.4928 80.3296 23.712C80.2112 23.7408 80.096 23.776 79.984 23.808C79.5552 23.936 79.1392 24.0576 78.704 23.8336C78.1216 23.4304 78.128 22.4512 78.8192 22.1632C79.3952 21.9008 80.0128 21.7216 80.6272 21.5456C82.132 21.0843 83.636 20.6203 85.1392 20.1536C87.4112 19.4432 89.6832 18.7328 91.9648 18.048ZM99.3216 21.8752C99.648 21.3536 99.52 20.9248 99.1776 20.4576C98.4576 20.224 97.6096 20.4224 96.8096 20.608C96.5312 20.672 96.2592 20.736 96.0032 20.7776C95.0944 20.9632 94.1792 21.1424 93.2704 21.3216H93.264C91.9392 21.5808 90.6176 21.84 89.296 22.1216C88.6976 22.272 88.1152 22.6464 88.304 23.36C88.512 24.0064 88.9504 24.144 89.5936 24.0384C90.8768 23.8144 92.1536 23.552 93.4336 23.2864C94.6656 23.0304 95.8976 22.7744 97.1328 22.56L97.5488 22.4768C98.1664 22.3616 98.8448 22.2368 99.3216 21.8752ZM40.576 23.264C41.1936 23.6672 41.808 24.064 42.4352 24.448C42.672 24.6016 42.9152 24.7488 43.1552 24.896C43.7088 25.232 44.2656 25.5712 44.7552 25.984C45.2992 26.416 45.1392 27.3504 44.4896 27.584C43.9136 27.696 43.5104 27.4432 43.072 27.1712L42.7712 26.992C41.3952 26.1024 40.0128 25.2288 38.6272 24.352L37.2928 23.5072C37.2608 23.4816 37.2224 23.4528 37.1808 23.4272L37.0624 23.3408C36.7104 23.1008 36.288 22.8096 36.2944 22.4032C36.1824 21.6256 37.0048 21.0976 37.6928 21.4848C38.6784 22.0288 39.6288 22.6496 40.576 23.2672V23.264Z" fill="black"/>
<path d="M33.5808 23.5295C32.9592 23.3034 32.3231 23.1195 31.6768 22.9791C30.8768 22.8191 30.3584 23.6255 30.6176 24.3487C30.9824 24.7551 31.4368 24.9087 31.9232 25.0719L32.0512 25.1167L32.1536 25.1487C33.44 25.5519 34.7232 25.9647 36.0032 26.3807H36.0128C37.3376 26.8095 38.6592 27.2383 39.9872 27.6479C40.7744 27.8975 41.5488 27.8303 41.7024 26.8735C41.648 26.1983 41.0624 25.9775 40.512 25.7727L40.464 25.7567L40.3904 25.7279L40.2304 25.6639C38.2912 25.0399 36.3456 24.4191 34.4 23.7983C34.128 23.7151 33.856 23.6223 33.5808 23.5295ZM98.6016 23.4687C99.7056 23.3983 100.81 23.3791 101.92 23.3599C102.72 23.3439 103.52 23.3279 104.32 23.2959C104.448 23.3055 104.589 23.3055 104.736 23.3055C105.27 23.3055 105.888 23.3055 106.128 23.7951C106.531 24.3519 106.064 25.0047 105.482 25.1359C104.55 25.3343 103.549 25.3279 102.57 25.3215C102.189 25.3215 101.811 25.3183 101.44 25.3279C101.12 25.3279 100.8 25.3407 100.48 25.3503C99.9424 25.3663 99.4048 25.3823 98.8672 25.3631C98.4768 25.3631 97.8688 25.2511 97.7472 24.8191C97.6828 24.6747 97.6552 24.5166 97.6666 24.3589C97.6781 24.2012 97.7283 24.0488 97.8128 23.9152C97.8974 23.7816 98.0136 23.6709 98.1512 23.593C98.2888 23.5151 98.4435 23.4724 98.6016 23.4687ZM26.0096 25.8783C25.3568 25.8463 24.6752 25.8143 24.064 25.9807C23.584 26.3647 23.5936 27.0815 24.016 27.5167C24.5472 27.7407 25.1808 27.7919 25.76 27.8367L25.8112 27.8399L25.9136 27.8495C27.0112 27.9007 28.1056 27.9679 29.2 28.0351C30.4544 28.1151 31.7056 28.1919 32.9568 28.2463C33.2288 28.2527 33.5072 28.2783 33.7888 28.3039C34.3776 28.3615 34.9792 28.4159 35.5296 28.2847C35.6735 28.2377 35.803 28.1547 35.9058 28.0436C36.0087 27.9326 36.0815 27.7971 36.1174 27.65C36.1533 27.503 36.1511 27.3492 36.1109 27.2032C36.0708 27.0573 35.994 26.9239 35.888 26.8159C35.6192 26.4991 35.2896 26.4799 34.9344 26.4575C34.8128 26.4479 34.688 26.4415 34.5632 26.4223L30.56 26.1631L26.56 25.9039C26.3776 25.9007 26.1952 25.8911 26.0064 25.8815L26.0096 25.8783ZM22.3904 28.6847L23.824 28.5791C25.1648 28.4703 26.512 28.3615 27.8432 28.4447C28.7808 28.5279 28.8448 29.9647 27.9232 30.1791C26.9952 30.4127 26.0128 30.4479 25.0336 30.4863C24.4704 30.5055 23.9072 30.5279 23.36 30.5855C22.9856 30.5983 22.6048 30.6335 22.224 30.6655C21.4336 30.7359 20.6368 30.8063 19.8688 30.7039C19.0848 30.5663 18.992 29.2863 19.7024 28.9919C20.2688 28.7839 20.9152 28.7583 21.5456 28.7359C21.8336 28.7231 22.1184 28.7135 22.3904 28.6847ZM21.2832 33.0751C22.2144 32.7711 22.1728 31.3919 21.1296 31.2735C20.2176 31.2831 19.2992 31.4495 18.3872 31.6127C17.9552 31.6895 17.5264 31.7663 17.1008 31.8271C16.864 31.8847 16.5888 31.9231 16.2944 31.9551C15.568 32.0447 14.7648 32.1471 14.3616 32.6527C13.9904 33.4175 14.5312 34.1247 15.344 34.0543C17.3184 33.8175 19.344 33.4911 21.2832 33.0751Z" fill="black"/>
<path d="M69.44 81.3631C70.4256 81.3311 71.3984 81.3408 72.3744 81.4688L72.784 82.2335L72.384 83.024C69.9264 83.2992 67.4304 83.0431 64.96 83.2351C55.9904 83.2959 47.0464 83.3311 38.0672 83.4111C37.5328 83.4527 36.608 83.2415 36.6688 82.5535C36.4992 82.0191 37.2608 81.4943 37.7408 81.5391C48.3072 81.4911 58.8736 81.4271 69.44 81.3631Z" fill="black"/>
<path fill-rule="evenodd" clip-rule="evenodd" d="M105.28 30.016C107.261 29.968 109.238 29.9616 111.216 29.9584C112.65 29.9552 114.086 29.9488 115.52 29.9264C115.699 29.9328 115.882 29.9328 116.064 29.9328C117.056 29.9328 118.064 29.9392 119.04 30.0928C119.866 30.2624 120.835 30.7136 120.992 31.6384C121.273 33.4566 121.147 35.3145 120.624 37.0784C120.477 37.6416 120.067 37.7472 119.552 37.824C118.445 37.9392 117.328 38.0064 116.218 38.0736L115.014 38.1472C115.053 39.5168 115.136 40.912 115.219 42.3136C115.443 46.064 115.667 49.8752 115.078 53.4496C114.77 55.8473 114.154 58.1953 113.245 60.4352C112.25 63.1712 110.333 65.616 108.31 67.6736C105.165 70.9888 101.19 73.5584 96.7264 74.6496C93.234 75.3935 89.6523 75.6274 86.0928 75.344C83.1424 74.8384 80.0768 74.1056 77.4336 72.656C74.0736 70.72 71.5232 67.84 69.504 64.5632C66.8896 60.5248 65.696 55.8656 64.5536 51.2544C64.3872 50.5536 64.2848 49.8304 64.1792 49.1072C64.0448 48.2016 63.9136 47.2928 63.664 46.4288C63.5104 45.8592 62.8192 45.4464 62.3296 45.1808C60.1856 44.1056 57.0816 44.88 56.2528 47.2928C56.0928 48.2016 56.0768 49.1328 56.0608 50.064C56.0416 50.9792 56.0256 51.8976 55.872 52.8C55.232 56.9696 54.3456 61.1648 52.4928 64.9792C50.7168 68.6848 48.7488 72.0288 45.3024 74.4192C41.1808 76.9024 36.2336 78.72 31.36 78.2336C29.1648 78.1856 26.864 77.7856 24.8448 76.912C22.6464 75.7248 20.4288 74.3168 18.816 72.3808C15.5136 68.4512 13.392 63.5168 12.16 58.5664C11.5648 56.3808 11.1904 54.1472 11.2128 51.8784C10.688 51.952 10.1664 52.0544 9.64483 52.1568C8.87683 52.304 8.11202 52.4544 7.34082 52.528C7.00132 52.5759 6.65528 52.5192 6.34884 52.3654C6.0424 52.2116 5.79011 51.968 5.62562 51.6672C4.99842 50.464 4.83842 48.9856 5.05922 47.6576L5.09762 47.4848C5.17122 47.1328 5.24803 46.7488 5.61283 46.592C14.3904 42.5728 23.5136 40 32.9664 38.128C36.5632 37.3888 40.1568 36.9088 43.84 37.1456C47.0558 37.1374 50.2254 37.9117 53.0752 39.4016C56.528 40.9408 60.9152 41.1328 64.3232 39.3632C65.296 38.8896 65.9008 38.1856 66.5408 37.4464C66.9296 36.9748 67.352 36.5321 67.8048 36.1216C70.944 33.216 75.1968 31.8784 79.3632 31.3856C83.5552 30.6272 87.7664 30.4256 92.0096 30.2176L92.8096 30.1792C94.5824 30.1312 96.3616 30.1312 98.1376 30.1312C100.518 30.1312 102.902 30.1312 105.28 30.016ZM97.92 32.0192C100.589 31.9104 103.142 31.8752 105.648 32.9472C105.856 33.0432 106.086 33.1392 106.323 33.2352C107.338 33.6544 108.518 34.1408 108.848 35.1456C110.707 39.1136 111.478 43.6448 111.533 48C111.712 51.9808 111.254 56.16 109.869 59.9104C108.678 63.0432 106.509 65.3856 104.026 67.552C102.358 68.9344 100.307 69.952 98.336 70.8224C95.408 72.048 92.16 72.9984 88.96 72.7904C87.104 72.6816 85.2576 72.2208 83.456 71.7728L83.1776 71.6992C81.2704 71.2288 79.7568 70.24 78.1536 69.1872L77.8784 69.008C75.7024 67.5552 73.9648 65.6608 72.4128 63.5744C71.5264 62.3168 70.9536 60.8 70.3968 59.3344L70.0064 58.3232C68.5216 54.5024 68.0928 50.4672 68.128 46.3936C68.16 43.9168 68.512 40.9728 69.8912 38.8576C71.536 36.7904 73.7344 34.9408 76.2368 34.032C79.2032 33.136 82.3584 32.672 85.4464 32.4448C89.1488 32.0352 92.8608 32.0288 96.5344 32.0192H97.92ZM42.768 39.0784C42.48 39.072 42.1984 39.0656 41.9168 39.0528C39.1616 38.7744 36.2048 39.3536 33.4368 39.8944L32.3232 40.112C31.5904 40.2784 30.8608 40.432 30.1344 40.592C27.1264 41.2352 24.1728 41.872 21.2768 43.04C20.9888 43.1552 20.688 43.2672 20.3872 43.3824C18.5408 44.0768 16.544 44.832 15.6032 46.6432C14.0544 49.8016 14.4096 52.9184 14.784 56.2208L14.9024 57.2768C15.52 61.04 17.088 64.7136 19.1072 67.9392C20.7264 70.5024 22.5952 72.7648 25.3216 74.2016C29.4112 76.4736 34.2656 76.1696 38.5696 74.704C42.2048 73.2864 45.5328 71.5616 47.7088 68.1824C50.5376 63.6896 52.1632 58.3744 52.6592 53.104C52.9504 50.1024 52.6272 47.0784 51.8016 44.1824C51.6544 43.7376 51.488 43.248 51.1968 42.8736C49.536 41.0816 47.4848 39.7152 45.056 39.2416C44.3104 39.1136 43.5328 39.0944 42.768 39.0784Z" fill="black"/>
</g>
</g>
</g>
<defs>
<clipPath id="clip0_3135_124">
<rect width="128" height="128" rx="64" fill="white"/>
</clipPath>
<clipPath id="clip1_3135_124">
<rect width="128" height="128" fill="white"/>
</clipPath>
</defs>
</svg>
