<svg width="128" height="128" viewBox="0 0 128 128" fill="none" xmlns="http://www.w3.org/2000/svg">
<g clip-path="url(#clip0_3135_234)">
<g clip-path="url(#clip1_3135_234)">
<mask id="mask0_3135_234" style="mask-type:luminance" maskUnits="userSpaceOnUse" x="0" y="0" width="128" height="128">
<path d="M128 0H0V128H128V0Z" fill="white"/>
</mask>
<g mask="url(#mask0_3135_234)">
<path d="M128 0H0V128H128V0Z" fill="#F3037B"/>
<path d="M83.68 40.2336C89.728 39.4592 96.3616 40.048 101.904 42.7296C104.64 44.064 107.261 46.0256 108.694 48.7776C109.942 51.1232 109.946 54.1376 108.643 56.464C107.293 59.04 104.803 60.976 102.266 62.3008C97.9296 64.5472 92.8576 65.4464 88.0032 65.3888C84.1504 65.3952 80.3456 64.8096 76.7392 63.4336C73.8656 62.3232 71.088 60.656 69.1392 58.2304C67.5904 56.272 66.6976 53.7088 67.2544 51.2128C67.8432 48.4736 69.6544 46.2976 71.8624 44.6624C75.2672 42.1536 79.5264 40.8288 83.6768 40.2336H83.68Z" fill="black"/>
<path d="M85.7536 41.8272C88.4416 41.7408 91.2704 41.6416 93.9136 42.1728C97.3056 42.7168 100.778 43.8688 103.61 45.8368C105.37 47.1008 106.947 48.7456 107.562 50.8704C108.208 53.0464 107.475 55.392 106.042 57.0944C104.09 59.4816 101.062 61.056 98.1856 62.032C95.0208 63.0752 91.6544 63.6576 88.32 63.5808C85.0389 63.6436 81.7702 63.1624 78.6464 62.1568C75.7056 61.1808 72.7424 59.696 70.7168 57.2832C69.3408 55.6704 68.5088 53.2992 69.1616 51.2128C69.6416 49.1168 71.3024 47.3536 72.9824 46.1056C76.6304 43.4624 81.3248 42.2464 85.7536 41.8272Z" fill="white"/>
<path d="M30.2336 44.4032C35.456 43.6704 41.1872 44.1152 45.9456 46.528C48.4224 47.808 50.88 49.8656 51.6928 52.6304C52.4384 54.9024 51.6384 57.3472 50.2048 59.1648C48.192 61.6448 45.3152 63.1392 42.3168 64.0928C37.6126 65.518 32.6213 65.712 27.8208 64.656C24.6624 63.936 21.4208 62.5856 19.1328 60.2112C17.6256 58.6912 16.5984 56.592 16.7808 54.4128C16.9536 52.1024 18.3744 50.0448 20.1184 48.5952C22.9376 46.2208 26.6368 44.9792 30.2304 44.4L30.2336 44.4032Z" fill="black"/>
<path d="M29.6 46.3744C34.5984 45.4144 40.1344 45.808 44.7776 47.9904C46.8128 48.9568 49.0752 50.6336 49.8144 52.8544C50.48 54.656 49.9296 56.5984 48.752 58.048C47.2672 59.8912 44.9888 61.184 42.8 62C38.8061 63.4371 34.5193 63.8658 30.32 63.248C27.3504 62.8352 24.2496 61.8784 21.7888 60.1184C20.1152 58.8704 18.7072 57.2288 18.6208 55.0464C18.5568 52.8544 19.952 51.04 21.5904 49.7408C23.872 47.9808 26.7904 46.9248 29.6 46.3744Z" fill="white"/>
<path d="M100.234 47.104C100.912 46.5952 101.722 47.0016 102.138 47.6352C102.906 48.9152 102.899 50.7072 103.034 52.16C103.098 53.5648 103.187 55.2448 102.64 56.56C102.006 57.8624 100.272 56.9888 99.856 55.984C99.1264 53.952 99.1552 51.584 99.3184 49.456C99.4528 48.7008 99.5232 47.5552 100.234 47.104ZM44.112 49.3024C44.8096 49.472 45.0112 50.5088 45.1712 51.104C45.4336 52.7136 45.6128 54.384 45.5104 56.0128C45.4048 56.8256 45.2896 57.8336 44.512 58.2944C43.8496 58.7072 43.1456 58.2848 42.8 57.6768C42.1376 56.448 42.1088 54.8032 42.0672 53.44C42.0864 52.0448 42.0352 50.6464 42.784 49.4208C43.2448 49.296 43.632 49.1136 44.112 49.3024Z" fill="black"/>
<path d="M104.957 24.1888C105.443 24.0608 106 24.3808 106.474 24.4992C106.438 24.8832 106.419 25.2832 106.323 25.6544C105.818 26.1344 105.181 26.4864 104.598 26.864C97.312 31.536 89.8208 35.952 82.096 39.8656C78.4064 41.6992 74.6272 43.4816 70.72 44.8064C68.5248 45.5072 66.3296 46.176 64 45.9072C62.9376 45.808 62.0256 44.9408 62.0032 43.8496C61.9904 42.4992 62.9632 41.0976 63.6288 39.9616C64.0384 39.104 65.0688 38.9888 65.8688 38.6432C77.7824 34.2432 89.6864 29.7952 101.6 25.3792C102.714 24.9856 103.808 24.48 104.96 24.1888H104.957ZM19.1968 35.4048C28.7584 37.3056 38.4384 39.2544 48.0032 41.1712C48.7296 41.2736 49.4752 41.1936 50.1952 41.3152C50.9792 42.0512 51.36 43.2992 51.648 44.3136C52.0224 45.6224 51.6 47.12 50.4 47.8336C49.12 48.6752 47.2256 48.528 45.76 48.4416C42.96 48.1216 40.1856 47.2256 37.5392 46.2848C31.264 43.9936 25.1584 40.8672 19.3088 37.6544C18.7744 37.3472 18.1312 37.0336 17.776 36.5184C17.6544 35.5968 18.368 35.1872 19.1968 35.4048Z" fill="black"/>
<path d="M78.4512 74.8351C78.6464 77.0655 78.1952 79.0879 77.9616 81.2799C77.053 89.0352 74.9874 96.6105 71.8336 103.754C70.6656 106.099 69.6832 108.79 67.3728 110.262C66.1376 111.155 64.4576 110.883 63.1488 110.314C61.7152 109.6 60.288 108.72 59.1808 107.552C55.3226 103.569 52.0912 99.0231 49.5968 94.0703C47.4336 90.0575 45.8688 85.8271 44.1184 81.6319C43.824 80.9599 43.7568 80.3167 44.4608 79.8943C45.8624 79.8623 47.2288 80.3455 48.64 80.3583C51.8048 80.4639 55.04 80.5247 58.1792 80.0767C63.84 79.4239 69.408 77.7887 74.672 75.6287C76.0224 75.1391 76.9536 74.2495 78.448 74.8351H78.4512Z" fill="black"/>
<path d="M76.7744 76.7999C76.1024 82.0319 75.4432 87.0559 73.9296 92.1471C71.0272 91.9199 68.0256 92.9759 65.4624 94.2623C62.0896 96.0159 58.6784 98.5759 56.7392 101.907C54.3168 98.7679 52.3424 95.3727 50.5472 91.8463C48.8192 88.6015 47.552 85.2063 46.0768 81.8495C49.1008 82.1055 51.9968 82.5055 55.0368 82.1695C62.4608 81.9391 69.9744 79.7119 76.7744 76.7999Z" fill="#8F2E45"/>
<path d="M73.3408 94.1119C72.1152 98.3679 70.5184 102.56 68.3648 106.438C67.8464 107.363 67.1872 108.307 66.2208 108.803C64.9088 109.35 63.2992 108.422 62.2336 107.683C60.5248 106.602 59.488 105.03 58.1184 103.603C58.7392 101.894 60.1024 100.41 61.4464 99.2191C63.9488 97.0815 66.9184 95.3663 70.0864 94.4511C71.152 94.1183 72.2336 94.0799 73.3408 94.1119Z" fill="#EA869E"/>
</g>
</g>
</g>
<defs>
<clipPath id="clip0_3135_234">
<rect width="128" height="128" rx="64" fill="white"/>
</clipPath>
<clipPath id="clip1_3135_234">
<rect width="128" height="128" fill="white"/>
</clipPath>
</defs>
</svg>
