<svg width="128" height="128" viewBox="0 0 128 128" fill="none" xmlns="http://www.w3.org/2000/svg">
<g clip-path="url(#clip0_3135_202)">
<g clip-path="url(#clip1_3135_202)">
<mask id="mask0_3135_202" style="mask-type:luminance" maskUnits="userSpaceOnUse" x="0" y="0" width="128" height="128">
<path d="M128 0H0V128H128V0Z" fill="white"/>
</mask>
<g mask="url(#mask0_3135_202)">
<path d="M128 0H0V128H128V0Z" fill="#FCAA72"/>
<path d="M91.2876 40.9236C91.8636 41.074 91.902 41.5348 91.9212 42.0436C91.9276 44.1972 91.6364 46.338 91.6812 48.498C94.35 48.6804 96.8332 49.138 99.3932 49.9092C100.379 47.6372 101.256 45.3172 102.184 43.0228C102.484 42.4404 102.651 41.6916 103.473 41.8036C104.225 41.8772 104.299 42.7636 104.04 43.3236C103.096 45.7396 102.11 48.146 101.131 50.546C103.239 51.3989 105.206 52.5686 106.961 54.0148C108.523 52.5492 110.036 51.0228 111.636 49.5988C112.152 49.0996 112.696 49.2628 113.345 49.234C113.288 49.8676 113.428 50.4084 112.907 50.8884C111.387 52.402 109.803 53.8548 108.235 55.3268C109.377 56.9716 110.334 58.6036 110.379 60.6708C110.587 63.8324 108.827 66.514 106.52 68.4948C102.955 71.5092 98.1452 73.0516 93.5756 73.6436C88.2636 74.226 82.7532 73.9124 77.7132 72.0276C74.7756 70.9236 71.8956 69.2244 69.9084 66.7476C68.2924 64.6964 67.4156 62.05 68.0844 59.4516C68.8748 56.29 71.262 53.9348 73.9628 52.274C78.6988 49.4164 84.3212 48.4084 89.79 48.418C89.8668 46.3156 89.9628 44.2036 90.1452 42.1076C90.1644 41.474 90.5388 40.738 91.2844 40.9236H91.2876ZM30.526 46.7188C31.1436 46.658 31.358 47.4228 31.5308 47.8804C31.9116 49.4708 31.9468 51.1444 32.2252 52.7572C34.9686 52.4795 37.7366 52.5612 40.4588 53.0004C43.934 53.6468 47.5148 54.9268 50.1004 57.426C51.6876 58.9172 52.8172 61.0164 52.7468 63.234C52.5996 65.6084 51.3292 67.6148 49.5724 69.1476C46.7244 71.6628 42.7116 72.9812 39.0092 73.5348C33.982 74.2484 28.4588 73.7524 23.8412 71.5348C21.1212 70.1972 18.4012 67.9316 17.694 64.8564C17.278 63.1956 17.6812 61.6724 18.3244 60.1396C17.0892 59.01 15.8604 57.8676 14.6604 56.706C14.398 56.3828 13.8924 56.0084 14.0204 55.5508C14.0268 54.738 15.1244 54.5652 15.6172 55.1124C16.8972 56.2324 18.0812 57.4612 19.3548 58.594C20.4093 57.4562 21.6089 56.462 22.9228 55.6372C22.046 53.6756 21.1564 51.7204 20.2828 49.762C19.9276 49.058 20.0108 48.3572 20.0588 47.5988C20.4588 47.666 20.9004 47.6788 21.2716 47.842C21.646 48.2228 21.8604 48.7892 22.0908 49.2692C22.8908 51.1156 23.7484 52.9332 24.5164 54.7892C26.4332 53.9668 28.3212 53.4068 30.3692 53.01C30.2412 51.2788 29.8252 49.586 29.7164 47.8548C29.7164 47.3652 29.8412 46.5492 30.5132 46.7188H30.526Z" fill="black"/>
<path d="M84.1324 50.6483C88.814 49.9379 93.7324 50.1587 98.286 51.5027C101.326 52.4435 104.433 53.8867 106.584 56.3091C107.96 57.8611 108.836 59.8451 108.504 61.9539C108.164 64.2707 106.657 66.0851 104.868 67.4899C102.052 69.6787 98.3884 70.9331 94.9164 71.5923C89.8796 72.4883 84.5612 72.2707 79.6684 70.7507C76.6508 69.7843 73.5596 68.2643 71.4892 65.7971C70.1068 64.1683 69.2876 61.8291 69.934 59.7171C70.4332 57.6179 72.0684 55.8771 73.7516 54.6227C76.7436 52.4499 80.51 51.2243 84.1324 50.6483ZM30.382 54.8883C35.3772 53.9283 40.91 54.3251 45.55 56.5043C47.5884 57.4739 49.838 59.1443 50.5836 61.3619C51.246 63.1699 50.7052 65.1059 49.5244 66.5587C48.0428 68.3987 45.7676 69.6883 43.5788 70.5075C39.5053 71.9766 35.1271 72.3949 30.8492 71.7236C27.9628 71.2916 24.9484 70.3475 22.558 68.6291C20.8876 67.3907 19.4796 65.7363 19.39 63.5635C19.3292 61.4515 20.6284 59.6915 22.1868 58.3987C24.4876 56.5395 27.5084 55.4547 30.3788 54.8883H30.382Z" fill="white"/>
<path d="M101.009 55.6116C101.697 55.1124 102.488 55.5124 102.91 56.146C103.496 57.1508 103.598 58.258 103.71 59.3972C103.844 61.0548 103.988 62.8276 103.627 64.466C103.545 64.9053 103.316 65.3036 102.977 65.5956C102.043 66.0628 100.785 65.1988 100.542 64.2644C99.9084 62.274 99.9276 60.0308 100.094 57.9604C100.222 57.2052 100.299 56.0724 101.009 55.6116ZM43.7516 57.8996C43.9231 57.798 44.1157 57.7373 44.3144 57.7225C44.5131 57.7076 44.7126 57.7389 44.8973 57.8138C45.0819 57.8888 45.2467 58.0055 45.3788 58.1547C45.5109 58.3039 45.6068 58.4816 45.6588 58.674C46.2348 60.3028 46.2732 62.1652 46.3148 63.8772C46.2668 64.8788 46.1964 66.4532 45.0956 66.9044C44.2668 67.2052 43.6268 66.4628 43.3676 65.7588C42.766 64.0756 42.8044 62.1108 42.8876 60.3508C42.9644 59.5956 43.0284 58.3412 43.7516 57.8964V57.8996Z" fill="black"/>
<path d="M93.3932 35.3813C93.2012 34.4469 92.5996 33.8229 91.9212 33.1989C88.0876 29.6949 82.3596 28.1205 77.3164 29.4933C74.206 30.2613 71.3932 32.1685 69.7548 34.9525C68.8492 36.5621 68.2252 38.3253 68.4812 40.2005C68.5068 40.3349 68.5228 40.4661 68.5388 40.5941C68.6028 41.1157 68.6572 41.5541 69.3196 41.7269C70.014 41.7653 70.7276 41.6341 71.4124 41.5093L71.5116 41.4901L73.502 41.1061C75.1788 40.7861 76.8556 40.4661 78.5196 40.0853C83.3479 39.0767 88.1382 37.8941 92.8812 36.5397C93.4476 36.4597 93.4252 36.0213 93.4028 35.5733L93.3932 35.3813ZM49.1244 43.4101C48.8652 40.2741 46.2764 37.8389 43.4028 36.9109C41.2805 36.287 39.032 36.2283 36.88 36.7408C34.728 37.2532 32.7473 38.319 31.134 39.8325C29.71 41.1701 28.4492 43.0229 28.2156 44.9973C28.19 45.8741 28.9708 45.8869 29.6364 45.8997C29.7196 45.8997 29.8028 45.8997 29.8828 45.9061C30.8492 45.8805 31.8188 45.8613 32.7852 45.8421C35.774 45.7877 38.7692 45.7301 41.7388 45.4261C42.5068 45.3589 43.2844 45.3045 44.0556 45.2533C45.4188 45.1573 46.782 45.0677 48.1324 44.8885C48.9068 44.8981 49.182 44.0565 49.1244 43.4101Z" fill="black"/>
<path d="M76.7628 83.2661C78.6892 84.6837 80.5068 86.4661 81.6588 88.5845C82.5036 90.1301 82.7052 92.3157 81.5244 93.7461C80.1996 95.4645 77.8444 96.1717 75.8028 96.5493C70.7884 97.3397 65.5948 96.8533 60.6156 96.0373C58.7788 95.6821 57.358 96.5589 55.4956 96.8533C52.7116 97.3653 49.6204 97.7877 46.8364 97.1733C45.1948 96.8469 43.5468 96.1493 42.5676 94.7253C41.678 93.4869 41.7228 91.7365 42.2092 90.3509C42.7392 89.027 43.5022 87.8088 44.462 86.7541C44.8876 86.1973 45.4476 86.4341 46.0524 86.3957C46.1484 86.9845 46.3916 87.4293 45.9372 87.9381C45.102 89.0069 44.2604 89.9765 43.8764 91.3141C43.518 92.3605 43.7708 93.5317 44.6444 94.2389C45.614 94.9973 46.9356 95.3493 48.142 95.4773C50.6316 95.6373 53.1244 95.5221 55.5532 94.9237C57.3452 94.5845 58.7404 93.7813 60.6124 94.1237C64.462 94.7381 68.222 95.2245 72.1324 95.0197C74.3468 94.9461 76.5996 94.6773 78.6188 93.7045C79.6524 93.1349 80.5516 92.3765 80.4364 91.0741C80.35 89.1381 78.494 87.3013 77.1564 86.0501C76.3564 85.2021 75.0252 84.7413 75.23 83.3749C75.806 83.0869 76.174 82.7989 76.766 83.2661H76.7628Z" fill="black"/>
</g>
</g>
</g>
<defs>
<clipPath id="clip0_3135_202">
<rect width="128" height="128" rx="64" fill="white"/>
</clipPath>
<clipPath id="clip1_3135_202">
<rect width="128" height="128" fill="white"/>
</clipPath>
</defs>
</svg>
