<svg width="128" height="128" viewBox="0 0 128 128" fill="none" xmlns="http://www.w3.org/2000/svg">
<g clip-path="url(#clip0_3135_83)">
<g clip-path="url(#clip1_3135_83)">
<mask id="mask0_3135_83" style="mask-type:luminance" maskUnits="userSpaceOnUse" x="0" y="0" width="128" height="128">
<path d="M128 0H0V128H128V0Z" fill="white"/>
</mask>
<g mask="url(#mask0_3135_83)">
<path d="M128 0H0V128H128V0Z" fill="white"/>
<path d="M88.64 32.6624C93.3947 32.5968 98.0291 34.157 101.776 37.0848C107.69 41.6544 110.8 49.4368 109.53 56.816C109.219 59.232 108.282 61.3856 107.357 63.6096C106.909 63.8176 106.435 64.096 105.942 64.176C105.197 64.1984 104.406 63.888 103.69 63.68C98.5986 62.1415 93.3178 61.3208 88 61.2416C83.1808 61.3696 78.5248 62.0608 74.2112 64.3264C73.2352 64.736 72.3488 65.616 71.344 64.7296C68.5984 60.7552 67.6448 55.6224 68.2048 50.8672C68.8151 46.0991 71.0573 41.6894 74.5504 38.3872C78.3579 34.7718 83.3899 32.7272 88.64 32.6624Z" fill="black"/>
<path d="M88.96 34.512C93.344 34.448 97.632 36.0607 101.018 38.8159C104.015 41.2725 106.187 44.5899 107.238 48.32C108.57 52.9658 108.078 57.9446 105.862 62.24C104.15 62.048 102.608 61.3951 100.915 61.0335C95.7792 59.8335 90.3808 59.1776 85.1104 59.6032C80.6927 59.8793 76.3941 61.1481 72.5344 63.3151C70.2784 59.4335 69.2704 54.6752 70.1504 50.2496C71.0055 45.3553 73.7384 40.9885 77.7664 38.08C81.0016 35.7632 84.9664 34.4416 88.96 34.512Z" fill="white"/>
<path d="M32.7392 40.0256C36.926 39.606 41.1254 40.6905 44.5856 43.0848C46.5047 44.4195 48.1388 46.123 49.3925 48.0959C50.6463 50.0689 51.4946 52.2717 51.888 54.576C52.272 57.216 52.1984 60.0448 51.3856 62.6048C50.6563 65.041 49.4067 67.2899 47.7233 69.196C46.0398 71.1021 43.9626 72.6199 41.6352 73.6448C37.4312 75.4864 32.6757 75.6207 28.3744 74.0192C24.7257 72.6577 21.6326 70.1229 19.5808 66.8128C17.9648 64.2368 17.1232 61.2864 16.9216 58.2688C16.816 54.2464 18.0064 50.2208 20.4416 46.9984C21.8991 45.05 23.7442 43.4243 25.8606 42.2238C27.977 41.0232 30.319 40.2737 32.7392 40.0224V40.0256Z" fill="black"/>
<path d="M31.1968 42.1344C37.0016 40.8032 43.2928 43.1072 46.9312 47.7984C49.7152 51.3312 51.0048 56.224 49.9872 60.64C49.3497 63.8489 47.7212 66.7769 45.3312 69.0112C42.7375 71.4517 39.3975 72.9476 35.8496 73.2576C29.5648 73.84 23.296 70.3008 20.48 64.6624C19.3907 62.5133 18.8086 60.1431 18.7785 57.734C18.7484 55.3248 19.2711 52.9408 20.3063 50.7652C21.3416 48.5896 22.8619 46.6803 24.7504 45.1841C26.6389 43.6879 28.8453 42.6446 31.2 42.1344H31.1968Z" fill="white"/>
<path d="M76.9248 48.8799C79.6672 48.1599 82.6368 50.0159 83.1168 52.8191C83.7088 55.4623 81.8752 58.2175 79.232 58.7455C76.304 59.4815 73.1808 57.1295 73.136 54.0959C72.9056 51.6959 74.6208 49.4559 76.9248 48.8799ZM39.808 52.3583C41.8464 51.6607 44.0576 52.5183 45.3344 54.1823C46.7872 56.0831 46.672 58.9535 45.0048 60.6847C43.3984 62.5375 40.3648 62.848 38.3968 61.4496C37.718 60.9877 37.1618 60.3677 36.776 59.6429C36.3902 58.9182 36.1865 58.1105 36.1824 57.2895C36.0992 55.0655 37.6832 52.9695 39.808 52.3615V52.3583Z" fill="black"/>
<path d="M71.3568 20.1472C74.5248 20.1856 77.7152 21.1808 80.5824 22.4864C81.6576 23.088 82.8384 23.7664 82.9184 25.1424C81.2768 24.864 79.6768 24.48 78 24.4064C74.288 24.192 70.5984 24.8448 67.36 26.7232C66.5472 27.1744 65.776 27.7664 64.9152 28.1152C64.3392 28.2016 63.6608 27.4752 63.6544 26.9216C63.5968 25.0624 64.2784 23.1072 65.744 21.8976C67.3536 20.544 69.312 20.2016 71.3568 20.1472ZM43.2096 25.7952C45.0688 25.8432 46.7072 27.4912 47.2128 29.2C47.4688 30.0416 47.0656 31.0304 46.0832 30.9952C43.2608 31.0592 40.2592 31.0048 37.504 31.7184C35.0976 32.3584 32.7872 33.8624 30.6688 35.1552C30.2784 35.4144 29.8464 35.4624 29.3952 35.5456C29.5008 34.928 29.6 34.3744 30.016 33.8816C31.0494 32.4747 32.199 31.157 33.4528 29.9424C35.3344 28.288 37.6128 27.0752 39.9552 26.2112C41.0004 25.8526 42.108 25.7121 43.2096 25.7984V25.7952Z" fill="black"/>
<path d="M61.1168 69.6448C64.1408 69.4464 66.9952 71.3088 69.1744 73.2224C72.2464 76.0384 74.7136 79.6512 76.7072 83.2992C80.7802 90.9152 83.3404 99.2477 84.2464 107.837C84.4064 109.245 84.736 110.614 83.4688 111.632C81.1264 112.752 78.4 113.216 75.84 113.552C70.7296 113.997 65.4336 113.283 60.48 112.003C59.728 111.763 59.0336 111.718 58.7424 110.861C55.6885 104.191 53.746 97.0665 52.992 89.7696C52.6688 85.8208 52.6496 81.8016 53.568 77.9232C54.0864 75.824 54.928 73.6768 56.3584 72.0288C57.5488 70.6528 59.2704 69.6608 61.1168 69.6448Z" fill="black"/>
<path d="M62.5568 71.5616C65.5648 72.2272 68.0192 74.5536 70.0288 76.7616C65.5648 78.6752 60.1408 79.8336 55.3536 78.6208C55.76 76.6464 56.56 74.4896 57.9936 73.0208C59.1456 71.8112 60.896 71.1328 62.5568 71.5616Z" fill="white"/>
<path d="M71.3152 78.3616C75.36 83.7472 78.2016 90.0928 80.096 96.5344C78.0832 96.9504 76.2752 97.8016 74.496 98.8064C70.7936 100.966 67.3185 103.888 64.8833 107.437C64.1537 108.566 63.3825 109.517 63.4305 110.938C62.4808 110.692 61.5247 110.472 60.5633 110.278C57.8689 104.566 56.0929 98.3968 55.1489 92.1568C54.6369 88.1696 54.3552 84.3008 55.0272 80.3104C56.7552 80.6432 58.3873 81.0464 60.1633 80.9312C61.7633 80.8064 63.3793 80.6272 64.9633 80.3264C67.1681 79.92 69.2032 79.0816 71.3152 78.3616Z" fill="#8F2E45"/>
<path d="M79.536 98.4448C80.016 98.2368 80.304 98.4832 80.7392 98.6464C81.616 102.4 82.3616 106.166 82.5408 110.026C79.9968 111.066 77.3568 111.507 74.6432 111.805C71.2896 112.106 68.1632 111.594 64.8512 111.229C66.2608 108.424 68.2068 105.924 70.5792 103.869C73.1808 101.597 76.2368 99.5264 79.536 98.4448Z" fill="#EA869E"/>
</g>
</g>
</g>
<defs>
<clipPath id="clip0_3135_83">
<rect width="128" height="128" rx="64" fill="white"/>
</clipPath>
<clipPath id="clip1_3135_83">
<rect width="128" height="128" fill="white"/>
</clipPath>
</defs>
</svg>
